M48
; DRILL file {KiCad 5.1.10-88a1d61d58~90~ubuntu21.04.1} date Tue Aug 17 10:31:57 2021
; FORMAT={-:-/ absolute / metric / decimal}
; #@! TF.CreationDate,2021-08-17T10:31:57+02:00
; #@! TF.GenerationSoftware,Kicad,Pcbnew,5.1.10-88a1d61d58~90~ubuntu21.04.1
; #@! TF.FileFunction,Plated,1,2,PTH
FMAT,2
METRIC
T1C0.400
T2C0.600
T3C0.700
T4C0.800
T5C1.000
T6C1.100
T7C1.500
T8C2.200
%
G90
G05
T1
X107.812Y-47.614
X107.85Y-66.651
X107.85Y-85.701
X107.85Y-104.751
X108.085Y-18.95
X116.105Y-41.581
X116.992Y-26.754
X117.146Y-37.871
X117.4Y-123.623
X119.159Y-30.498
X121.154Y-27.716
X124.423Y-22.378
X124.428Y-23.703
X124.568Y-16.326
X125.273Y-22.378
X125.278Y-23.703
X125.655Y-66.727
X125.655Y-104.827
X125.656Y-85.777
X126.101Y-47.804
X126.123Y-22.378
X126.128Y-23.703
X126.973Y-22.378
X126.978Y-23.703
X127.27Y-24.872
X127.613Y-36.921
X127.823Y-22.378
X127.828Y-23.703
X128.35Y-25.492
X128.673Y-22.378
X128.678Y-23.703
X129.523Y-22.378
X129.528Y-23.703
X130.378Y-22.378
X130.378Y-23.703
X134.665Y-36.868
X135.26Y-25.512
X136.007Y-22.749
X138.202Y-16.693
X145.758Y-25.425
X145.975Y-47.55
X145.975Y-66.6
X145.975Y-85.65
X145.975Y-104.7
X145.975Y-123.75
X146.896Y-22.047
X148.138Y-16.693
X148.138Y-24.795
X153.265Y-26.107
X153.86Y-36.098
X154.157Y-40.735
X154.276Y-31.604
X156.21Y-37.036
X156.657Y-23.381
X156.917Y-31.604
X159.484Y-23.381
X159.745Y-31.604
X162.312Y-23.381
X162.61Y-31.604
X162.993Y-49.582
X165.438Y-23.381
X165.549Y-31.604
X167.819Y-88.063
X167.819Y-126.163
X170.011Y-63.728
X170.78Y-16.693
X174.333Y-29.362
X179.389Y-21.593
X179.707Y-43.74
X180.113Y-64.848
X180.159Y-31.549
T2
X119.634Y-18.18
X119.634Y-19.68
T3
X115.714Y-16.61
X115.714Y-21.71
X126.178Y-26.842
X131.258Y-26.842
X133.93Y-24.2
X139.01Y-24.2
X141.704Y-24.147
X141.704Y-26.772
X141.704Y-29.484
X146.784Y-24.147
X146.784Y-26.772
X146.784Y-29.484
X147.876Y-32.156
X147.876Y-37.236
T4
X109.415Y-34.909
X109.415Y-39.909
X112.143Y-32.301
X112.143Y-39.921
X112.164Y-24.392
X114.664Y-24.392
X114.683Y-32.301
X114.683Y-39.921
X114.736Y-28.277
X117.219Y-24.41
X117.223Y-32.301
X117.223Y-39.921
X119.616Y-28.277
X119.719Y-24.41
X119.763Y-32.301
X119.763Y-39.921
X122.303Y-32.301
X122.303Y-39.921
X124.843Y-32.301
X124.843Y-39.921
X126.287Y-29.572
X127.383Y-32.301
X127.383Y-39.921
X129.923Y-32.301
X129.923Y-39.921
X131.287Y-29.572
X132.463Y-32.301
X132.463Y-39.921
X133.975Y-26.842
X133.975Y-29.537
X135.003Y-32.301
X135.003Y-39.921
X137.543Y-32.301
X137.543Y-39.921
X139.055Y-26.842
X139.055Y-29.537
X140.083Y-32.301
X140.083Y-39.921
X142.623Y-32.301
X142.623Y-39.921
X145.163Y-32.301
X145.163Y-39.921
X154.716Y-19.727
X154.716Y-24.807
X154.716Y-33.409
X154.716Y-38.489
X157.571Y-19.727
X157.571Y-24.807
X157.571Y-33.409
X157.571Y-38.489
X160.425Y-19.727
X160.425Y-24.807
X160.425Y-33.409
X160.425Y-38.489
X163.279Y-19.727
X163.279Y-24.807
X163.279Y-33.409
X163.279Y-38.489
X166.134Y-19.727
X166.134Y-24.807
X166.134Y-33.409
X166.134Y-38.489
X168.988Y-19.727
X168.988Y-24.807
X168.988Y-33.409
X168.988Y-38.489
X171.842Y-19.727
X171.842Y-24.807
X171.842Y-33.409
X171.842Y-38.489
X174.697Y-19.727
X174.697Y-24.807
X174.697Y-33.409
X174.697Y-38.489
X177.551Y-19.727
X177.551Y-24.807
T5
X112.701Y-45.217
X112.701Y-59.717
X115.201Y-59.717
X117.701Y-45.217
X117.701Y-59.717
X177.28Y-33.383
X177.28Y-35.923
X177.28Y-38.463
X179.82Y-33.383
X179.82Y-35.923
X179.82Y-38.463
T6
X134.962Y-16.693
X134.962Y-21.193
X141.462Y-16.693
X141.462Y-21.193
X144.971Y-16.693
X144.971Y-21.193
X151.471Y-16.693
X151.471Y-21.193
T8
X108.503Y-28.476
X115.753Y-99.567
X143.834Y-61.784
X143.834Y-118.687
X171.915Y-99.842
X179.001Y-28.476
T2
X123.078Y-19.743G85X123.078Y-18.943
G05
X123.078Y-23.473G85X123.078Y-21.973
G05
X131.728Y-19.743G85X131.728Y-18.943
G05
X131.728Y-23.473G85X131.728Y-21.973
G05
T7
X109.601Y-52.867G85X109.601Y-51.567
G05
X120.801Y-52.867G85X120.801Y-51.567
G05
T0
M30
