G04 #@! TF.GenerationSoftware,KiCad,Pcbnew,5.1.10-88a1d61d58~90~ubuntu21.04.1*
G04 #@! TF.CreationDate,2021-08-17T10:31:51+02:00*
G04 #@! TF.ProjectId,discipad-pro,64697363-6970-4616-942d-70726f2e6b69,rev?*
G04 #@! TF.SameCoordinates,Original*
G04 #@! TF.FileFunction,Legend,Bot*
G04 #@! TF.FilePolarity,Positive*
%FSLAX46Y46*%
G04 Gerber Fmt 4.6, Leading zero omitted, Abs format (unit mm)*
G04 Created by KiCad (PCBNEW 5.1.10-88a1d61d58~90~ubuntu21.04.1) date 2021-08-17 10:31:51*
%MOMM*%
%LPD*%
G01*
G04 APERTURE LIST*
%ADD10C,0.150000*%
%ADD11C,0.304800*%
%ADD12C,2.102000*%
%ADD13O,1.802000X1.802000*%
%ADD14C,3.150000*%
%ADD15C,4.089800*%
%ADD16C,4.082180*%
%ADD17C,3.052000*%
%ADD18C,1.802000*%
%ADD19O,1.702000X1.702000*%
%ADD20C,1.502000*%
%ADD21C,4.502000*%
%ADD22C,1.702000*%
%ADD23C,1.302000*%
%ADD24O,1.502000X1.502000*%
%ADD25O,1.002000X1.802000*%
%ADD26O,1.002000X2.502000*%
%ADD27O,0.752000X1.102000*%
%ADD28C,1.602000*%
G04 APERTURE END LIST*
D10*
X171601000Y-125007000D02*
X171601000Y-121412000D01*
X167386000Y-125007000D02*
X171601000Y-125007000D01*
X165716000Y-114007000D02*
X169926000Y-114007000D01*
X165711000Y-123332000D02*
X165711000Y-114007000D01*
X169926000Y-119737000D02*
X169926000Y-114007000D01*
X171601000Y-121412000D02*
G75*
G02*
X169926000Y-119737000I0J1675000D01*
G01*
X167386000Y-125007000D02*
G75*
G02*
X165711000Y-123332000I0J1675000D01*
G01*
X118631000Y-127457000D02*
X122226000Y-127457000D01*
X118631000Y-123242000D02*
X118631000Y-127457000D01*
X129631000Y-121572000D02*
X129631000Y-125782000D01*
X120306000Y-121567000D02*
X129631000Y-121567000D01*
X123901000Y-125782000D02*
X129631000Y-125782000D01*
X122226000Y-127457000D02*
G75*
G02*
X123901000Y-125782000I1675000J0D01*
G01*
X118631000Y-123242000D02*
G75*
G02*
X120306000Y-121567000I1675000J0D01*
G01*
X171601000Y-86907000D02*
X171601000Y-83312000D01*
X167386000Y-86907000D02*
X171601000Y-86907000D01*
X165716000Y-75907000D02*
X169926000Y-75907000D01*
X165711000Y-85232000D02*
X165711000Y-75907000D01*
X169926000Y-81637000D02*
X169926000Y-75907000D01*
X171601000Y-83312000D02*
G75*
G02*
X169926000Y-81637000I0J1675000D01*
G01*
X167386000Y-86907000D02*
G75*
G02*
X165711000Y-85232000I0J1675000D01*
G01*
X147154000Y-127532000D02*
X150749000Y-127532000D01*
X147154000Y-123317000D02*
X147154000Y-127532000D01*
X158154000Y-121647000D02*
X158154000Y-125857000D01*
X148829000Y-121642000D02*
X158154000Y-121642000D01*
X152424000Y-125857000D02*
X158154000Y-125857000D01*
X150749000Y-127532000D02*
G75*
G02*
X152424000Y-125857000I1675000J0D01*
G01*
X147154000Y-123317000D02*
G75*
G02*
X148829000Y-121642000I1675000J0D01*
G01*
X147154000Y-108482000D02*
X150749000Y-108482000D01*
X147154000Y-104267000D02*
X147154000Y-108482000D01*
X158154000Y-102597000D02*
X158154000Y-106807000D01*
X148829000Y-102592000D02*
X158154000Y-102592000D01*
X152424000Y-106807000D02*
X158154000Y-106807000D01*
X150749000Y-108482000D02*
G75*
G02*
X152424000Y-106807000I1675000J0D01*
G01*
X147154000Y-104267000D02*
G75*
G02*
X148829000Y-102592000I1675000J0D01*
G01*
X128104000Y-108482000D02*
X131699000Y-108482000D01*
X128104000Y-104267000D02*
X128104000Y-108482000D01*
X139104000Y-102597000D02*
X139104000Y-106807000D01*
X129779000Y-102592000D02*
X139104000Y-102592000D01*
X133374000Y-106807000D02*
X139104000Y-106807000D01*
X131699000Y-108482000D02*
G75*
G02*
X133374000Y-106807000I1675000J0D01*
G01*
X128104000Y-104267000D02*
G75*
G02*
X129779000Y-102592000I1675000J0D01*
G01*
X109054000Y-108482000D02*
X112649000Y-108482000D01*
X109054000Y-104267000D02*
X109054000Y-108482000D01*
X120054000Y-102597000D02*
X120054000Y-106807000D01*
X110729000Y-102592000D02*
X120054000Y-102592000D01*
X114324000Y-106807000D02*
X120054000Y-106807000D01*
X112649000Y-108482000D02*
G75*
G02*
X114324000Y-106807000I1675000J0D01*
G01*
X109054000Y-104267000D02*
G75*
G02*
X110729000Y-102592000I1675000J0D01*
G01*
X147154000Y-89432000D02*
X150749000Y-89432000D01*
X147154000Y-85217000D02*
X147154000Y-89432000D01*
X158154000Y-83547000D02*
X158154000Y-87757000D01*
X148829000Y-83542000D02*
X158154000Y-83542000D01*
X152424000Y-87757000D02*
X158154000Y-87757000D01*
X150749000Y-89432000D02*
G75*
G02*
X152424000Y-87757000I1675000J0D01*
G01*
X147154000Y-85217000D02*
G75*
G02*
X148829000Y-83542000I1675000J0D01*
G01*
X128104000Y-89432000D02*
X131699000Y-89432000D01*
X128104000Y-85217000D02*
X128104000Y-89432000D01*
X139104000Y-83547000D02*
X139104000Y-87757000D01*
X129779000Y-83542000D02*
X139104000Y-83542000D01*
X133374000Y-87757000D02*
X139104000Y-87757000D01*
X131699000Y-89432000D02*
G75*
G02*
X133374000Y-87757000I1675000J0D01*
G01*
X128104000Y-85217000D02*
G75*
G02*
X129779000Y-83542000I1675000J0D01*
G01*
X109054000Y-89432000D02*
X112649000Y-89432000D01*
X109054000Y-85217000D02*
X109054000Y-89432000D01*
X120054000Y-83547000D02*
X120054000Y-87757000D01*
X110729000Y-83542000D02*
X120054000Y-83542000D01*
X114324000Y-87757000D02*
X120054000Y-87757000D01*
X112649000Y-89432000D02*
G75*
G02*
X114324000Y-87757000I1675000J0D01*
G01*
X109054000Y-85217000D02*
G75*
G02*
X110729000Y-83542000I1675000J0D01*
G01*
X147154000Y-70382000D02*
X150749000Y-70382000D01*
X147154000Y-66167000D02*
X147154000Y-70382000D01*
X158154000Y-64497000D02*
X158154000Y-68707000D01*
X148829000Y-64492000D02*
X158154000Y-64492000D01*
X152424000Y-68707000D02*
X158154000Y-68707000D01*
X150749000Y-70382000D02*
G75*
G02*
X152424000Y-68707000I1675000J0D01*
G01*
X147154000Y-66167000D02*
G75*
G02*
X148829000Y-64492000I1675000J0D01*
G01*
X128104000Y-70382000D02*
X131699000Y-70382000D01*
X128104000Y-66167000D02*
X128104000Y-70382000D01*
X139104000Y-64497000D02*
X139104000Y-68707000D01*
X129779000Y-64492000D02*
X139104000Y-64492000D01*
X133374000Y-68707000D02*
X139104000Y-68707000D01*
X131699000Y-70382000D02*
G75*
G02*
X133374000Y-68707000I1675000J0D01*
G01*
X128104000Y-66167000D02*
G75*
G02*
X129779000Y-64492000I1675000J0D01*
G01*
X109054000Y-70382000D02*
X112649000Y-70382000D01*
X109054000Y-66167000D02*
X109054000Y-70382000D01*
X120054000Y-64497000D02*
X120054000Y-68707000D01*
X110729000Y-64492000D02*
X120054000Y-64492000D01*
X114324000Y-68707000D02*
X120054000Y-68707000D01*
X112649000Y-70382000D02*
G75*
G02*
X114324000Y-68707000I1675000J0D01*
G01*
X109054000Y-66167000D02*
G75*
G02*
X110729000Y-64492000I1675000J0D01*
G01*
X166204000Y-51332000D02*
X169799000Y-51332000D01*
X166204000Y-47117000D02*
X166204000Y-51332000D01*
X177204000Y-45447000D02*
X177204000Y-49657000D01*
X167879000Y-45442000D02*
X177204000Y-45442000D01*
X171474000Y-49657000D02*
X177204000Y-49657000D01*
X169799000Y-51332000D02*
G75*
G02*
X171474000Y-49657000I1675000J0D01*
G01*
X166204000Y-47117000D02*
G75*
G02*
X167879000Y-45442000I1675000J0D01*
G01*
X147154000Y-51332000D02*
X150749000Y-51332000D01*
X147154000Y-47117000D02*
X147154000Y-51332000D01*
X158154000Y-45447000D02*
X158154000Y-49657000D01*
X148829000Y-45442000D02*
X158154000Y-45442000D01*
X152424000Y-49657000D02*
X158154000Y-49657000D01*
X150749000Y-51332000D02*
G75*
G02*
X152424000Y-49657000I1675000J0D01*
G01*
X147154000Y-47117000D02*
G75*
G02*
X148829000Y-45442000I1675000J0D01*
G01*
X128104000Y-51332000D02*
X131699000Y-51332000D01*
X128104000Y-47117000D02*
X128104000Y-51332000D01*
X139104000Y-45447000D02*
X139104000Y-49657000D01*
X129779000Y-45442000D02*
X139104000Y-45442000D01*
X133374000Y-49657000D02*
X139104000Y-49657000D01*
X131699000Y-51332000D02*
G75*
G02*
X133374000Y-49657000I1675000J0D01*
G01*
X128104000Y-47117000D02*
G75*
G02*
X129779000Y-45442000I1675000J0D01*
G01*
X109054000Y-51332000D02*
X112649000Y-51332000D01*
X109054000Y-47117000D02*
X109054000Y-51332000D01*
X120054000Y-45447000D02*
X120054000Y-49657000D01*
X110729000Y-45442000D02*
X120054000Y-45442000D01*
X114324000Y-49657000D02*
X120054000Y-49657000D01*
X112649000Y-51332000D02*
G75*
G02*
X114324000Y-49657000I1675000J0D01*
G01*
X109054000Y-47117000D02*
G75*
G02*
X110729000Y-45442000I1675000J0D01*
G01*
D11*
X136271000Y-80863857D02*
X136053285Y-80936428D01*
X135690428Y-80936428D01*
X135545285Y-80863857D01*
X135472714Y-80791285D01*
X135400142Y-80646142D01*
X135400142Y-80501000D01*
X135472714Y-80355857D01*
X135545285Y-80283285D01*
X135690428Y-80210714D01*
X135980714Y-80138142D01*
X136125857Y-80065571D01*
X136198428Y-79993000D01*
X136271000Y-79847857D01*
X136271000Y-79702714D01*
X136198428Y-79557571D01*
X136125857Y-79485000D01*
X135980714Y-79412428D01*
X135617857Y-79412428D01*
X135400142Y-79485000D01*
X134892142Y-79412428D02*
X134529285Y-80936428D01*
X134239000Y-79847857D01*
X133948714Y-80936428D01*
X133585857Y-79412428D01*
X132279571Y-79412428D02*
X133005285Y-79412428D01*
X133077857Y-80138142D01*
X133005285Y-80065571D01*
X132860142Y-79993000D01*
X132497285Y-79993000D01*
X132352142Y-80065571D01*
X132279571Y-80138142D01*
X132207000Y-80283285D01*
X132207000Y-80646142D01*
X132279571Y-80791285D01*
X132352142Y-80863857D01*
X132497285Y-80936428D01*
X132860142Y-80936428D01*
X133005285Y-80863857D01*
X133077857Y-80791285D01*
%LPC*%
D12*
X117701493Y-45217093D03*
X112701493Y-45217093D03*
G36*
G01*
X120801493Y-53968093D02*
X120801493Y-53968093D01*
G75*
G02*
X119750493Y-52917093I0J1051000D01*
G01*
X119750493Y-51517093D01*
G75*
G02*
X120801493Y-50466093I1051000J0D01*
G01*
X120801493Y-50466093D01*
G75*
G02*
X121852493Y-51517093I0J-1051000D01*
G01*
X121852493Y-52917093D01*
G75*
G02*
X120801493Y-53968093I-1051000J0D01*
G01*
G37*
G36*
G01*
X110601493Y-53868093D02*
X108601493Y-53868093D01*
G75*
G02*
X108550493Y-53817093I0J51000D01*
G01*
X108550493Y-50617093D01*
G75*
G02*
X108601493Y-50566093I51000J0D01*
G01*
X110601493Y-50566093D01*
G75*
G02*
X110652493Y-50617093I0J-51000D01*
G01*
X110652493Y-53817093D01*
G75*
G02*
X110601493Y-53868093I-51000J0D01*
G01*
G37*
X117701493Y-59717093D03*
X115201493Y-59717093D03*
G36*
G01*
X113701493Y-60768093D02*
X111701493Y-60768093D01*
G75*
G02*
X111650493Y-60717093I0J51000D01*
G01*
X111650493Y-58717093D01*
G75*
G02*
X111701493Y-58666093I51000J0D01*
G01*
X113701493Y-58666093D01*
G75*
G02*
X113752493Y-58717093I0J-51000D01*
G01*
X113752493Y-60717093D01*
G75*
G02*
X113701493Y-60768093I-51000J0D01*
G01*
G37*
D13*
X177279591Y-33383393D03*
X179819591Y-33383393D03*
X177279591Y-35923393D03*
X179819591Y-35923393D03*
X177279591Y-38463393D03*
G36*
G01*
X180720591Y-37613393D02*
X180720591Y-39313393D01*
G75*
G02*
X180669591Y-39364393I-51000J0D01*
G01*
X178969591Y-39364393D01*
G75*
G02*
X178918591Y-39313393I0J51000D01*
G01*
X178918591Y-37613393D01*
G75*
G02*
X178969591Y-37562393I51000J0D01*
G01*
X180669591Y-37562393D01*
G75*
G02*
X180720591Y-37613393I0J-51000D01*
G01*
G37*
D14*
X179451000Y-106934000D03*
D15*
X164211000Y-106934000D03*
X164211000Y-130810000D03*
D14*
X179451000Y-130810000D03*
G36*
G01*
X168676000Y-124906000D02*
X171176000Y-124906000D01*
G75*
G02*
X171227000Y-124957000I0J-51000D01*
G01*
X171227000Y-127507000D01*
G75*
G02*
X171176000Y-127558000I-51000J0D01*
G01*
X168676000Y-127558000D01*
G75*
G02*
X168625000Y-127507000I0J51000D01*
G01*
X168625000Y-124957000D01*
G75*
G02*
X168676000Y-124906000I51000J0D01*
G01*
G37*
D16*
X172466000Y-118872000D03*
D17*
X167386000Y-116332000D03*
X169926000Y-122682000D03*
G36*
G01*
X166136000Y-111456000D02*
X168636000Y-111456000D01*
G75*
G02*
X168687000Y-111507000I0J-51000D01*
G01*
X168687000Y-114057000D01*
G75*
G02*
X168636000Y-114108000I-51000J0D01*
G01*
X166136000Y-114108000D01*
G75*
G02*
X166085000Y-114057000I0J51000D01*
G01*
X166085000Y-111507000D01*
G75*
G02*
X166136000Y-111456000I51000J0D01*
G01*
G37*
D18*
X172466000Y-113792000D03*
X172466000Y-123952000D03*
D14*
X136704000Y-135307000D03*
D15*
X136704000Y-120067000D03*
X112828000Y-120067000D03*
D14*
X112828000Y-135307000D03*
G36*
G01*
X118732000Y-124532000D02*
X118732000Y-127032000D01*
G75*
G02*
X118681000Y-127083000I-51000J0D01*
G01*
X116131000Y-127083000D01*
G75*
G02*
X116080000Y-127032000I0J51000D01*
G01*
X116080000Y-124532000D01*
G75*
G02*
X116131000Y-124481000I51000J0D01*
G01*
X118681000Y-124481000D01*
G75*
G02*
X118732000Y-124532000I0J-51000D01*
G01*
G37*
D16*
X124766000Y-128322000D03*
D17*
X127306000Y-123242000D03*
X120956000Y-125782000D03*
G36*
G01*
X132182000Y-121992000D02*
X132182000Y-124492000D01*
G75*
G02*
X132131000Y-124543000I-51000J0D01*
G01*
X129581000Y-124543000D01*
G75*
G02*
X129530000Y-124492000I0J51000D01*
G01*
X129530000Y-121992000D01*
G75*
G02*
X129581000Y-121941000I51000J0D01*
G01*
X132131000Y-121941000D01*
G75*
G02*
X132182000Y-121992000I0J-51000D01*
G01*
G37*
D18*
X129846000Y-128322000D03*
X119686000Y-128322000D03*
D14*
X179451000Y-68834000D03*
D15*
X164211000Y-68834000D03*
X164211000Y-92710000D03*
D14*
X179451000Y-92710000D03*
G36*
G01*
X168676000Y-86806000D02*
X171176000Y-86806000D01*
G75*
G02*
X171227000Y-86857000I0J-51000D01*
G01*
X171227000Y-89407000D01*
G75*
G02*
X171176000Y-89458000I-51000J0D01*
G01*
X168676000Y-89458000D01*
G75*
G02*
X168625000Y-89407000I0J51000D01*
G01*
X168625000Y-86857000D01*
G75*
G02*
X168676000Y-86806000I51000J0D01*
G01*
G37*
D16*
X172466000Y-80772000D03*
D17*
X167386000Y-78232000D03*
X169926000Y-84582000D03*
G36*
G01*
X166136000Y-73356000D02*
X168636000Y-73356000D01*
G75*
G02*
X168687000Y-73407000I0J-51000D01*
G01*
X168687000Y-75957000D01*
G75*
G02*
X168636000Y-76008000I-51000J0D01*
G01*
X166136000Y-76008000D01*
G75*
G02*
X166085000Y-75957000I0J51000D01*
G01*
X166085000Y-73407000D01*
G75*
G02*
X166136000Y-73356000I51000J0D01*
G01*
G37*
D18*
X172466000Y-75692000D03*
X172466000Y-85852000D03*
G36*
G01*
X147255000Y-124607000D02*
X147255000Y-127107000D01*
G75*
G02*
X147204000Y-127158000I-51000J0D01*
G01*
X144654000Y-127158000D01*
G75*
G02*
X144603000Y-127107000I0J51000D01*
G01*
X144603000Y-124607000D01*
G75*
G02*
X144654000Y-124556000I51000J0D01*
G01*
X147204000Y-124556000D01*
G75*
G02*
X147255000Y-124607000I0J-51000D01*
G01*
G37*
D16*
X153289000Y-128397000D03*
D17*
X155829000Y-123317000D03*
X149479000Y-125857000D03*
G36*
G01*
X160705000Y-122067000D02*
X160705000Y-124567000D01*
G75*
G02*
X160654000Y-124618000I-51000J0D01*
G01*
X158104000Y-124618000D01*
G75*
G02*
X158053000Y-124567000I0J51000D01*
G01*
X158053000Y-122067000D01*
G75*
G02*
X158104000Y-122016000I51000J0D01*
G01*
X160654000Y-122016000D01*
G75*
G02*
X160705000Y-122067000I0J-51000D01*
G01*
G37*
D18*
X158369000Y-128397000D03*
X148209000Y-128397000D03*
G36*
G01*
X147255000Y-105557000D02*
X147255000Y-108057000D01*
G75*
G02*
X147204000Y-108108000I-51000J0D01*
G01*
X144654000Y-108108000D01*
G75*
G02*
X144603000Y-108057000I0J51000D01*
G01*
X144603000Y-105557000D01*
G75*
G02*
X144654000Y-105506000I51000J0D01*
G01*
X147204000Y-105506000D01*
G75*
G02*
X147255000Y-105557000I0J-51000D01*
G01*
G37*
D16*
X153289000Y-109347000D03*
D17*
X155829000Y-104267000D03*
X149479000Y-106807000D03*
G36*
G01*
X160705000Y-103017000D02*
X160705000Y-105517000D01*
G75*
G02*
X160654000Y-105568000I-51000J0D01*
G01*
X158104000Y-105568000D01*
G75*
G02*
X158053000Y-105517000I0J51000D01*
G01*
X158053000Y-103017000D01*
G75*
G02*
X158104000Y-102966000I51000J0D01*
G01*
X160654000Y-102966000D01*
G75*
G02*
X160705000Y-103017000I0J-51000D01*
G01*
G37*
D18*
X158369000Y-109347000D03*
X148209000Y-109347000D03*
G36*
G01*
X128205000Y-105557000D02*
X128205000Y-108057000D01*
G75*
G02*
X128154000Y-108108000I-51000J0D01*
G01*
X125604000Y-108108000D01*
G75*
G02*
X125553000Y-108057000I0J51000D01*
G01*
X125553000Y-105557000D01*
G75*
G02*
X125604000Y-105506000I51000J0D01*
G01*
X128154000Y-105506000D01*
G75*
G02*
X128205000Y-105557000I0J-51000D01*
G01*
G37*
D16*
X134239000Y-109347000D03*
D17*
X136779000Y-104267000D03*
X130429000Y-106807000D03*
G36*
G01*
X141655000Y-103017000D02*
X141655000Y-105517000D01*
G75*
G02*
X141604000Y-105568000I-51000J0D01*
G01*
X139054000Y-105568000D01*
G75*
G02*
X139003000Y-105517000I0J51000D01*
G01*
X139003000Y-103017000D01*
G75*
G02*
X139054000Y-102966000I51000J0D01*
G01*
X141604000Y-102966000D01*
G75*
G02*
X141655000Y-103017000I0J-51000D01*
G01*
G37*
D18*
X139319000Y-109347000D03*
X129159000Y-109347000D03*
G36*
G01*
X109155000Y-105557000D02*
X109155000Y-108057000D01*
G75*
G02*
X109104000Y-108108000I-51000J0D01*
G01*
X106554000Y-108108000D01*
G75*
G02*
X106503000Y-108057000I0J51000D01*
G01*
X106503000Y-105557000D01*
G75*
G02*
X106554000Y-105506000I51000J0D01*
G01*
X109104000Y-105506000D01*
G75*
G02*
X109155000Y-105557000I0J-51000D01*
G01*
G37*
D16*
X115189000Y-109347000D03*
D17*
X117729000Y-104267000D03*
X111379000Y-106807000D03*
G36*
G01*
X122605000Y-103017000D02*
X122605000Y-105517000D01*
G75*
G02*
X122554000Y-105568000I-51000J0D01*
G01*
X120004000Y-105568000D01*
G75*
G02*
X119953000Y-105517000I0J51000D01*
G01*
X119953000Y-103017000D01*
G75*
G02*
X120004000Y-102966000I51000J0D01*
G01*
X122554000Y-102966000D01*
G75*
G02*
X122605000Y-103017000I0J-51000D01*
G01*
G37*
D18*
X120269000Y-109347000D03*
X110109000Y-109347000D03*
G36*
G01*
X147255000Y-86507000D02*
X147255000Y-89007000D01*
G75*
G02*
X147204000Y-89058000I-51000J0D01*
G01*
X144654000Y-89058000D01*
G75*
G02*
X144603000Y-89007000I0J51000D01*
G01*
X144603000Y-86507000D01*
G75*
G02*
X144654000Y-86456000I51000J0D01*
G01*
X147204000Y-86456000D01*
G75*
G02*
X147255000Y-86507000I0J-51000D01*
G01*
G37*
D16*
X153289000Y-90297000D03*
D17*
X155829000Y-85217000D03*
X149479000Y-87757000D03*
G36*
G01*
X160705000Y-83967000D02*
X160705000Y-86467000D01*
G75*
G02*
X160654000Y-86518000I-51000J0D01*
G01*
X158104000Y-86518000D01*
G75*
G02*
X158053000Y-86467000I0J51000D01*
G01*
X158053000Y-83967000D01*
G75*
G02*
X158104000Y-83916000I51000J0D01*
G01*
X160654000Y-83916000D01*
G75*
G02*
X160705000Y-83967000I0J-51000D01*
G01*
G37*
D18*
X158369000Y-90297000D03*
X148209000Y-90297000D03*
G36*
G01*
X128205000Y-86507000D02*
X128205000Y-89007000D01*
G75*
G02*
X128154000Y-89058000I-51000J0D01*
G01*
X125604000Y-89058000D01*
G75*
G02*
X125553000Y-89007000I0J51000D01*
G01*
X125553000Y-86507000D01*
G75*
G02*
X125604000Y-86456000I51000J0D01*
G01*
X128154000Y-86456000D01*
G75*
G02*
X128205000Y-86507000I0J-51000D01*
G01*
G37*
D16*
X134239000Y-90297000D03*
D17*
X136779000Y-85217000D03*
X130429000Y-87757000D03*
G36*
G01*
X141655000Y-83967000D02*
X141655000Y-86467000D01*
G75*
G02*
X141604000Y-86518000I-51000J0D01*
G01*
X139054000Y-86518000D01*
G75*
G02*
X139003000Y-86467000I0J51000D01*
G01*
X139003000Y-83967000D01*
G75*
G02*
X139054000Y-83916000I51000J0D01*
G01*
X141604000Y-83916000D01*
G75*
G02*
X141655000Y-83967000I0J-51000D01*
G01*
G37*
D18*
X139319000Y-90297000D03*
X129159000Y-90297000D03*
G36*
G01*
X109155000Y-86507000D02*
X109155000Y-89007000D01*
G75*
G02*
X109104000Y-89058000I-51000J0D01*
G01*
X106554000Y-89058000D01*
G75*
G02*
X106503000Y-89007000I0J51000D01*
G01*
X106503000Y-86507000D01*
G75*
G02*
X106554000Y-86456000I51000J0D01*
G01*
X109104000Y-86456000D01*
G75*
G02*
X109155000Y-86507000I0J-51000D01*
G01*
G37*
D16*
X115189000Y-90297000D03*
D17*
X117729000Y-85217000D03*
X111379000Y-87757000D03*
G36*
G01*
X122605000Y-83967000D02*
X122605000Y-86467000D01*
G75*
G02*
X122554000Y-86518000I-51000J0D01*
G01*
X120004000Y-86518000D01*
G75*
G02*
X119953000Y-86467000I0J51000D01*
G01*
X119953000Y-83967000D01*
G75*
G02*
X120004000Y-83916000I51000J0D01*
G01*
X122554000Y-83916000D01*
G75*
G02*
X122605000Y-83967000I0J-51000D01*
G01*
G37*
D18*
X120269000Y-90297000D03*
X110109000Y-90297000D03*
G36*
G01*
X147255000Y-67457000D02*
X147255000Y-69957000D01*
G75*
G02*
X147204000Y-70008000I-51000J0D01*
G01*
X144654000Y-70008000D01*
G75*
G02*
X144603000Y-69957000I0J51000D01*
G01*
X144603000Y-67457000D01*
G75*
G02*
X144654000Y-67406000I51000J0D01*
G01*
X147204000Y-67406000D01*
G75*
G02*
X147255000Y-67457000I0J-51000D01*
G01*
G37*
D16*
X153289000Y-71247000D03*
D17*
X155829000Y-66167000D03*
X149479000Y-68707000D03*
G36*
G01*
X160705000Y-64917000D02*
X160705000Y-67417000D01*
G75*
G02*
X160654000Y-67468000I-51000J0D01*
G01*
X158104000Y-67468000D01*
G75*
G02*
X158053000Y-67417000I0J51000D01*
G01*
X158053000Y-64917000D01*
G75*
G02*
X158104000Y-64866000I51000J0D01*
G01*
X160654000Y-64866000D01*
G75*
G02*
X160705000Y-64917000I0J-51000D01*
G01*
G37*
D18*
X158369000Y-71247000D03*
X148209000Y-71247000D03*
G36*
G01*
X128205000Y-67457000D02*
X128205000Y-69957000D01*
G75*
G02*
X128154000Y-70008000I-51000J0D01*
G01*
X125604000Y-70008000D01*
G75*
G02*
X125553000Y-69957000I0J51000D01*
G01*
X125553000Y-67457000D01*
G75*
G02*
X125604000Y-67406000I51000J0D01*
G01*
X128154000Y-67406000D01*
G75*
G02*
X128205000Y-67457000I0J-51000D01*
G01*
G37*
D16*
X134239000Y-71247000D03*
D17*
X136779000Y-66167000D03*
X130429000Y-68707000D03*
G36*
G01*
X141655000Y-64917000D02*
X141655000Y-67417000D01*
G75*
G02*
X141604000Y-67468000I-51000J0D01*
G01*
X139054000Y-67468000D01*
G75*
G02*
X139003000Y-67417000I0J51000D01*
G01*
X139003000Y-64917000D01*
G75*
G02*
X139054000Y-64866000I51000J0D01*
G01*
X141604000Y-64866000D01*
G75*
G02*
X141655000Y-64917000I0J-51000D01*
G01*
G37*
D18*
X139319000Y-71247000D03*
X129159000Y-71247000D03*
G36*
G01*
X109155000Y-67457000D02*
X109155000Y-69957000D01*
G75*
G02*
X109104000Y-70008000I-51000J0D01*
G01*
X106554000Y-70008000D01*
G75*
G02*
X106503000Y-69957000I0J51000D01*
G01*
X106503000Y-67457000D01*
G75*
G02*
X106554000Y-67406000I51000J0D01*
G01*
X109104000Y-67406000D01*
G75*
G02*
X109155000Y-67457000I0J-51000D01*
G01*
G37*
D16*
X115189000Y-71247000D03*
D17*
X117729000Y-66167000D03*
X111379000Y-68707000D03*
G36*
G01*
X122605000Y-64917000D02*
X122605000Y-67417000D01*
G75*
G02*
X122554000Y-67468000I-51000J0D01*
G01*
X120004000Y-67468000D01*
G75*
G02*
X119953000Y-67417000I0J51000D01*
G01*
X119953000Y-64917000D01*
G75*
G02*
X120004000Y-64866000I51000J0D01*
G01*
X122554000Y-64866000D01*
G75*
G02*
X122605000Y-64917000I0J-51000D01*
G01*
G37*
D18*
X120269000Y-71247000D03*
X110109000Y-71247000D03*
G36*
G01*
X166305000Y-48407000D02*
X166305000Y-50907000D01*
G75*
G02*
X166254000Y-50958000I-51000J0D01*
G01*
X163704000Y-50958000D01*
G75*
G02*
X163653000Y-50907000I0J51000D01*
G01*
X163653000Y-48407000D01*
G75*
G02*
X163704000Y-48356000I51000J0D01*
G01*
X166254000Y-48356000D01*
G75*
G02*
X166305000Y-48407000I0J-51000D01*
G01*
G37*
D16*
X172339000Y-52197000D03*
D17*
X174879000Y-47117000D03*
X168529000Y-49657000D03*
G36*
G01*
X179755000Y-45867000D02*
X179755000Y-48367000D01*
G75*
G02*
X179704000Y-48418000I-51000J0D01*
G01*
X177154000Y-48418000D01*
G75*
G02*
X177103000Y-48367000I0J51000D01*
G01*
X177103000Y-45867000D01*
G75*
G02*
X177154000Y-45816000I51000J0D01*
G01*
X179704000Y-45816000D01*
G75*
G02*
X179755000Y-45867000I0J-51000D01*
G01*
G37*
D18*
X177419000Y-52197000D03*
X167259000Y-52197000D03*
G36*
G01*
X147255000Y-48407000D02*
X147255000Y-50907000D01*
G75*
G02*
X147204000Y-50958000I-51000J0D01*
G01*
X144654000Y-50958000D01*
G75*
G02*
X144603000Y-50907000I0J51000D01*
G01*
X144603000Y-48407000D01*
G75*
G02*
X144654000Y-48356000I51000J0D01*
G01*
X147204000Y-48356000D01*
G75*
G02*
X147255000Y-48407000I0J-51000D01*
G01*
G37*
D16*
X153289000Y-52197000D03*
D17*
X155829000Y-47117000D03*
X149479000Y-49657000D03*
G36*
G01*
X160705000Y-45867000D02*
X160705000Y-48367000D01*
G75*
G02*
X160654000Y-48418000I-51000J0D01*
G01*
X158104000Y-48418000D01*
G75*
G02*
X158053000Y-48367000I0J51000D01*
G01*
X158053000Y-45867000D01*
G75*
G02*
X158104000Y-45816000I51000J0D01*
G01*
X160654000Y-45816000D01*
G75*
G02*
X160705000Y-45867000I0J-51000D01*
G01*
G37*
D18*
X158369000Y-52197000D03*
X148209000Y-52197000D03*
G36*
G01*
X128205000Y-48407000D02*
X128205000Y-50907000D01*
G75*
G02*
X128154000Y-50958000I-51000J0D01*
G01*
X125604000Y-50958000D01*
G75*
G02*
X125553000Y-50907000I0J51000D01*
G01*
X125553000Y-48407000D01*
G75*
G02*
X125604000Y-48356000I51000J0D01*
G01*
X128154000Y-48356000D01*
G75*
G02*
X128205000Y-48407000I0J-51000D01*
G01*
G37*
D16*
X134239000Y-52197000D03*
D17*
X136779000Y-47117000D03*
X130429000Y-49657000D03*
G36*
G01*
X141655000Y-45867000D02*
X141655000Y-48367000D01*
G75*
G02*
X141604000Y-48418000I-51000J0D01*
G01*
X139054000Y-48418000D01*
G75*
G02*
X139003000Y-48367000I0J51000D01*
G01*
X139003000Y-45867000D01*
G75*
G02*
X139054000Y-45816000I51000J0D01*
G01*
X141604000Y-45816000D01*
G75*
G02*
X141655000Y-45867000I0J-51000D01*
G01*
G37*
D18*
X139319000Y-52197000D03*
X129159000Y-52197000D03*
G36*
G01*
X109155000Y-48407000D02*
X109155000Y-50907000D01*
G75*
G02*
X109104000Y-50958000I-51000J0D01*
G01*
X106554000Y-50958000D01*
G75*
G02*
X106503000Y-50907000I0J51000D01*
G01*
X106503000Y-48407000D01*
G75*
G02*
X106554000Y-48356000I51000J0D01*
G01*
X109104000Y-48356000D01*
G75*
G02*
X109155000Y-48407000I0J-51000D01*
G01*
G37*
D16*
X115189000Y-52197000D03*
D17*
X117729000Y-47117000D03*
X111379000Y-49657000D03*
G36*
G01*
X122605000Y-45867000D02*
X122605000Y-48367000D01*
G75*
G02*
X122554000Y-48418000I-51000J0D01*
G01*
X120004000Y-48418000D01*
G75*
G02*
X119953000Y-48367000I0J51000D01*
G01*
X119953000Y-45867000D01*
G75*
G02*
X120004000Y-45816000I51000J0D01*
G01*
X122554000Y-45816000D01*
G75*
G02*
X122605000Y-45867000I0J-51000D01*
G01*
G37*
D18*
X120269000Y-52197000D03*
X110109000Y-52197000D03*
D12*
X151470929Y-16693091D03*
X151470929Y-21193091D03*
X144970929Y-16693091D03*
X144970929Y-21193091D03*
D19*
X177550923Y-24807330D03*
G36*
G01*
X176750923Y-18876330D02*
X178350923Y-18876330D01*
G75*
G02*
X178401923Y-18927330I0J-51000D01*
G01*
X178401923Y-20527330D01*
G75*
G02*
X178350923Y-20578330I-51000J0D01*
G01*
X176750923Y-20578330D01*
G75*
G02*
X176699923Y-20527330I0J51000D01*
G01*
X176699923Y-18927330D01*
G75*
G02*
X176750923Y-18876330I51000J0D01*
G01*
G37*
X174696610Y-38488743D03*
G36*
G01*
X173896610Y-32557743D02*
X175496610Y-32557743D01*
G75*
G02*
X175547610Y-32608743I0J-51000D01*
G01*
X175547610Y-34208743D01*
G75*
G02*
X175496610Y-34259743I-51000J0D01*
G01*
X173896610Y-34259743D01*
G75*
G02*
X173845610Y-34208743I0J51000D01*
G01*
X173845610Y-32608743D01*
G75*
G02*
X173896610Y-32557743I51000J0D01*
G01*
G37*
X171842297Y-38488743D03*
G36*
G01*
X171042297Y-32557743D02*
X172642297Y-32557743D01*
G75*
G02*
X172693297Y-32608743I0J-51000D01*
G01*
X172693297Y-34208743D01*
G75*
G02*
X172642297Y-34259743I-51000J0D01*
G01*
X171042297Y-34259743D01*
G75*
G02*
X170991297Y-34208743I0J51000D01*
G01*
X170991297Y-32608743D01*
G75*
G02*
X171042297Y-32557743I51000J0D01*
G01*
G37*
X168987991Y-38488743D03*
G36*
G01*
X168187991Y-32557743D02*
X169787991Y-32557743D01*
G75*
G02*
X169838991Y-32608743I0J-51000D01*
G01*
X169838991Y-34208743D01*
G75*
G02*
X169787991Y-34259743I-51000J0D01*
G01*
X168187991Y-34259743D01*
G75*
G02*
X168136991Y-34208743I0J51000D01*
G01*
X168136991Y-32608743D01*
G75*
G02*
X168187991Y-32557743I51000J0D01*
G01*
G37*
X166133685Y-38488743D03*
G36*
G01*
X165333685Y-32557743D02*
X166933685Y-32557743D01*
G75*
G02*
X166984685Y-32608743I0J-51000D01*
G01*
X166984685Y-34208743D01*
G75*
G02*
X166933685Y-34259743I-51000J0D01*
G01*
X165333685Y-34259743D01*
G75*
G02*
X165282685Y-34208743I0J51000D01*
G01*
X165282685Y-32608743D01*
G75*
G02*
X165333685Y-32557743I51000J0D01*
G01*
G37*
X163279379Y-38488743D03*
G36*
G01*
X162479379Y-32557743D02*
X164079379Y-32557743D01*
G75*
G02*
X164130379Y-32608743I0J-51000D01*
G01*
X164130379Y-34208743D01*
G75*
G02*
X164079379Y-34259743I-51000J0D01*
G01*
X162479379Y-34259743D01*
G75*
G02*
X162428379Y-34208743I0J51000D01*
G01*
X162428379Y-32608743D01*
G75*
G02*
X162479379Y-32557743I51000J0D01*
G01*
G37*
X160425073Y-38488743D03*
G36*
G01*
X159625073Y-32557743D02*
X161225073Y-32557743D01*
G75*
G02*
X161276073Y-32608743I0J-51000D01*
G01*
X161276073Y-34208743D01*
G75*
G02*
X161225073Y-34259743I-51000J0D01*
G01*
X159625073Y-34259743D01*
G75*
G02*
X159574073Y-34208743I0J51000D01*
G01*
X159574073Y-32608743D01*
G75*
G02*
X159625073Y-32557743I51000J0D01*
G01*
G37*
X157570767Y-38488743D03*
G36*
G01*
X156770767Y-32557743D02*
X158370767Y-32557743D01*
G75*
G02*
X158421767Y-32608743I0J-51000D01*
G01*
X158421767Y-34208743D01*
G75*
G02*
X158370767Y-34259743I-51000J0D01*
G01*
X156770767Y-34259743D01*
G75*
G02*
X156719767Y-34208743I0J51000D01*
G01*
X156719767Y-32608743D01*
G75*
G02*
X156770767Y-32557743I51000J0D01*
G01*
G37*
X154716461Y-38488743D03*
G36*
G01*
X153916461Y-32557743D02*
X155516461Y-32557743D01*
G75*
G02*
X155567461Y-32608743I0J-51000D01*
G01*
X155567461Y-34208743D01*
G75*
G02*
X155516461Y-34259743I-51000J0D01*
G01*
X153916461Y-34259743D01*
G75*
G02*
X153865461Y-34208743I0J51000D01*
G01*
X153865461Y-32608743D01*
G75*
G02*
X153916461Y-32557743I51000J0D01*
G01*
G37*
X174696610Y-24807330D03*
G36*
G01*
X173896610Y-18876330D02*
X175496610Y-18876330D01*
G75*
G02*
X175547610Y-18927330I0J-51000D01*
G01*
X175547610Y-20527330D01*
G75*
G02*
X175496610Y-20578330I-51000J0D01*
G01*
X173896610Y-20578330D01*
G75*
G02*
X173845610Y-20527330I0J51000D01*
G01*
X173845610Y-18927330D01*
G75*
G02*
X173896610Y-18876330I51000J0D01*
G01*
G37*
X171842297Y-24807330D03*
G36*
G01*
X171042297Y-18876330D02*
X172642297Y-18876330D01*
G75*
G02*
X172693297Y-18927330I0J-51000D01*
G01*
X172693297Y-20527330D01*
G75*
G02*
X172642297Y-20578330I-51000J0D01*
G01*
X171042297Y-20578330D01*
G75*
G02*
X170991297Y-20527330I0J51000D01*
G01*
X170991297Y-18927330D01*
G75*
G02*
X171042297Y-18876330I51000J0D01*
G01*
G37*
X168987991Y-24807330D03*
G36*
G01*
X168187991Y-18876330D02*
X169787991Y-18876330D01*
G75*
G02*
X169838991Y-18927330I0J-51000D01*
G01*
X169838991Y-20527330D01*
G75*
G02*
X169787991Y-20578330I-51000J0D01*
G01*
X168187991Y-20578330D01*
G75*
G02*
X168136991Y-20527330I0J51000D01*
G01*
X168136991Y-18927330D01*
G75*
G02*
X168187991Y-18876330I51000J0D01*
G01*
G37*
X166133685Y-24807330D03*
G36*
G01*
X165333685Y-18876330D02*
X166933685Y-18876330D01*
G75*
G02*
X166984685Y-18927330I0J-51000D01*
G01*
X166984685Y-20527330D01*
G75*
G02*
X166933685Y-20578330I-51000J0D01*
G01*
X165333685Y-20578330D01*
G75*
G02*
X165282685Y-20527330I0J51000D01*
G01*
X165282685Y-18927330D01*
G75*
G02*
X165333685Y-18876330I51000J0D01*
G01*
G37*
X163279379Y-24807330D03*
G36*
G01*
X162479379Y-18876330D02*
X164079379Y-18876330D01*
G75*
G02*
X164130379Y-18927330I0J-51000D01*
G01*
X164130379Y-20527330D01*
G75*
G02*
X164079379Y-20578330I-51000J0D01*
G01*
X162479379Y-20578330D01*
G75*
G02*
X162428379Y-20527330I0J51000D01*
G01*
X162428379Y-18927330D01*
G75*
G02*
X162479379Y-18876330I51000J0D01*
G01*
G37*
X160425073Y-24807330D03*
G36*
G01*
X159625073Y-18876330D02*
X161225073Y-18876330D01*
G75*
G02*
X161276073Y-18927330I0J-51000D01*
G01*
X161276073Y-20527330D01*
G75*
G02*
X161225073Y-20578330I-51000J0D01*
G01*
X159625073Y-20578330D01*
G75*
G02*
X159574073Y-20527330I0J51000D01*
G01*
X159574073Y-18927330D01*
G75*
G02*
X159625073Y-18876330I51000J0D01*
G01*
G37*
X157570767Y-24807330D03*
G36*
G01*
X156770767Y-18876330D02*
X158370767Y-18876330D01*
G75*
G02*
X158421767Y-18927330I0J-51000D01*
G01*
X158421767Y-20527330D01*
G75*
G02*
X158370767Y-20578330I-51000J0D01*
G01*
X156770767Y-20578330D01*
G75*
G02*
X156719767Y-20527330I0J51000D01*
G01*
X156719767Y-18927330D01*
G75*
G02*
X156770767Y-18876330I51000J0D01*
G01*
G37*
X154716461Y-24807330D03*
G36*
G01*
X153916461Y-18876330D02*
X155516461Y-18876330D01*
G75*
G02*
X155567461Y-18927330I0J-51000D01*
G01*
X155567461Y-20527330D01*
G75*
G02*
X155516461Y-20578330I-51000J0D01*
G01*
X153916461Y-20578330D01*
G75*
G02*
X153865461Y-20527330I0J51000D01*
G01*
X153865461Y-18927330D01*
G75*
G02*
X153916461Y-18876330I51000J0D01*
G01*
G37*
X139054831Y-29536623D03*
G36*
G01*
X133123831Y-30336623D02*
X133123831Y-28736623D01*
G75*
G02*
X133174831Y-28685623I51000J0D01*
G01*
X134774831Y-28685623D01*
G75*
G02*
X134825831Y-28736623I0J-51000D01*
G01*
X134825831Y-30336623D01*
G75*
G02*
X134774831Y-30387623I-51000J0D01*
G01*
X133174831Y-30387623D01*
G75*
G02*
X133123831Y-30336623I0J51000D01*
G01*
G37*
X139054831Y-26841931D03*
G36*
G01*
X133123831Y-27641931D02*
X133123831Y-26041931D01*
G75*
G02*
X133174831Y-25990931I51000J0D01*
G01*
X134774831Y-25990931D01*
G75*
G02*
X134825831Y-26041931I0J-51000D01*
G01*
X134825831Y-27641931D01*
G75*
G02*
X134774831Y-27692931I-51000J0D01*
G01*
X133174831Y-27692931D01*
G75*
G02*
X133123831Y-27641931I0J51000D01*
G01*
G37*
D20*
X115714273Y-16610309D03*
X115714273Y-21710309D03*
D21*
X143833559Y-118686673D03*
X115752543Y-99566685D03*
X171914575Y-99841686D03*
X143833559Y-61784261D03*
X179001130Y-28475773D03*
X108503031Y-28475773D03*
D22*
X117219101Y-24409709D03*
X119719101Y-24409709D03*
X112164393Y-24392211D03*
X114664393Y-24392211D03*
G36*
G01*
X119033824Y-17529421D02*
X120233826Y-17529421D01*
G75*
G02*
X120284825Y-17580420I0J-50999D01*
G01*
X120284825Y-18780422D01*
G75*
G02*
X120233826Y-18831421I-50999J0D01*
G01*
X119033824Y-18831421D01*
G75*
G02*
X118982825Y-18780422I0J50999D01*
G01*
X118982825Y-17580420D01*
G75*
G02*
X119033824Y-17529421I50999J0D01*
G01*
G37*
D23*
X119633825Y-19680421D03*
D22*
X126287493Y-29571619D03*
X131287493Y-29571619D03*
X109414993Y-34908509D03*
X109414993Y-39908509D03*
D24*
X141703959Y-24147239D03*
D20*
X146783959Y-24147239D03*
X126178077Y-26841931D03*
D24*
X131258077Y-26841931D03*
D20*
X133929691Y-24199733D03*
D24*
X139009691Y-24199733D03*
X146783959Y-29484129D03*
D20*
X141703959Y-29484129D03*
D24*
X141703959Y-26771939D03*
D20*
X146783959Y-26771939D03*
X147875597Y-37235743D03*
D24*
X147875597Y-32155743D03*
D12*
X134962073Y-21193091D03*
X134962073Y-16693091D03*
X141462073Y-21193091D03*
X141462073Y-16693091D03*
G36*
G01*
X144363407Y-31450307D02*
X145963407Y-31450307D01*
G75*
G02*
X146014407Y-31501307I0J-51000D01*
G01*
X146014407Y-33101307D01*
G75*
G02*
X145963407Y-33152307I-51000J0D01*
G01*
X144363407Y-33152307D01*
G75*
G02*
X144312407Y-33101307I0J51000D01*
G01*
X144312407Y-31501307D01*
G75*
G02*
X144363407Y-31450307I51000J0D01*
G01*
G37*
D19*
X112143407Y-39921307D03*
X142623407Y-32301307D03*
X114683407Y-39921307D03*
X140083407Y-32301307D03*
X117223407Y-39921307D03*
X137543407Y-32301307D03*
X119763407Y-39921307D03*
X135003407Y-32301307D03*
X122303407Y-39921307D03*
X132463407Y-32301307D03*
X124843407Y-39921307D03*
X129923407Y-32301307D03*
X127383407Y-39921307D03*
X127383407Y-32301307D03*
X129923407Y-39921307D03*
X124843407Y-32301307D03*
X132463407Y-39921307D03*
X122303407Y-32301307D03*
X135003407Y-39921307D03*
X119763407Y-32301307D03*
X137543407Y-39921307D03*
X117223407Y-32301307D03*
X140083407Y-39921307D03*
X114683407Y-32301307D03*
X142623407Y-39921307D03*
X112143407Y-32301307D03*
X145163407Y-39921307D03*
D25*
X123077937Y-19342987D03*
X131727937Y-19342987D03*
D26*
X123077937Y-22722987D03*
X131727937Y-22722987D03*
D27*
X124422937Y-22377987D03*
X125272937Y-22377987D03*
X126122937Y-22377987D03*
X126972937Y-22377987D03*
X127822937Y-22377987D03*
X128672937Y-22377987D03*
X129522937Y-22377987D03*
X130377937Y-22377987D03*
X124427937Y-23702987D03*
X125277937Y-23702987D03*
X126127937Y-23702987D03*
X126977937Y-23702987D03*
X127827937Y-23702987D03*
X129527937Y-23702987D03*
X130377937Y-23702987D03*
X128677937Y-23702987D03*
D28*
X119616327Y-28276767D03*
X114736327Y-28276767D03*
M02*
