%TF.GenerationSoftware,KiCad,Pcbnew,5.1.7-a382d34a8~88~ubuntu20.04.1*%
%TF.CreationDate,2021-03-29T23:27:39+02:00*%
%TF.ProjectId,discipad-pro,64697363-6970-4616-942d-70726f2e6b69,rev?*%
%TF.SameCoordinates,Original*%
%TF.FileFunction,Legend,Bot*%
%TF.FilePolarity,Positive*%
%FSLAX46Y46*%
G04 Gerber Fmt 4.6, Leading zero omitted, Abs format (unit mm)*
G04 Created by KiCad (PCBNEW 5.1.7-a382d34a8~88~ubuntu20.04.1) date 2021-03-29 23:27:39*
%MOMM*%
%LPD*%
G01*
G04 APERTURE LIST*
%ADD10C,0.150000*%
%ADD11C,0.304800*%
G04 APERTURE END LIST*
D10*
X169926000Y-119737000D02*
X169926000Y-114007000D01*
X165711000Y-123332000D02*
X165711000Y-114007000D01*
X165716000Y-114007000D02*
X169926000Y-114007000D01*
X167386000Y-125007000D02*
X171601000Y-125007000D01*
X171601000Y-125007000D02*
X171601000Y-121412000D01*
X171601000Y-121412000D02*
G75*
G02*
X169926000Y-119737000I0J1675000D01*
G01*
X167386000Y-125007000D02*
G75*
G02*
X165711000Y-123332000I0J1675000D01*
G01*
X123901000Y-125782000D02*
X129631000Y-125782000D01*
X120306000Y-121567000D02*
X129631000Y-121567000D01*
X129631000Y-121572000D02*
X129631000Y-125782000D01*
X118631000Y-123242000D02*
X118631000Y-127457000D01*
X118631000Y-127457000D02*
X122226000Y-127457000D01*
X122226000Y-127457000D02*
G75*
G02*
X123901000Y-125782000I1675000J0D01*
G01*
X118631000Y-123242000D02*
G75*
G02*
X120306000Y-121567000I1675000J0D01*
G01*
X169926000Y-81637000D02*
X169926000Y-75907000D01*
X165711000Y-85232000D02*
X165711000Y-75907000D01*
X165716000Y-75907000D02*
X169926000Y-75907000D01*
X167386000Y-86907000D02*
X171601000Y-86907000D01*
X171601000Y-86907000D02*
X171601000Y-83312000D01*
X171601000Y-83312000D02*
G75*
G02*
X169926000Y-81637000I0J1675000D01*
G01*
X167386000Y-86907000D02*
G75*
G02*
X165711000Y-85232000I0J1675000D01*
G01*
X152424000Y-125857000D02*
X158154000Y-125857000D01*
X148829000Y-121642000D02*
X158154000Y-121642000D01*
X158154000Y-121647000D02*
X158154000Y-125857000D01*
X147154000Y-123317000D02*
X147154000Y-127532000D01*
X147154000Y-127532000D02*
X150749000Y-127532000D01*
X150749000Y-127532000D02*
G75*
G02*
X152424000Y-125857000I1675000J0D01*
G01*
X147154000Y-123317000D02*
G75*
G02*
X148829000Y-121642000I1675000J0D01*
G01*
X152424000Y-106807000D02*
X158154000Y-106807000D01*
X148829000Y-102592000D02*
X158154000Y-102592000D01*
X158154000Y-102597000D02*
X158154000Y-106807000D01*
X147154000Y-104267000D02*
X147154000Y-108482000D01*
X147154000Y-108482000D02*
X150749000Y-108482000D01*
X150749000Y-108482000D02*
G75*
G02*
X152424000Y-106807000I1675000J0D01*
G01*
X147154000Y-104267000D02*
G75*
G02*
X148829000Y-102592000I1675000J0D01*
G01*
X133374000Y-106807000D02*
X139104000Y-106807000D01*
X129779000Y-102592000D02*
X139104000Y-102592000D01*
X139104000Y-102597000D02*
X139104000Y-106807000D01*
X128104000Y-104267000D02*
X128104000Y-108482000D01*
X128104000Y-108482000D02*
X131699000Y-108482000D01*
X131699000Y-108482000D02*
G75*
G02*
X133374000Y-106807000I1675000J0D01*
G01*
X128104000Y-104267000D02*
G75*
G02*
X129779000Y-102592000I1675000J0D01*
G01*
X114324000Y-106807000D02*
X120054000Y-106807000D01*
X110729000Y-102592000D02*
X120054000Y-102592000D01*
X120054000Y-102597000D02*
X120054000Y-106807000D01*
X109054000Y-104267000D02*
X109054000Y-108482000D01*
X109054000Y-108482000D02*
X112649000Y-108482000D01*
X112649000Y-108482000D02*
G75*
G02*
X114324000Y-106807000I1675000J0D01*
G01*
X109054000Y-104267000D02*
G75*
G02*
X110729000Y-102592000I1675000J0D01*
G01*
X152424000Y-87757000D02*
X158154000Y-87757000D01*
X148829000Y-83542000D02*
X158154000Y-83542000D01*
X158154000Y-83547000D02*
X158154000Y-87757000D01*
X147154000Y-85217000D02*
X147154000Y-89432000D01*
X147154000Y-89432000D02*
X150749000Y-89432000D01*
X150749000Y-89432000D02*
G75*
G02*
X152424000Y-87757000I1675000J0D01*
G01*
X147154000Y-85217000D02*
G75*
G02*
X148829000Y-83542000I1675000J0D01*
G01*
X133374000Y-87757000D02*
X139104000Y-87757000D01*
X129779000Y-83542000D02*
X139104000Y-83542000D01*
X139104000Y-83547000D02*
X139104000Y-87757000D01*
X128104000Y-85217000D02*
X128104000Y-89432000D01*
X128104000Y-89432000D02*
X131699000Y-89432000D01*
X131699000Y-89432000D02*
G75*
G02*
X133374000Y-87757000I1675000J0D01*
G01*
X128104000Y-85217000D02*
G75*
G02*
X129779000Y-83542000I1675000J0D01*
G01*
X114324000Y-87757000D02*
X120054000Y-87757000D01*
X110729000Y-83542000D02*
X120054000Y-83542000D01*
X120054000Y-83547000D02*
X120054000Y-87757000D01*
X109054000Y-85217000D02*
X109054000Y-89432000D01*
X109054000Y-89432000D02*
X112649000Y-89432000D01*
X112649000Y-89432000D02*
G75*
G02*
X114324000Y-87757000I1675000J0D01*
G01*
X109054000Y-85217000D02*
G75*
G02*
X110729000Y-83542000I1675000J0D01*
G01*
X152424000Y-68707000D02*
X158154000Y-68707000D01*
X148829000Y-64492000D02*
X158154000Y-64492000D01*
X158154000Y-64497000D02*
X158154000Y-68707000D01*
X147154000Y-66167000D02*
X147154000Y-70382000D01*
X147154000Y-70382000D02*
X150749000Y-70382000D01*
X150749000Y-70382000D02*
G75*
G02*
X152424000Y-68707000I1675000J0D01*
G01*
X147154000Y-66167000D02*
G75*
G02*
X148829000Y-64492000I1675000J0D01*
G01*
X133374000Y-68707000D02*
X139104000Y-68707000D01*
X129779000Y-64492000D02*
X139104000Y-64492000D01*
X139104000Y-64497000D02*
X139104000Y-68707000D01*
X128104000Y-66167000D02*
X128104000Y-70382000D01*
X128104000Y-70382000D02*
X131699000Y-70382000D01*
X131699000Y-70382000D02*
G75*
G02*
X133374000Y-68707000I1675000J0D01*
G01*
X128104000Y-66167000D02*
G75*
G02*
X129779000Y-64492000I1675000J0D01*
G01*
X114324000Y-68707000D02*
X120054000Y-68707000D01*
X110729000Y-64492000D02*
X120054000Y-64492000D01*
X120054000Y-64497000D02*
X120054000Y-68707000D01*
X109054000Y-66167000D02*
X109054000Y-70382000D01*
X109054000Y-70382000D02*
X112649000Y-70382000D01*
X112649000Y-70382000D02*
G75*
G02*
X114324000Y-68707000I1675000J0D01*
G01*
X109054000Y-66167000D02*
G75*
G02*
X110729000Y-64492000I1675000J0D01*
G01*
X171474000Y-49657000D02*
X177204000Y-49657000D01*
X167879000Y-45442000D02*
X177204000Y-45442000D01*
X177204000Y-45447000D02*
X177204000Y-49657000D01*
X166204000Y-47117000D02*
X166204000Y-51332000D01*
X166204000Y-51332000D02*
X169799000Y-51332000D01*
X169799000Y-51332000D02*
G75*
G02*
X171474000Y-49657000I1675000J0D01*
G01*
X166204000Y-47117000D02*
G75*
G02*
X167879000Y-45442000I1675000J0D01*
G01*
X152424000Y-49657000D02*
X158154000Y-49657000D01*
X148829000Y-45442000D02*
X158154000Y-45442000D01*
X158154000Y-45447000D02*
X158154000Y-49657000D01*
X147154000Y-47117000D02*
X147154000Y-51332000D01*
X147154000Y-51332000D02*
X150749000Y-51332000D01*
X150749000Y-51332000D02*
G75*
G02*
X152424000Y-49657000I1675000J0D01*
G01*
X147154000Y-47117000D02*
G75*
G02*
X148829000Y-45442000I1675000J0D01*
G01*
X133374000Y-49657000D02*
X139104000Y-49657000D01*
X129779000Y-45442000D02*
X139104000Y-45442000D01*
X139104000Y-45447000D02*
X139104000Y-49657000D01*
X128104000Y-47117000D02*
X128104000Y-51332000D01*
X128104000Y-51332000D02*
X131699000Y-51332000D01*
X131699000Y-51332000D02*
G75*
G02*
X133374000Y-49657000I1675000J0D01*
G01*
X128104000Y-47117000D02*
G75*
G02*
X129779000Y-45442000I1675000J0D01*
G01*
X114324000Y-49657000D02*
X120054000Y-49657000D01*
X110729000Y-45442000D02*
X120054000Y-45442000D01*
X120054000Y-45447000D02*
X120054000Y-49657000D01*
X109054000Y-47117000D02*
X109054000Y-51332000D01*
X109054000Y-51332000D02*
X112649000Y-51332000D01*
X112649000Y-51332000D02*
G75*
G02*
X114324000Y-49657000I1675000J0D01*
G01*
X109054000Y-47117000D02*
G75*
G02*
X110729000Y-45442000I1675000J0D01*
G01*
D11*
X136271000Y-80863857D02*
X136053285Y-80936428D01*
X135690428Y-80936428D01*
X135545285Y-80863857D01*
X135472714Y-80791285D01*
X135400142Y-80646142D01*
X135400142Y-80501000D01*
X135472714Y-80355857D01*
X135545285Y-80283285D01*
X135690428Y-80210714D01*
X135980714Y-80138142D01*
X136125857Y-80065571D01*
X136198428Y-79993000D01*
X136271000Y-79847857D01*
X136271000Y-79702714D01*
X136198428Y-79557571D01*
X136125857Y-79485000D01*
X135980714Y-79412428D01*
X135617857Y-79412428D01*
X135400142Y-79485000D01*
X134892142Y-79412428D02*
X134529285Y-80936428D01*
X134239000Y-79847857D01*
X133948714Y-80936428D01*
X133585857Y-79412428D01*
X132279571Y-79412428D02*
X133005285Y-79412428D01*
X133077857Y-80138142D01*
X133005285Y-80065571D01*
X132860142Y-79993000D01*
X132497285Y-79993000D01*
X132352142Y-80065571D01*
X132279571Y-80138142D01*
X132207000Y-80283285D01*
X132207000Y-80646142D01*
X132279571Y-80791285D01*
X132352142Y-80863857D01*
X132497285Y-80936428D01*
X132860142Y-80936428D01*
X133005285Y-80863857D01*
X133077857Y-80791285D01*
M02*
