M48
; DRILL file {KiCad 5.1.10-88a1d61d58~90~ubuntu21.04.1} date Tue Aug 17 10:31:57 2021
; FORMAT={-:-/ absolute / metric / decimal}
; #@! TF.CreationDate,2021-08-17T10:31:57+02:00
; #@! TF.GenerationSoftware,Kicad,Pcbnew,5.1.10-88a1d61d58~90~ubuntu21.04.1
; #@! TF.FileFunction,NonPlated,1,2,NPTH
FMAT,2
METRIC
T1C1.700
T2C2.950
T3C3.048
T4C3.980
T5C3.988
%
G90
G05
T1
X110.109Y-52.197
X110.109Y-71.247
X110.109Y-90.297
X110.109Y-109.347
X119.686Y-128.322
X120.269Y-52.197
X120.269Y-71.247
X120.269Y-90.297
X120.269Y-109.347
X129.159Y-52.197
X129.159Y-71.247
X129.159Y-90.297
X129.159Y-109.347
X129.846Y-128.322
X139.319Y-52.197
X139.319Y-71.247
X139.319Y-90.297
X139.319Y-109.347
X148.209Y-52.197
X148.209Y-71.247
X148.209Y-90.297
X148.209Y-109.347
X148.209Y-128.397
X158.369Y-52.197
X158.369Y-71.247
X158.369Y-90.297
X158.369Y-109.347
X158.369Y-128.397
X167.259Y-52.197
X172.466Y-75.692
X172.466Y-85.852
X172.466Y-113.792
X172.466Y-123.952
X177.419Y-52.197
T2
X111.379Y-49.657
X111.379Y-68.707
X111.379Y-87.757
X111.379Y-106.807
X117.729Y-47.117
X117.729Y-66.167
X117.729Y-85.217
X117.729Y-104.267
X120.956Y-125.782
X127.306Y-123.242
X130.429Y-49.657
X130.429Y-68.707
X130.429Y-87.757
X130.429Y-106.807
X136.779Y-47.117
X136.779Y-66.167
X136.779Y-85.217
X136.779Y-104.267
X149.479Y-49.657
X149.479Y-68.707
X149.479Y-87.757
X149.479Y-106.807
X149.479Y-125.857
X155.829Y-47.117
X155.829Y-66.167
X155.829Y-85.217
X155.829Y-104.267
X155.829Y-123.317
X167.386Y-78.232
X167.386Y-116.332
X168.529Y-49.657
X169.926Y-84.582
X169.926Y-122.682
X174.879Y-47.117
T3
X112.828Y-135.307
X136.704Y-135.307
X179.451Y-68.834
X179.451Y-92.71
X179.451Y-106.934
X179.451Y-130.81
T4
X115.189Y-52.197
X115.189Y-71.247
X115.189Y-90.297
X115.189Y-109.347
X124.766Y-128.322
X134.239Y-52.197
X134.239Y-71.247
X134.239Y-90.297
X134.239Y-109.347
X153.289Y-52.197
X153.289Y-71.247
X153.289Y-90.297
X153.289Y-109.347
X153.289Y-128.397
X172.339Y-52.197
X172.466Y-80.772
X172.466Y-118.872
T5
X112.828Y-120.067
X136.704Y-120.067
X164.211Y-68.834
X164.211Y-92.71
X164.211Y-106.934
X164.211Y-130.81
T0
M30
