%FSLAX45Y45*%
G04 Gerber Fmt 4.5, Leading zero omitted, Abs format (unit mm)*
G04 Created by KiCad (PCBNEW 5.1.10-88a1d61d58~90~ubuntu21.04.1) date 2021-08-17 10:31:56*
%MOMM*%
%LPD*%
G01*
G04 APERTURE LIST*
%TA.AperFunction,Profile*%
%ADD10C,0.150000*%
%TD*%
%ADD11C,0.200000*%
%ADD12C,0.300000*%
G04 APERTURE END LIST*
D10*
X10897754Y-13790174D02*
G75*
G02*
X10567042Y-13459461I0J330712D01*
G01*
X18199670Y-13459461D02*
G75*
G02*
X17868958Y-13790174I-330712J0D01*
G01*
X17868958Y-1510174D02*
G75*
G02*
X18199670Y-1840886I0J-330712D01*
G01*
X10567042Y-1840886D02*
G75*
G02*
X10897754Y-1510174I330712J0D01*
G01*
X10567042Y-13459461D02*
X10567042Y-1840886D01*
X10897754Y-1510174D02*
X17868958Y-1510174D01*
X18199670Y-1840886D02*
X18199670Y-13459461D01*
X17868958Y-13790174D02*
X10897754Y-13790174D01*
D11*
X10761199Y-4741399D02*
X10801199Y-4781399D01*
X10801199Y-4741399D02*
X10761199Y-4781399D01*
X10765009Y-6645129D02*
X10805009Y-6685129D01*
X10805009Y-6645129D02*
X10765009Y-6685129D01*
X10765009Y-8550129D02*
X10805009Y-8590129D01*
X10805009Y-8550129D02*
X10765009Y-8590129D01*
X10765009Y-10455129D02*
X10805009Y-10495129D01*
X10805009Y-10455129D02*
X10765009Y-10495129D01*
X10788515Y-1875033D02*
X10828515Y-1915033D01*
X10828515Y-1875033D02*
X10788515Y-1915033D01*
X11590509Y-4138149D02*
X11630509Y-4178149D01*
X11630509Y-4138149D02*
X11590509Y-4178149D01*
X11679163Y-2655444D02*
X11719163Y-2695444D01*
X11719163Y-2655444D02*
X11679163Y-2695444D01*
X11694649Y-3767058D02*
X11734649Y-3807058D01*
X11734649Y-3767058D02*
X11694649Y-3807058D01*
X11720049Y-12342349D02*
X11760049Y-12382349D01*
X11760049Y-12342349D02*
X11720049Y-12382349D01*
X11895911Y-3029843D02*
X11935911Y-3069843D01*
X11935911Y-3029843D02*
X11895911Y-3069843D01*
X12095384Y-2751630D02*
X12135384Y-2791630D01*
X12135384Y-2751630D02*
X12095384Y-2791630D01*
X12422294Y-2217799D02*
X12462294Y-2257799D01*
X12462294Y-2217799D02*
X12422294Y-2257799D01*
X12422794Y-2350299D02*
X12462794Y-2390299D01*
X12462794Y-2350299D02*
X12422794Y-2390299D01*
X12436826Y-1612563D02*
X12476826Y-1652563D01*
X12476826Y-1612563D02*
X12436826Y-1652563D01*
X12507294Y-2217799D02*
X12547294Y-2257799D01*
X12547294Y-2217799D02*
X12507294Y-2257799D01*
X12507794Y-2350299D02*
X12547794Y-2390299D01*
X12547794Y-2350299D02*
X12507794Y-2390299D01*
X12545549Y-6652749D02*
X12585549Y-6692749D01*
X12585549Y-6652749D02*
X12545549Y-6692749D01*
X12545549Y-10462749D02*
X12585549Y-10502749D01*
X12585549Y-10462749D02*
X12545549Y-10502749D01*
X12545551Y-8557749D02*
X12585551Y-8597749D01*
X12585551Y-8557749D02*
X12545551Y-8597749D01*
X12590071Y-4760449D02*
X12630071Y-4800449D01*
X12630071Y-4760449D02*
X12590071Y-4800449D01*
X12592294Y-2217799D02*
X12632294Y-2257799D01*
X12632294Y-2217799D02*
X12592294Y-2257799D01*
X12592794Y-2350299D02*
X12632794Y-2390299D01*
X12632794Y-2350299D02*
X12592794Y-2390299D01*
X12677294Y-2217799D02*
X12717294Y-2257799D01*
X12717294Y-2217799D02*
X12677294Y-2257799D01*
X12677794Y-2350299D02*
X12717794Y-2390299D01*
X12717794Y-2350299D02*
X12677794Y-2390299D01*
X12706993Y-2467190D02*
X12746993Y-2507190D01*
X12746993Y-2467190D02*
X12706993Y-2507190D01*
X12741291Y-3672078D02*
X12781291Y-3712078D01*
X12781291Y-3672078D02*
X12741291Y-3712078D01*
X12762294Y-2217799D02*
X12802294Y-2257799D01*
X12802294Y-2217799D02*
X12762294Y-2257799D01*
X12762794Y-2350299D02*
X12802794Y-2390299D01*
X12802794Y-2350299D02*
X12762794Y-2390299D01*
X12815014Y-2529247D02*
X12855014Y-2569247D01*
X12855014Y-2529247D02*
X12815014Y-2569247D01*
X12847294Y-2217799D02*
X12887294Y-2257799D01*
X12887294Y-2217799D02*
X12847294Y-2257799D01*
X12847794Y-2350299D02*
X12887794Y-2390299D01*
X12887794Y-2350299D02*
X12847794Y-2390299D01*
X12932294Y-2217799D02*
X12972294Y-2257799D01*
X12972294Y-2217799D02*
X12932294Y-2257799D01*
X12932794Y-2350299D02*
X12972794Y-2390299D01*
X12972794Y-2350299D02*
X12932794Y-2390299D01*
X13017794Y-2217799D02*
X13057794Y-2257799D01*
X13057794Y-2217799D02*
X13017794Y-2257799D01*
X13017794Y-2350299D02*
X13057794Y-2390299D01*
X13057794Y-2350299D02*
X13017794Y-2390299D01*
X13446461Y-3666828D02*
X13486461Y-3706828D01*
X13486461Y-3666828D02*
X13446461Y-3706828D01*
X13505954Y-2531208D02*
X13545954Y-2571208D01*
X13545954Y-2531208D02*
X13505954Y-2571208D01*
X13580687Y-2254876D02*
X13620687Y-2294876D01*
X13620687Y-2254876D02*
X13580687Y-2294876D01*
X13800208Y-1649309D02*
X13840208Y-1689309D01*
X13840208Y-1649309D02*
X13800208Y-1689309D01*
X14555834Y-2522459D02*
X14595834Y-2562459D01*
X14595834Y-2522459D02*
X14555834Y-2562459D01*
X14577549Y-4735049D02*
X14617549Y-4775049D01*
X14617549Y-4735049D02*
X14577549Y-4775049D01*
X14577549Y-6640049D02*
X14617549Y-6680049D01*
X14617549Y-6640049D02*
X14577549Y-6680049D01*
X14577549Y-8545049D02*
X14617549Y-8585049D01*
X14617549Y-8545049D02*
X14577549Y-8585049D01*
X14577549Y-10450049D02*
X14617549Y-10490049D01*
X14617549Y-10450049D02*
X14577549Y-10490049D01*
X14577549Y-12355049D02*
X14617549Y-12395049D01*
X14617549Y-12355049D02*
X14577549Y-12395049D01*
X14669571Y-2184748D02*
X14709571Y-2224748D01*
X14709571Y-2184748D02*
X14669571Y-2224748D01*
X14793807Y-1649309D02*
X14833807Y-1689309D01*
X14833807Y-1649309D02*
X14793807Y-1689309D01*
X14793807Y-2459467D02*
X14833807Y-2499467D01*
X14833807Y-2459467D02*
X14793807Y-2499467D01*
X15306498Y-2590702D02*
X15346498Y-2630702D01*
X15346498Y-2590702D02*
X15306498Y-2630702D01*
X15365991Y-3589837D02*
X15405991Y-3629837D01*
X15405991Y-3589837D02*
X15365991Y-3629837D01*
X15395738Y-4053534D02*
X15435738Y-4093534D01*
X15435738Y-4053534D02*
X15395738Y-4093534D01*
X15407551Y-3140403D02*
X15447551Y-3180403D01*
X15447551Y-3140403D02*
X15407551Y-3180403D01*
X15601027Y-3683625D02*
X15641027Y-3723625D01*
X15641027Y-3683625D02*
X15601027Y-3723625D01*
X15645676Y-2318128D02*
X15685676Y-2358128D01*
X15685676Y-2318128D02*
X15645676Y-2358128D01*
X15671720Y-3140403D02*
X15711720Y-3180403D01*
X15711720Y-3140403D02*
X15671720Y-3180403D01*
X15928449Y-2318128D02*
X15968449Y-2358128D01*
X15968449Y-2318128D02*
X15928449Y-2358128D01*
X15954494Y-3140403D02*
X15994494Y-3180403D01*
X15994494Y-3140403D02*
X15954494Y-3180403D01*
X16211222Y-2318128D02*
X16251222Y-2358128D01*
X16251222Y-2318128D02*
X16211222Y-2358128D01*
X16240988Y-3140403D02*
X16280988Y-3180403D01*
X16280988Y-3140403D02*
X16240988Y-3180403D01*
X16279349Y-4938249D02*
X16319349Y-4978249D01*
X16319349Y-4938249D02*
X16279349Y-4978249D01*
X16523761Y-2318128D02*
X16563761Y-2358128D01*
X16563761Y-2318128D02*
X16523761Y-2358128D01*
X16534923Y-3140403D02*
X16574923Y-3180403D01*
X16574923Y-3140403D02*
X16534923Y-3180403D01*
X16761949Y-8786349D02*
X16801949Y-8826349D01*
X16801949Y-8786349D02*
X16761949Y-8826349D01*
X16761949Y-12596349D02*
X16801949Y-12636349D01*
X16801949Y-12596349D02*
X16761949Y-12636349D01*
X16981057Y-6352771D02*
X17021057Y-6392771D01*
X17021057Y-6352771D02*
X16981057Y-6392771D01*
X17058048Y-1649309D02*
X17098048Y-1689309D01*
X17098048Y-1649309D02*
X17058048Y-1689309D01*
X17413257Y-2916164D02*
X17453257Y-2956164D01*
X17453257Y-2916164D02*
X17413257Y-2956164D01*
X17918950Y-2139253D02*
X17958950Y-2179253D01*
X17958950Y-2139253D02*
X17918950Y-2179253D01*
X17950669Y-4354049D02*
X17990669Y-4394049D01*
X17990669Y-4354049D02*
X17950669Y-4394049D01*
X17991309Y-6464789D02*
X18031309Y-6504789D01*
X18031309Y-6464789D02*
X17991309Y-6504789D01*
X17995941Y-3134889D02*
X18035941Y-3174889D01*
X18035941Y-3134889D02*
X17995941Y-3174889D01*
X11993382Y-1818042D02*
G75*
G03*
X11993382Y-1818042I-30000J0D01*
G01*
X11993382Y-1968042D02*
G75*
G03*
X11993382Y-1968042I-30000J0D01*
G01*
X12337794Y-1934299D02*
G75*
G03*
X12337794Y-1934299I-30000J0D01*
G01*
X12327794Y-1974299D02*
X12327794Y-1894299D01*
X12287794Y-1974299D02*
X12287794Y-1894299D01*
X12327794Y-1894299D02*
G75*
G03*
X12287794Y-1894299I-20000J0D01*
G01*
X12287794Y-1974299D02*
G75*
G03*
X12327794Y-1974299I20000J0D01*
G01*
X12337794Y-2272299D02*
G75*
G03*
X12337794Y-2272299I-30000J0D01*
G01*
X12327794Y-2347299D02*
X12327794Y-2197299D01*
X12287794Y-2347299D02*
X12287794Y-2197299D01*
X12327794Y-2197299D02*
G75*
G03*
X12287794Y-2197299I-20000J0D01*
G01*
X12287794Y-2347299D02*
G75*
G03*
X12327794Y-2347299I20000J0D01*
G01*
X13202794Y-1934299D02*
G75*
G03*
X13202794Y-1934299I-30000J0D01*
G01*
X13192794Y-1974299D02*
X13192794Y-1894299D01*
X13152794Y-1974299D02*
X13152794Y-1894299D01*
X13192794Y-1894299D02*
G75*
G03*
X13152794Y-1894299I-20000J0D01*
G01*
X13152794Y-1974299D02*
G75*
G03*
X13192794Y-1974299I20000J0D01*
G01*
X13202794Y-2272299D02*
G75*
G03*
X13202794Y-2272299I-30000J0D01*
G01*
X13192794Y-2347299D02*
X13192794Y-2197299D01*
X13152794Y-2347299D02*
X13152794Y-2197299D01*
X13192794Y-2197299D02*
G75*
G03*
X13152794Y-2197299I-20000J0D01*
G01*
X13152794Y-2347299D02*
G75*
G03*
X13192794Y-2347299I20000J0D01*
G01*
X11571427Y-1626031D02*
X11571427Y-1696031D01*
X11536427Y-1661031D02*
X11606427Y-1661031D01*
X11571427Y-2136031D02*
X11571427Y-2206031D01*
X11536427Y-2171031D02*
X11606427Y-2171031D01*
X12617808Y-2649193D02*
X12617808Y-2719193D01*
X12582808Y-2684193D02*
X12652808Y-2684193D01*
X13125808Y-2649193D02*
X13125808Y-2719193D01*
X13090808Y-2684193D02*
X13160808Y-2684193D01*
X13392969Y-2384973D02*
X13392969Y-2454973D01*
X13357969Y-2419973D02*
X13427969Y-2419973D01*
X13900969Y-2384973D02*
X13900969Y-2454973D01*
X13865969Y-2419973D02*
X13935969Y-2419973D01*
X14170396Y-2379724D02*
X14170396Y-2449724D01*
X14135396Y-2414724D02*
X14205396Y-2414724D01*
X14170396Y-2642194D02*
X14170396Y-2712194D01*
X14135396Y-2677194D02*
X14205396Y-2677194D01*
X14170396Y-2913413D02*
X14170396Y-2983413D01*
X14135396Y-2948413D02*
X14205396Y-2948413D01*
X14678396Y-2379724D02*
X14678396Y-2449724D01*
X14643396Y-2414724D02*
X14713396Y-2414724D01*
X14678396Y-2642194D02*
X14678396Y-2712194D01*
X14643396Y-2677194D02*
X14713396Y-2677194D01*
X14678396Y-2913413D02*
X14678396Y-2983413D01*
X14643396Y-2948413D02*
X14713396Y-2948413D01*
X14787560Y-3180574D02*
X14787560Y-3250574D01*
X14752560Y-3215574D02*
X14822560Y-3215574D01*
X14787560Y-3688574D02*
X14787560Y-3758574D01*
X14752560Y-3723574D02*
X14822560Y-3723574D01*
X10969784Y-3519135D02*
X10969784Y-3462566D01*
X10913215Y-3462566D01*
X10913215Y-3519135D01*
X10969784Y-3519135D01*
X10969784Y-4019135D02*
X10969784Y-3962566D01*
X10913215Y-3962566D01*
X10913215Y-4019135D01*
X10969784Y-4019135D01*
X11242625Y-3258415D02*
X11242625Y-3201846D01*
X11186056Y-3201846D01*
X11186056Y-3258415D01*
X11242625Y-3258415D01*
X11242625Y-4020415D02*
X11242625Y-3963846D01*
X11186056Y-3963846D01*
X11186056Y-4020415D01*
X11242625Y-4020415D01*
X11244724Y-2467506D02*
X11244724Y-2410937D01*
X11188155Y-2410937D01*
X11188155Y-2467506D01*
X11244724Y-2467506D01*
X11494724Y-2467506D02*
X11494724Y-2410937D01*
X11438155Y-2410937D01*
X11438155Y-2467506D01*
X11494724Y-2467506D01*
X11496625Y-3258415D02*
X11496625Y-3201846D01*
X11440056Y-3201846D01*
X11440056Y-3258415D01*
X11496625Y-3258415D01*
X11496625Y-4020415D02*
X11496625Y-3963846D01*
X11440056Y-3963846D01*
X11440056Y-4020415D01*
X11496625Y-4020415D01*
X11501917Y-2855961D02*
X11501917Y-2799392D01*
X11445348Y-2799392D01*
X11445348Y-2855961D01*
X11501917Y-2855961D01*
X11750195Y-2469255D02*
X11750195Y-2412686D01*
X11693626Y-2412686D01*
X11693626Y-2469255D01*
X11750195Y-2469255D01*
X11750625Y-3258415D02*
X11750625Y-3201846D01*
X11694056Y-3201846D01*
X11694056Y-3258415D01*
X11750625Y-3258415D01*
X11750625Y-4020415D02*
X11750625Y-3963846D01*
X11694056Y-3963846D01*
X11694056Y-4020415D01*
X11750625Y-4020415D01*
X11989917Y-2855961D02*
X11989917Y-2799392D01*
X11933348Y-2799392D01*
X11933348Y-2855961D01*
X11989917Y-2855961D01*
X12000195Y-2469255D02*
X12000195Y-2412686D01*
X11943626Y-2412686D01*
X11943626Y-2469255D01*
X12000195Y-2469255D01*
X12004625Y-3258415D02*
X12004625Y-3201846D01*
X11948056Y-3201846D01*
X11948056Y-3258415D01*
X12004625Y-3258415D01*
X12004625Y-4020415D02*
X12004625Y-3963846D01*
X11948056Y-3963846D01*
X11948056Y-4020415D01*
X12004625Y-4020415D01*
X12258625Y-3258415D02*
X12258625Y-3201846D01*
X12202056Y-3201846D01*
X12202056Y-3258415D01*
X12258625Y-3258415D01*
X12258625Y-4020415D02*
X12258625Y-3963846D01*
X12202056Y-3963846D01*
X12202056Y-4020415D01*
X12258625Y-4020415D01*
X12512625Y-3258415D02*
X12512625Y-3201846D01*
X12456056Y-3201846D01*
X12456056Y-3258415D01*
X12512625Y-3258415D01*
X12512625Y-4020415D02*
X12512625Y-3963846D01*
X12456056Y-3963846D01*
X12456056Y-4020415D01*
X12512625Y-4020415D01*
X12657034Y-2985446D02*
X12657034Y-2928877D01*
X12600465Y-2928877D01*
X12600465Y-2985446D01*
X12657034Y-2985446D01*
X12766625Y-3258415D02*
X12766625Y-3201846D01*
X12710056Y-3201846D01*
X12710056Y-3258415D01*
X12766625Y-3258415D01*
X12766625Y-4020415D02*
X12766625Y-3963846D01*
X12710056Y-3963846D01*
X12710056Y-4020415D01*
X12766625Y-4020415D01*
X13020625Y-3258415D02*
X13020625Y-3201846D01*
X12964056Y-3201846D01*
X12964056Y-3258415D01*
X13020625Y-3258415D01*
X13020625Y-4020415D02*
X13020625Y-3963846D01*
X12964056Y-3963846D01*
X12964056Y-4020415D01*
X13020625Y-4020415D01*
X13157034Y-2985446D02*
X13157034Y-2928877D01*
X13100465Y-2928877D01*
X13100465Y-2985446D01*
X13157034Y-2985446D01*
X13274625Y-3258415D02*
X13274625Y-3201846D01*
X13218056Y-3201846D01*
X13218056Y-3258415D01*
X13274625Y-3258415D01*
X13274625Y-4020415D02*
X13274625Y-3963846D01*
X13218056Y-3963846D01*
X13218056Y-4020415D01*
X13274625Y-4020415D01*
X13425768Y-2712478D02*
X13425768Y-2655909D01*
X13369199Y-2655909D01*
X13369199Y-2712478D01*
X13425768Y-2712478D01*
X13425768Y-2981947D02*
X13425768Y-2925378D01*
X13369199Y-2925378D01*
X13369199Y-2981947D01*
X13425768Y-2981947D01*
X13528625Y-3258415D02*
X13528625Y-3201846D01*
X13472056Y-3201846D01*
X13472056Y-3258415D01*
X13528625Y-3258415D01*
X13528625Y-4020415D02*
X13528625Y-3963846D01*
X13472056Y-3963846D01*
X13472056Y-4020415D01*
X13528625Y-4020415D01*
X13782625Y-3258415D02*
X13782625Y-3201846D01*
X13726056Y-3201846D01*
X13726056Y-3258415D01*
X13782625Y-3258415D01*
X13782625Y-4020415D02*
X13782625Y-3963846D01*
X13726056Y-3963846D01*
X13726056Y-4020415D01*
X13782625Y-4020415D01*
X13933768Y-2712478D02*
X13933768Y-2655909D01*
X13877199Y-2655909D01*
X13877199Y-2712478D01*
X13933768Y-2712478D01*
X13933768Y-2981947D02*
X13933768Y-2925378D01*
X13877199Y-2925378D01*
X13877199Y-2981947D01*
X13933768Y-2981947D01*
X14036625Y-3258415D02*
X14036625Y-3201846D01*
X13980056Y-3201846D01*
X13980056Y-3258415D01*
X14036625Y-3258415D01*
X14036625Y-4020415D02*
X14036625Y-3963846D01*
X13980056Y-3963846D01*
X13980056Y-4020415D01*
X14036625Y-4020415D01*
X14290625Y-3258415D02*
X14290625Y-3201846D01*
X14234056Y-3201846D01*
X14234056Y-3258415D01*
X14290625Y-3258415D01*
X14290625Y-4020415D02*
X14290625Y-3963846D01*
X14234056Y-3963846D01*
X14234056Y-4020415D01*
X14290625Y-4020415D01*
X14544625Y-3258415D02*
X14544625Y-3201846D01*
X14488056Y-3201846D01*
X14488056Y-3258415D01*
X14544625Y-3258415D01*
X14544625Y-4020415D02*
X14544625Y-3963846D01*
X14488056Y-3963846D01*
X14488056Y-4020415D01*
X14544625Y-4020415D01*
X15499931Y-2001017D02*
X15499931Y-1944448D01*
X15443362Y-1944448D01*
X15443362Y-2001017D01*
X15499931Y-2001017D01*
X15499931Y-2509018D02*
X15499931Y-2452449D01*
X15443362Y-2452449D01*
X15443362Y-2509018D01*
X15499931Y-2509018D01*
X15499931Y-3369159D02*
X15499931Y-3312590D01*
X15443362Y-3312590D01*
X15443362Y-3369159D01*
X15499931Y-3369159D01*
X15499931Y-3877159D02*
X15499931Y-3820590D01*
X15443362Y-3820590D01*
X15443362Y-3877159D01*
X15499931Y-3877159D01*
X15785361Y-2001017D02*
X15785361Y-1944448D01*
X15728792Y-1944448D01*
X15728792Y-2001017D01*
X15785361Y-2001017D01*
X15785361Y-2509018D02*
X15785361Y-2452449D01*
X15728792Y-2452449D01*
X15728792Y-2509018D01*
X15785361Y-2509018D01*
X15785361Y-3369159D02*
X15785361Y-3312590D01*
X15728792Y-3312590D01*
X15728792Y-3369159D01*
X15785361Y-3369159D01*
X15785361Y-3877159D02*
X15785361Y-3820590D01*
X15728792Y-3820590D01*
X15728792Y-3877159D01*
X15785361Y-3877159D01*
X16070792Y-2001017D02*
X16070792Y-1944448D01*
X16014223Y-1944448D01*
X16014223Y-2001017D01*
X16070792Y-2001017D01*
X16070792Y-2509018D02*
X16070792Y-2452449D01*
X16014223Y-2452449D01*
X16014223Y-2509018D01*
X16070792Y-2509018D01*
X16070792Y-3369159D02*
X16070792Y-3312590D01*
X16014223Y-3312590D01*
X16014223Y-3369159D01*
X16070792Y-3369159D01*
X16070792Y-3877159D02*
X16070792Y-3820590D01*
X16014223Y-3820590D01*
X16014223Y-3877159D01*
X16070792Y-3877159D01*
X16356222Y-2001017D02*
X16356222Y-1944448D01*
X16299653Y-1944448D01*
X16299653Y-2001017D01*
X16356222Y-2001017D01*
X16356222Y-2509018D02*
X16356222Y-2452449D01*
X16299653Y-2452449D01*
X16299653Y-2509018D01*
X16356222Y-2509018D01*
X16356222Y-3369159D02*
X16356222Y-3312590D01*
X16299653Y-3312590D01*
X16299653Y-3369159D01*
X16356222Y-3369159D01*
X16356222Y-3877159D02*
X16356222Y-3820590D01*
X16299653Y-3820590D01*
X16299653Y-3877159D01*
X16356222Y-3877159D01*
X16641653Y-2001017D02*
X16641653Y-1944448D01*
X16585084Y-1944448D01*
X16585084Y-2001017D01*
X16641653Y-2001017D01*
X16641653Y-2509018D02*
X16641653Y-2452449D01*
X16585084Y-2452449D01*
X16585084Y-2509018D01*
X16641653Y-2509018D01*
X16641653Y-3369159D02*
X16641653Y-3312590D01*
X16585084Y-3312590D01*
X16585084Y-3369159D01*
X16641653Y-3369159D01*
X16641653Y-3877159D02*
X16641653Y-3820590D01*
X16585084Y-3820590D01*
X16585084Y-3877159D01*
X16641653Y-3877159D01*
X16927084Y-2001017D02*
X16927084Y-1944448D01*
X16870515Y-1944448D01*
X16870515Y-2001017D01*
X16927084Y-2001017D01*
X16927084Y-2509018D02*
X16927084Y-2452449D01*
X16870515Y-2452449D01*
X16870515Y-2509018D01*
X16927084Y-2509018D01*
X16927084Y-3369159D02*
X16927084Y-3312590D01*
X16870515Y-3312590D01*
X16870515Y-3369159D01*
X16927084Y-3369159D01*
X16927084Y-3877159D02*
X16927084Y-3820590D01*
X16870515Y-3820590D01*
X16870515Y-3877159D01*
X16927084Y-3877159D01*
X17212514Y-2001017D02*
X17212514Y-1944448D01*
X17155945Y-1944448D01*
X17155945Y-2001017D01*
X17212514Y-2001017D01*
X17212514Y-2509018D02*
X17212514Y-2452449D01*
X17155945Y-2452449D01*
X17155945Y-2509018D01*
X17212514Y-2509018D01*
X17212514Y-3369159D02*
X17212514Y-3312590D01*
X17155945Y-3312590D01*
X17155945Y-3369159D01*
X17212514Y-3369159D01*
X17212514Y-3877159D02*
X17212514Y-3820590D01*
X17155945Y-3820590D01*
X17155945Y-3877159D01*
X17212514Y-3877159D01*
X17497946Y-2001017D02*
X17497946Y-1944448D01*
X17441377Y-1944448D01*
X17441377Y-2001017D01*
X17497946Y-2001017D01*
X17497946Y-2509018D02*
X17497946Y-2452449D01*
X17441377Y-2452449D01*
X17441377Y-2509018D01*
X17497946Y-2509018D01*
X17497946Y-3369159D02*
X17497946Y-3312590D01*
X17441377Y-3312590D01*
X17441377Y-3369159D01*
X17497946Y-3369159D01*
X17497946Y-3877159D02*
X17497946Y-3820590D01*
X17441377Y-3820590D01*
X17441377Y-3877159D01*
X17497946Y-3877159D01*
X17783377Y-2001017D02*
X17783377Y-1944448D01*
X17726808Y-1944448D01*
X17726808Y-2001017D01*
X17783377Y-2001017D01*
X17783377Y-2509018D02*
X17783377Y-2452449D01*
X17726808Y-2452449D01*
X17726808Y-2509018D01*
X17783377Y-2509018D01*
X11270149Y-4571709D02*
X11320149Y-4521709D01*
X11270149Y-4471709D01*
X11220149Y-4521709D01*
X11270149Y-4571709D01*
X11270149Y-6021709D02*
X11320149Y-5971709D01*
X11270149Y-5921709D01*
X11220149Y-5971709D01*
X11270149Y-6021709D01*
X11520149Y-6021709D02*
X11570149Y-5971709D01*
X11520149Y-5921709D01*
X11470149Y-5971709D01*
X11520149Y-6021709D01*
X11770149Y-4571709D02*
X11820149Y-4521709D01*
X11770149Y-4471709D01*
X11720149Y-4521709D01*
X11770149Y-4571709D01*
X11770149Y-6021709D02*
X11820149Y-5971709D01*
X11770149Y-5921709D01*
X11720149Y-5971709D01*
X11770149Y-6021709D01*
X17727959Y-3388339D02*
X17777959Y-3338339D01*
X17727959Y-3288339D01*
X17677959Y-3338339D01*
X17727959Y-3388339D01*
X17727959Y-3642339D02*
X17777959Y-3592339D01*
X17727959Y-3542339D01*
X17677959Y-3592339D01*
X17727959Y-3642339D01*
X17727959Y-3896339D02*
X17777959Y-3846339D01*
X17727959Y-3796339D01*
X17677959Y-3846339D01*
X17727959Y-3896339D01*
X17981959Y-3388339D02*
X18031959Y-3338339D01*
X17981959Y-3288339D01*
X17931959Y-3338339D01*
X17981959Y-3388339D01*
X17981959Y-3642339D02*
X18031959Y-3592339D01*
X17981959Y-3542339D01*
X17931959Y-3592339D01*
X17981959Y-3642339D01*
X17981959Y-3896339D02*
X18031959Y-3846339D01*
X17981959Y-3796339D01*
X17931959Y-3846339D01*
X17981959Y-3896339D01*
X13441207Y-1614309D02*
X13551207Y-1724309D01*
X13551207Y-1614309D02*
X13441207Y-1724309D01*
X13551207Y-1669309D02*
G75*
G03*
X13551207Y-1669309I-55000J0D01*
G01*
X13441207Y-2064309D02*
X13551207Y-2174309D01*
X13551207Y-2064309D02*
X13441207Y-2174309D01*
X13551207Y-2119309D02*
G75*
G03*
X13551207Y-2119309I-55000J0D01*
G01*
X14091207Y-1614309D02*
X14201207Y-1724309D01*
X14201207Y-1614309D02*
X14091207Y-1724309D01*
X14201207Y-1669309D02*
G75*
G03*
X14201207Y-1669309I-55000J0D01*
G01*
X14091207Y-2064309D02*
X14201207Y-2174309D01*
X14201207Y-2064309D02*
X14091207Y-2174309D01*
X14201207Y-2119309D02*
G75*
G03*
X14201207Y-2119309I-55000J0D01*
G01*
X14442093Y-1614309D02*
X14552093Y-1724309D01*
X14552093Y-1614309D02*
X14442093Y-1724309D01*
X14552093Y-1669309D02*
G75*
G03*
X14552093Y-1669309I-55000J0D01*
G01*
X14442093Y-2064309D02*
X14552093Y-2174309D01*
X14552093Y-2064309D02*
X14442093Y-2174309D01*
X14552093Y-2119309D02*
G75*
G03*
X14552093Y-2119309I-55000J0D01*
G01*
X15092093Y-1614309D02*
X15202093Y-1724309D01*
X15202093Y-1614309D02*
X15092093Y-1724309D01*
X15202093Y-1669309D02*
G75*
G03*
X15202093Y-1669309I-55000J0D01*
G01*
X15092093Y-2064309D02*
X15202093Y-2174309D01*
X15202093Y-2064309D02*
X15092093Y-2174309D01*
X15202093Y-2119309D02*
G75*
G03*
X15202093Y-2119309I-55000J0D01*
G01*
X10885149Y-5146709D02*
X11035149Y-5296709D01*
X11035149Y-5146709D02*
X10885149Y-5296709D01*
X10960149Y-5146709D02*
X10960149Y-5296709D01*
X10885149Y-5221709D02*
X11035149Y-5221709D01*
X11025149Y-5286709D02*
X11025149Y-5156709D01*
X10895149Y-5286709D02*
X10895149Y-5156709D01*
X11025149Y-5156709D02*
G75*
G03*
X10895149Y-5156709I-65000J0D01*
G01*
X10895149Y-5286709D02*
G75*
G03*
X11025149Y-5286709I65000J0D01*
G01*
X12005149Y-5146709D02*
X12155149Y-5296709D01*
X12155149Y-5146709D02*
X12005149Y-5296709D01*
X12080149Y-5146709D02*
X12080149Y-5296709D01*
X12005149Y-5221709D02*
X12155149Y-5221709D01*
X12145149Y-5286709D02*
X12145149Y-5156709D01*
X12015149Y-5286709D02*
X12015149Y-5156709D01*
X12145149Y-5156709D02*
G75*
G03*
X12015149Y-5156709I-65000J0D01*
G01*
X12015149Y-5286709D02*
G75*
G03*
X12145149Y-5286709I65000J0D01*
G01*
X10740303Y-2737577D02*
X10960303Y-2957577D01*
X10960303Y-2737577D02*
X10740303Y-2957577D01*
X10928086Y-2925360D02*
X10928086Y-2769795D01*
X10772521Y-2769795D01*
X10772521Y-2925360D01*
X10928086Y-2925360D01*
X11465254Y-9846669D02*
X11685254Y-10066669D01*
X11685254Y-9846669D02*
X11465254Y-10066669D01*
X11653037Y-10034451D02*
X11653037Y-9878886D01*
X11497472Y-9878886D01*
X11497472Y-10034451D01*
X11653037Y-10034451D01*
X14273356Y-6068426D02*
X14493356Y-6288426D01*
X14493356Y-6068426D02*
X14273356Y-6288426D01*
X14461138Y-6256209D02*
X14461138Y-6100644D01*
X14305573Y-6100644D01*
X14305573Y-6256209D01*
X14461138Y-6256209D01*
X14273356Y-11758667D02*
X14493356Y-11978667D01*
X14493356Y-11758667D02*
X14273356Y-11978667D01*
X14461138Y-11946450D02*
X14461138Y-11790885D01*
X14305573Y-11790885D01*
X14305573Y-11946450D01*
X14461138Y-11946450D01*
X17081458Y-9874169D02*
X17301458Y-10094169D01*
X17301458Y-9874169D02*
X17081458Y-10094169D01*
X17269240Y-10061951D02*
X17269240Y-9906386D01*
X17113675Y-9906386D01*
X17113675Y-10061951D01*
X17269240Y-10061951D01*
X17790113Y-2737577D02*
X18010113Y-2957577D01*
X18010113Y-2737577D02*
X17790113Y-2957577D01*
X17977896Y-2925360D02*
X17977896Y-2769795D01*
X17822331Y-2769795D01*
X17822331Y-2925360D01*
X17977896Y-2925360D01*
D12*
X10845971Y-14263388D02*
X10845971Y-13963388D01*
X10917399Y-13963388D01*
X10960256Y-13977674D01*
X10988828Y-14006245D01*
X11003113Y-14034817D01*
X11017399Y-14091959D01*
X11017399Y-14134817D01*
X11003113Y-14191959D01*
X10988828Y-14220531D01*
X10960256Y-14249102D01*
X10917399Y-14263388D01*
X10845971Y-14263388D01*
X11145971Y-14263388D02*
X11145971Y-14063388D01*
X11145971Y-14120531D02*
X11160256Y-14091959D01*
X11174542Y-14077674D01*
X11203113Y-14063388D01*
X11231685Y-14063388D01*
X11331685Y-14263388D02*
X11331685Y-14063388D01*
X11331685Y-13963388D02*
X11317399Y-13977674D01*
X11331685Y-13991959D01*
X11345970Y-13977674D01*
X11331685Y-13963388D01*
X11331685Y-13991959D01*
X11517399Y-14263388D02*
X11488828Y-14249102D01*
X11474542Y-14220531D01*
X11474542Y-13963388D01*
X11674542Y-14263388D02*
X11645970Y-14249102D01*
X11631685Y-14220531D01*
X11631685Y-13963388D01*
X12017399Y-14263388D02*
X12017399Y-13963388D01*
X12117399Y-14177674D01*
X12217399Y-13963388D01*
X12217399Y-14263388D01*
X12488828Y-14263388D02*
X12488828Y-14106245D01*
X12474542Y-14077674D01*
X12445970Y-14063388D01*
X12388828Y-14063388D01*
X12360256Y-14077674D01*
X12488828Y-14249102D02*
X12460256Y-14263388D01*
X12388828Y-14263388D01*
X12360256Y-14249102D01*
X12345970Y-14220531D01*
X12345970Y-14191959D01*
X12360256Y-14163388D01*
X12388828Y-14149102D01*
X12460256Y-14149102D01*
X12488828Y-14134817D01*
X12631685Y-14063388D02*
X12631685Y-14363388D01*
X12631685Y-14077674D02*
X12660256Y-14063388D01*
X12717399Y-14063388D01*
X12745970Y-14077674D01*
X12760256Y-14091959D01*
X12774542Y-14120531D01*
X12774542Y-14206245D01*
X12760256Y-14234817D01*
X12745970Y-14249102D01*
X12717399Y-14263388D01*
X12660256Y-14263388D01*
X12631685Y-14249102D01*
X12903113Y-14234817D02*
X12917399Y-14249102D01*
X12903113Y-14263388D01*
X12888828Y-14249102D01*
X12903113Y-14234817D01*
X12903113Y-14263388D01*
X12903113Y-14077674D02*
X12917399Y-14091959D01*
X12903113Y-14106245D01*
X12888828Y-14091959D01*
X12903113Y-14077674D01*
X12903113Y-14106245D01*
X10519542Y-14737674D02*
X10559542Y-14777674D01*
X10559542Y-14737674D02*
X10519542Y-14777674D01*
X10903113Y-14593388D02*
X10931685Y-14593388D01*
X10960256Y-14607674D01*
X10974542Y-14621959D01*
X10988828Y-14650531D01*
X11003113Y-14707674D01*
X11003113Y-14779102D01*
X10988828Y-14836245D01*
X10974542Y-14864817D01*
X10960256Y-14879102D01*
X10931685Y-14893388D01*
X10903113Y-14893388D01*
X10874542Y-14879102D01*
X10860256Y-14864817D01*
X10845971Y-14836245D01*
X10831685Y-14779102D01*
X10831685Y-14707674D01*
X10845971Y-14650531D01*
X10860256Y-14621959D01*
X10874542Y-14607674D01*
X10903113Y-14593388D01*
X11131685Y-14864817D02*
X11145971Y-14879102D01*
X11131685Y-14893388D01*
X11117399Y-14879102D01*
X11131685Y-14864817D01*
X11131685Y-14893388D01*
X11403113Y-14693388D02*
X11403113Y-14893388D01*
X11331685Y-14579102D02*
X11260256Y-14793388D01*
X11445970Y-14793388D01*
X11617399Y-14593388D02*
X11645970Y-14593388D01*
X11674542Y-14607674D01*
X11688828Y-14621959D01*
X11703113Y-14650531D01*
X11717399Y-14707674D01*
X11717399Y-14779102D01*
X11703113Y-14836245D01*
X11688828Y-14864817D01*
X11674542Y-14879102D01*
X11645970Y-14893388D01*
X11617399Y-14893388D01*
X11588828Y-14879102D01*
X11574542Y-14864817D01*
X11560256Y-14836245D01*
X11545970Y-14779102D01*
X11545970Y-14707674D01*
X11560256Y-14650531D01*
X11574542Y-14621959D01*
X11588828Y-14607674D01*
X11617399Y-14593388D01*
X11903113Y-14593388D02*
X11931685Y-14593388D01*
X11960256Y-14607674D01*
X11974542Y-14621959D01*
X11988828Y-14650531D01*
X12003113Y-14707674D01*
X12003113Y-14779102D01*
X11988828Y-14836245D01*
X11974542Y-14864817D01*
X11960256Y-14879102D01*
X11931685Y-14893388D01*
X11903113Y-14893388D01*
X11874542Y-14879102D01*
X11860256Y-14864817D01*
X11845970Y-14836245D01*
X11831685Y-14779102D01*
X11831685Y-14707674D01*
X11845970Y-14650531D01*
X11860256Y-14621959D01*
X11874542Y-14607674D01*
X11903113Y-14593388D01*
X12131685Y-14893388D02*
X12131685Y-14693388D01*
X12131685Y-14721959D02*
X12145970Y-14707674D01*
X12174542Y-14693388D01*
X12217399Y-14693388D01*
X12245970Y-14707674D01*
X12260256Y-14736245D01*
X12260256Y-14893388D01*
X12260256Y-14736245D02*
X12274542Y-14707674D01*
X12303113Y-14693388D01*
X12345970Y-14693388D01*
X12374542Y-14707674D01*
X12388828Y-14736245D01*
X12388828Y-14893388D01*
X12531685Y-14893388D02*
X12531685Y-14693388D01*
X12531685Y-14721959D02*
X12545970Y-14707674D01*
X12574542Y-14693388D01*
X12617399Y-14693388D01*
X12645970Y-14707674D01*
X12660256Y-14736245D01*
X12660256Y-14893388D01*
X12660256Y-14736245D02*
X12674542Y-14707674D01*
X12703113Y-14693388D01*
X12745970Y-14693388D01*
X12774542Y-14707674D01*
X12788828Y-14736245D01*
X12788828Y-14893388D01*
X13374542Y-14579102D02*
X13117399Y-14964817D01*
X13760256Y-14593388D02*
X13788828Y-14593388D01*
X13817399Y-14607674D01*
X13831685Y-14621959D01*
X13845970Y-14650531D01*
X13860256Y-14707674D01*
X13860256Y-14779102D01*
X13845970Y-14836245D01*
X13831685Y-14864817D01*
X13817399Y-14879102D01*
X13788828Y-14893388D01*
X13760256Y-14893388D01*
X13731685Y-14879102D01*
X13717399Y-14864817D01*
X13703113Y-14836245D01*
X13688828Y-14779102D01*
X13688828Y-14707674D01*
X13703113Y-14650531D01*
X13717399Y-14621959D01*
X13731685Y-14607674D01*
X13760256Y-14593388D01*
X13988828Y-14864817D02*
X14003113Y-14879102D01*
X13988828Y-14893388D01*
X13974542Y-14879102D01*
X13988828Y-14864817D01*
X13988828Y-14893388D01*
X14188828Y-14593388D02*
X14217399Y-14593388D01*
X14245970Y-14607674D01*
X14260256Y-14621959D01*
X14274542Y-14650531D01*
X14288828Y-14707674D01*
X14288828Y-14779102D01*
X14274542Y-14836245D01*
X14260256Y-14864817D01*
X14245970Y-14879102D01*
X14217399Y-14893388D01*
X14188828Y-14893388D01*
X14160256Y-14879102D01*
X14145970Y-14864817D01*
X14131685Y-14836245D01*
X14117399Y-14779102D01*
X14117399Y-14707674D01*
X14131685Y-14650531D01*
X14145970Y-14621959D01*
X14160256Y-14607674D01*
X14188828Y-14593388D01*
X14574542Y-14893388D02*
X14403113Y-14893388D01*
X14488828Y-14893388D02*
X14488828Y-14593388D01*
X14460256Y-14636245D01*
X14431685Y-14664817D01*
X14403113Y-14679102D01*
X14845970Y-14593388D02*
X14703113Y-14593388D01*
X14688828Y-14736245D01*
X14703113Y-14721959D01*
X14731685Y-14707674D01*
X14803113Y-14707674D01*
X14831685Y-14721959D01*
X14845970Y-14736245D01*
X14860256Y-14764817D01*
X14860256Y-14836245D01*
X14845970Y-14864817D01*
X14831685Y-14879102D01*
X14803113Y-14893388D01*
X14731685Y-14893388D01*
X14703113Y-14879102D01*
X14688828Y-14864817D01*
X14960256Y-14593388D02*
X15160256Y-14593388D01*
X15031685Y-14893388D01*
X15260256Y-14593388D02*
X15260256Y-14650531D01*
X15374542Y-14593388D02*
X15374542Y-14650531D01*
X15817399Y-15007674D02*
X15803113Y-14993388D01*
X15774542Y-14950531D01*
X15760256Y-14921959D01*
X15745970Y-14879102D01*
X15731685Y-14807674D01*
X15731685Y-14750531D01*
X15745970Y-14679102D01*
X15760256Y-14636245D01*
X15774542Y-14607674D01*
X15803113Y-14564817D01*
X15817399Y-14550531D01*
X15903113Y-14593388D02*
X16103113Y-14593388D01*
X15974542Y-14893388D01*
X16374542Y-14893388D02*
X16203113Y-14893388D01*
X16288828Y-14893388D02*
X16288828Y-14593388D01*
X16260256Y-14636245D01*
X16231685Y-14664817D01*
X16203113Y-14679102D01*
X16731685Y-14893388D02*
X16731685Y-14593388D01*
X16860256Y-14893388D02*
X16860256Y-14736245D01*
X16845971Y-14707674D01*
X16817399Y-14693388D01*
X16774542Y-14693388D01*
X16745970Y-14707674D01*
X16731685Y-14721959D01*
X17045971Y-14893388D02*
X17017399Y-14879102D01*
X17003113Y-14864817D01*
X16988828Y-14836245D01*
X16988828Y-14750531D01*
X17003113Y-14721959D01*
X17017399Y-14707674D01*
X17045971Y-14693388D01*
X17088828Y-14693388D01*
X17117399Y-14707674D01*
X17131685Y-14721959D01*
X17145971Y-14750531D01*
X17145971Y-14836245D01*
X17131685Y-14864817D01*
X17117399Y-14879102D01*
X17088828Y-14893388D01*
X17045971Y-14893388D01*
X17317399Y-14893388D02*
X17288828Y-14879102D01*
X17274542Y-14850531D01*
X17274542Y-14593388D01*
X17545971Y-14879102D02*
X17517399Y-14893388D01*
X17460256Y-14893388D01*
X17431685Y-14879102D01*
X17417399Y-14850531D01*
X17417399Y-14736245D01*
X17431685Y-14707674D01*
X17460256Y-14693388D01*
X17517399Y-14693388D01*
X17545971Y-14707674D01*
X17560256Y-14736245D01*
X17560256Y-14764817D01*
X17417399Y-14793388D01*
X17674542Y-14879102D02*
X17703113Y-14893388D01*
X17760256Y-14893388D01*
X17788828Y-14879102D01*
X17803113Y-14850531D01*
X17803113Y-14836245D01*
X17788828Y-14807674D01*
X17760256Y-14793388D01*
X17717399Y-14793388D01*
X17688828Y-14779102D01*
X17674542Y-14750531D01*
X17674542Y-14736245D01*
X17688828Y-14707674D01*
X17717399Y-14693388D01*
X17760256Y-14693388D01*
X17788828Y-14707674D01*
X17903113Y-15007674D02*
X17917399Y-14993388D01*
X17945971Y-14950531D01*
X17960256Y-14921959D01*
X17974542Y-14879102D01*
X17988828Y-14807674D01*
X17988828Y-14750531D01*
X17974542Y-14679102D01*
X17960256Y-14636245D01*
X17945971Y-14607674D01*
X17917399Y-14564817D01*
X17903113Y-14550531D01*
X10559542Y-15153674D02*
G75*
G03*
X10559542Y-15153674I-30000J0D01*
G01*
X10903113Y-14989388D02*
X10931685Y-14989388D01*
X10960256Y-15003674D01*
X10974542Y-15017959D01*
X10988828Y-15046531D01*
X11003113Y-15103674D01*
X11003113Y-15175102D01*
X10988828Y-15232245D01*
X10974542Y-15260817D01*
X10960256Y-15275102D01*
X10931685Y-15289388D01*
X10903113Y-15289388D01*
X10874542Y-15275102D01*
X10860256Y-15260817D01*
X10845971Y-15232245D01*
X10831685Y-15175102D01*
X10831685Y-15103674D01*
X10845971Y-15046531D01*
X10860256Y-15017959D01*
X10874542Y-15003674D01*
X10903113Y-14989388D01*
X11131685Y-15260817D02*
X11145971Y-15275102D01*
X11131685Y-15289388D01*
X11117399Y-15275102D01*
X11131685Y-15260817D01*
X11131685Y-15289388D01*
X11403113Y-14989388D02*
X11345970Y-14989388D01*
X11317399Y-15003674D01*
X11303113Y-15017959D01*
X11274542Y-15060817D01*
X11260256Y-15117959D01*
X11260256Y-15232245D01*
X11274542Y-15260817D01*
X11288828Y-15275102D01*
X11317399Y-15289388D01*
X11374542Y-15289388D01*
X11403113Y-15275102D01*
X11417399Y-15260817D01*
X11431685Y-15232245D01*
X11431685Y-15160817D01*
X11417399Y-15132245D01*
X11403113Y-15117959D01*
X11374542Y-15103674D01*
X11317399Y-15103674D01*
X11288828Y-15117959D01*
X11274542Y-15132245D01*
X11260256Y-15160817D01*
X11617399Y-14989388D02*
X11645970Y-14989388D01*
X11674542Y-15003674D01*
X11688828Y-15017959D01*
X11703113Y-15046531D01*
X11717399Y-15103674D01*
X11717399Y-15175102D01*
X11703113Y-15232245D01*
X11688828Y-15260817D01*
X11674542Y-15275102D01*
X11645970Y-15289388D01*
X11617399Y-15289388D01*
X11588828Y-15275102D01*
X11574542Y-15260817D01*
X11560256Y-15232245D01*
X11545970Y-15175102D01*
X11545970Y-15103674D01*
X11560256Y-15046531D01*
X11574542Y-15017959D01*
X11588828Y-15003674D01*
X11617399Y-14989388D01*
X11903113Y-14989388D02*
X11931685Y-14989388D01*
X11960256Y-15003674D01*
X11974542Y-15017959D01*
X11988828Y-15046531D01*
X12003113Y-15103674D01*
X12003113Y-15175102D01*
X11988828Y-15232245D01*
X11974542Y-15260817D01*
X11960256Y-15275102D01*
X11931685Y-15289388D01*
X11903113Y-15289388D01*
X11874542Y-15275102D01*
X11860256Y-15260817D01*
X11845970Y-15232245D01*
X11831685Y-15175102D01*
X11831685Y-15103674D01*
X11845970Y-15046531D01*
X11860256Y-15017959D01*
X11874542Y-15003674D01*
X11903113Y-14989388D01*
X12131685Y-15289388D02*
X12131685Y-15089388D01*
X12131685Y-15117959D02*
X12145970Y-15103674D01*
X12174542Y-15089388D01*
X12217399Y-15089388D01*
X12245970Y-15103674D01*
X12260256Y-15132245D01*
X12260256Y-15289388D01*
X12260256Y-15132245D02*
X12274542Y-15103674D01*
X12303113Y-15089388D01*
X12345970Y-15089388D01*
X12374542Y-15103674D01*
X12388828Y-15132245D01*
X12388828Y-15289388D01*
X12531685Y-15289388D02*
X12531685Y-15089388D01*
X12531685Y-15117959D02*
X12545970Y-15103674D01*
X12574542Y-15089388D01*
X12617399Y-15089388D01*
X12645970Y-15103674D01*
X12660256Y-15132245D01*
X12660256Y-15289388D01*
X12660256Y-15132245D02*
X12674542Y-15103674D01*
X12703113Y-15089388D01*
X12745970Y-15089388D01*
X12774542Y-15103674D01*
X12788828Y-15132245D01*
X12788828Y-15289388D01*
X13374542Y-14975102D02*
X13117399Y-15360817D01*
X13760256Y-14989388D02*
X13788828Y-14989388D01*
X13817399Y-15003674D01*
X13831685Y-15017959D01*
X13845970Y-15046531D01*
X13860256Y-15103674D01*
X13860256Y-15175102D01*
X13845970Y-15232245D01*
X13831685Y-15260817D01*
X13817399Y-15275102D01*
X13788828Y-15289388D01*
X13760256Y-15289388D01*
X13731685Y-15275102D01*
X13717399Y-15260817D01*
X13703113Y-15232245D01*
X13688828Y-15175102D01*
X13688828Y-15103674D01*
X13703113Y-15046531D01*
X13717399Y-15017959D01*
X13731685Y-15003674D01*
X13760256Y-14989388D01*
X13988828Y-15260817D02*
X14003113Y-15275102D01*
X13988828Y-15289388D01*
X13974542Y-15275102D01*
X13988828Y-15260817D01*
X13988828Y-15289388D01*
X14188828Y-14989388D02*
X14217399Y-14989388D01*
X14245970Y-15003674D01*
X14260256Y-15017959D01*
X14274542Y-15046531D01*
X14288828Y-15103674D01*
X14288828Y-15175102D01*
X14274542Y-15232245D01*
X14260256Y-15260817D01*
X14245970Y-15275102D01*
X14217399Y-15289388D01*
X14188828Y-15289388D01*
X14160256Y-15275102D01*
X14145970Y-15260817D01*
X14131685Y-15232245D01*
X14117399Y-15175102D01*
X14117399Y-15103674D01*
X14131685Y-15046531D01*
X14145970Y-15017959D01*
X14160256Y-15003674D01*
X14188828Y-14989388D01*
X14403113Y-15017959D02*
X14417399Y-15003674D01*
X14445970Y-14989388D01*
X14517399Y-14989388D01*
X14545970Y-15003674D01*
X14560256Y-15017959D01*
X14574542Y-15046531D01*
X14574542Y-15075102D01*
X14560256Y-15117959D01*
X14388828Y-15289388D01*
X14574542Y-15289388D01*
X14674542Y-14989388D02*
X14860256Y-14989388D01*
X14760256Y-15103674D01*
X14803113Y-15103674D01*
X14831685Y-15117959D01*
X14845970Y-15132245D01*
X14860256Y-15160817D01*
X14860256Y-15232245D01*
X14845970Y-15260817D01*
X14831685Y-15275102D01*
X14803113Y-15289388D01*
X14717399Y-15289388D01*
X14688828Y-15275102D01*
X14674542Y-15260817D01*
X15117399Y-14989388D02*
X15060256Y-14989388D01*
X15031685Y-15003674D01*
X15017399Y-15017959D01*
X14988828Y-15060817D01*
X14974542Y-15117959D01*
X14974542Y-15232245D01*
X14988828Y-15260817D01*
X15003113Y-15275102D01*
X15031685Y-15289388D01*
X15088828Y-15289388D01*
X15117399Y-15275102D01*
X15131685Y-15260817D01*
X15145970Y-15232245D01*
X15145970Y-15160817D01*
X15131685Y-15132245D01*
X15117399Y-15117959D01*
X15088828Y-15103674D01*
X15031685Y-15103674D01*
X15003113Y-15117959D01*
X14988828Y-15132245D01*
X14974542Y-15160817D01*
X15260256Y-14989388D02*
X15260256Y-15046531D01*
X15374542Y-14989388D02*
X15374542Y-15046531D01*
X15817399Y-15403674D02*
X15803113Y-15389388D01*
X15774542Y-15346531D01*
X15760256Y-15317959D01*
X15745970Y-15275102D01*
X15731685Y-15203674D01*
X15731685Y-15146531D01*
X15745970Y-15075102D01*
X15760256Y-15032245D01*
X15774542Y-15003674D01*
X15803113Y-14960817D01*
X15817399Y-14946531D01*
X15917399Y-15017959D02*
X15931685Y-15003674D01*
X15960256Y-14989388D01*
X16031685Y-14989388D01*
X16060256Y-15003674D01*
X16074542Y-15017959D01*
X16088828Y-15046531D01*
X16088828Y-15075102D01*
X16074542Y-15117959D01*
X15903113Y-15289388D01*
X16088828Y-15289388D01*
X16445970Y-15289388D02*
X16445970Y-14989388D01*
X16574542Y-15289388D02*
X16574542Y-15132245D01*
X16560256Y-15103674D01*
X16531685Y-15089388D01*
X16488828Y-15089388D01*
X16460256Y-15103674D01*
X16445970Y-15117959D01*
X16760256Y-15289388D02*
X16731685Y-15275102D01*
X16717399Y-15260817D01*
X16703113Y-15232245D01*
X16703113Y-15146531D01*
X16717399Y-15117959D01*
X16731685Y-15103674D01*
X16760256Y-15089388D01*
X16803113Y-15089388D01*
X16831685Y-15103674D01*
X16845971Y-15117959D01*
X16860256Y-15146531D01*
X16860256Y-15232245D01*
X16845971Y-15260817D01*
X16831685Y-15275102D01*
X16803113Y-15289388D01*
X16760256Y-15289388D01*
X17031685Y-15289388D02*
X17003113Y-15275102D01*
X16988828Y-15246531D01*
X16988828Y-14989388D01*
X17260256Y-15275102D02*
X17231685Y-15289388D01*
X17174542Y-15289388D01*
X17145971Y-15275102D01*
X17131685Y-15246531D01*
X17131685Y-15132245D01*
X17145971Y-15103674D01*
X17174542Y-15089388D01*
X17231685Y-15089388D01*
X17260256Y-15103674D01*
X17274542Y-15132245D01*
X17274542Y-15160817D01*
X17131685Y-15189388D01*
X17388828Y-15275102D02*
X17417399Y-15289388D01*
X17474542Y-15289388D01*
X17503113Y-15275102D01*
X17517399Y-15246531D01*
X17517399Y-15232245D01*
X17503113Y-15203674D01*
X17474542Y-15189388D01*
X17431685Y-15189388D01*
X17403113Y-15175102D01*
X17388828Y-15146531D01*
X17388828Y-15132245D01*
X17403113Y-15103674D01*
X17431685Y-15089388D01*
X17474542Y-15089388D01*
X17503113Y-15103674D01*
X17874542Y-15175102D02*
X18103113Y-15175102D01*
X17988828Y-15289388D02*
X17988828Y-15060817D01*
X18603113Y-15089388D02*
X18603113Y-15289388D01*
X18531685Y-14975102D02*
X18460256Y-15189388D01*
X18645971Y-15189388D01*
X18974542Y-15275102D02*
X19003113Y-15289388D01*
X19060256Y-15289388D01*
X19088828Y-15275102D01*
X19103113Y-15246531D01*
X19103113Y-15232245D01*
X19088828Y-15203674D01*
X19060256Y-15189388D01*
X19017399Y-15189388D01*
X18988828Y-15175102D01*
X18974542Y-15146531D01*
X18974542Y-15132245D01*
X18988828Y-15103674D01*
X19017399Y-15089388D01*
X19060256Y-15089388D01*
X19088828Y-15103674D01*
X19274542Y-15289388D02*
X19245971Y-15275102D01*
X19231685Y-15246531D01*
X19231685Y-14989388D01*
X19431685Y-15289388D02*
X19403113Y-15275102D01*
X19388828Y-15260817D01*
X19374542Y-15232245D01*
X19374542Y-15146531D01*
X19388828Y-15117959D01*
X19403113Y-15103674D01*
X19431685Y-15089388D01*
X19474542Y-15089388D01*
X19503113Y-15103674D01*
X19517399Y-15117959D01*
X19531685Y-15146531D01*
X19531685Y-15232245D01*
X19517399Y-15260817D01*
X19503113Y-15275102D01*
X19474542Y-15289388D01*
X19431685Y-15289388D01*
X19617399Y-15089388D02*
X19731685Y-15089388D01*
X19660256Y-14989388D02*
X19660256Y-15246531D01*
X19674542Y-15275102D01*
X19703113Y-15289388D01*
X19731685Y-15289388D01*
X19817399Y-15275102D02*
X19845971Y-15289388D01*
X19903113Y-15289388D01*
X19931685Y-15275102D01*
X19945971Y-15246531D01*
X19945971Y-15232245D01*
X19931685Y-15203674D01*
X19903113Y-15189388D01*
X19860256Y-15189388D01*
X19831685Y-15175102D01*
X19817399Y-15146531D01*
X19817399Y-15132245D01*
X19831685Y-15103674D01*
X19860256Y-15089388D01*
X19903113Y-15089388D01*
X19931685Y-15103674D01*
X20045971Y-15403674D02*
X20060256Y-15389388D01*
X20088828Y-15346531D01*
X20103113Y-15317959D01*
X20117399Y-15275102D01*
X20131685Y-15203674D01*
X20131685Y-15146531D01*
X20117399Y-15075102D01*
X20103113Y-15032245D01*
X20088828Y-15003674D01*
X20060256Y-14960817D01*
X20045971Y-14946531D01*
X10524542Y-15514674D02*
X10524542Y-15584674D01*
X10489542Y-15549674D02*
X10559542Y-15549674D01*
X10903113Y-15385388D02*
X10931685Y-15385388D01*
X10960256Y-15399674D01*
X10974542Y-15413959D01*
X10988828Y-15442531D01*
X11003113Y-15499674D01*
X11003113Y-15571102D01*
X10988828Y-15628245D01*
X10974542Y-15656817D01*
X10960256Y-15671102D01*
X10931685Y-15685388D01*
X10903113Y-15685388D01*
X10874542Y-15671102D01*
X10860256Y-15656817D01*
X10845971Y-15628245D01*
X10831685Y-15571102D01*
X10831685Y-15499674D01*
X10845971Y-15442531D01*
X10860256Y-15413959D01*
X10874542Y-15399674D01*
X10903113Y-15385388D01*
X11131685Y-15656817D02*
X11145971Y-15671102D01*
X11131685Y-15685388D01*
X11117399Y-15671102D01*
X11131685Y-15656817D01*
X11131685Y-15685388D01*
X11245970Y-15385388D02*
X11445970Y-15385388D01*
X11317399Y-15685388D01*
X11617399Y-15385388D02*
X11645970Y-15385388D01*
X11674542Y-15399674D01*
X11688828Y-15413959D01*
X11703113Y-15442531D01*
X11717399Y-15499674D01*
X11717399Y-15571102D01*
X11703113Y-15628245D01*
X11688828Y-15656817D01*
X11674542Y-15671102D01*
X11645970Y-15685388D01*
X11617399Y-15685388D01*
X11588828Y-15671102D01*
X11574542Y-15656817D01*
X11560256Y-15628245D01*
X11545970Y-15571102D01*
X11545970Y-15499674D01*
X11560256Y-15442531D01*
X11574542Y-15413959D01*
X11588828Y-15399674D01*
X11617399Y-15385388D01*
X11903113Y-15385388D02*
X11931685Y-15385388D01*
X11960256Y-15399674D01*
X11974542Y-15413959D01*
X11988828Y-15442531D01*
X12003113Y-15499674D01*
X12003113Y-15571102D01*
X11988828Y-15628245D01*
X11974542Y-15656817D01*
X11960256Y-15671102D01*
X11931685Y-15685388D01*
X11903113Y-15685388D01*
X11874542Y-15671102D01*
X11860256Y-15656817D01*
X11845970Y-15628245D01*
X11831685Y-15571102D01*
X11831685Y-15499674D01*
X11845970Y-15442531D01*
X11860256Y-15413959D01*
X11874542Y-15399674D01*
X11903113Y-15385388D01*
X12131685Y-15685388D02*
X12131685Y-15485388D01*
X12131685Y-15513959D02*
X12145970Y-15499674D01*
X12174542Y-15485388D01*
X12217399Y-15485388D01*
X12245970Y-15499674D01*
X12260256Y-15528245D01*
X12260256Y-15685388D01*
X12260256Y-15528245D02*
X12274542Y-15499674D01*
X12303113Y-15485388D01*
X12345970Y-15485388D01*
X12374542Y-15499674D01*
X12388828Y-15528245D01*
X12388828Y-15685388D01*
X12531685Y-15685388D02*
X12531685Y-15485388D01*
X12531685Y-15513959D02*
X12545970Y-15499674D01*
X12574542Y-15485388D01*
X12617399Y-15485388D01*
X12645970Y-15499674D01*
X12660256Y-15528245D01*
X12660256Y-15685388D01*
X12660256Y-15528245D02*
X12674542Y-15499674D01*
X12703113Y-15485388D01*
X12745970Y-15485388D01*
X12774542Y-15499674D01*
X12788828Y-15528245D01*
X12788828Y-15685388D01*
X13374542Y-15371102D02*
X13117399Y-15756817D01*
X13760256Y-15385388D02*
X13788828Y-15385388D01*
X13817399Y-15399674D01*
X13831685Y-15413959D01*
X13845970Y-15442531D01*
X13860256Y-15499674D01*
X13860256Y-15571102D01*
X13845970Y-15628245D01*
X13831685Y-15656817D01*
X13817399Y-15671102D01*
X13788828Y-15685388D01*
X13760256Y-15685388D01*
X13731685Y-15671102D01*
X13717399Y-15656817D01*
X13703113Y-15628245D01*
X13688828Y-15571102D01*
X13688828Y-15499674D01*
X13703113Y-15442531D01*
X13717399Y-15413959D01*
X13731685Y-15399674D01*
X13760256Y-15385388D01*
X13988828Y-15656817D02*
X14003113Y-15671102D01*
X13988828Y-15685388D01*
X13974542Y-15671102D01*
X13988828Y-15656817D01*
X13988828Y-15685388D01*
X14188828Y-15385388D02*
X14217399Y-15385388D01*
X14245970Y-15399674D01*
X14260256Y-15413959D01*
X14274542Y-15442531D01*
X14288828Y-15499674D01*
X14288828Y-15571102D01*
X14274542Y-15628245D01*
X14260256Y-15656817D01*
X14245970Y-15671102D01*
X14217399Y-15685388D01*
X14188828Y-15685388D01*
X14160256Y-15671102D01*
X14145970Y-15656817D01*
X14131685Y-15628245D01*
X14117399Y-15571102D01*
X14117399Y-15499674D01*
X14131685Y-15442531D01*
X14145970Y-15413959D01*
X14160256Y-15399674D01*
X14188828Y-15385388D01*
X14403113Y-15413959D02*
X14417399Y-15399674D01*
X14445970Y-15385388D01*
X14517399Y-15385388D01*
X14545970Y-15399674D01*
X14560256Y-15413959D01*
X14574542Y-15442531D01*
X14574542Y-15471102D01*
X14560256Y-15513959D01*
X14388828Y-15685388D01*
X14574542Y-15685388D01*
X14674542Y-15385388D02*
X14874542Y-15385388D01*
X14745970Y-15685388D01*
X15117399Y-15385388D02*
X15060256Y-15385388D01*
X15031685Y-15399674D01*
X15017399Y-15413959D01*
X14988828Y-15456817D01*
X14974542Y-15513959D01*
X14974542Y-15628245D01*
X14988828Y-15656817D01*
X15003113Y-15671102D01*
X15031685Y-15685388D01*
X15088828Y-15685388D01*
X15117399Y-15671102D01*
X15131685Y-15656817D01*
X15145970Y-15628245D01*
X15145970Y-15556817D01*
X15131685Y-15528245D01*
X15117399Y-15513959D01*
X15088828Y-15499674D01*
X15031685Y-15499674D01*
X15003113Y-15513959D01*
X14988828Y-15528245D01*
X14974542Y-15556817D01*
X15260256Y-15385388D02*
X15260256Y-15442531D01*
X15374542Y-15385388D02*
X15374542Y-15442531D01*
X15817399Y-15799674D02*
X15803113Y-15785388D01*
X15774542Y-15742531D01*
X15760256Y-15713959D01*
X15745970Y-15671102D01*
X15731685Y-15599674D01*
X15731685Y-15542531D01*
X15745970Y-15471102D01*
X15760256Y-15428245D01*
X15774542Y-15399674D01*
X15803113Y-15356817D01*
X15817399Y-15342531D01*
X16088828Y-15685388D02*
X15917399Y-15685388D01*
X16003113Y-15685388D02*
X16003113Y-15385388D01*
X15974542Y-15428245D01*
X15945970Y-15456817D01*
X15917399Y-15471102D01*
X16345970Y-15485388D02*
X16345970Y-15685388D01*
X16274542Y-15371102D02*
X16203113Y-15585388D01*
X16388828Y-15585388D01*
X16731685Y-15685388D02*
X16731685Y-15385388D01*
X16860256Y-15685388D02*
X16860256Y-15528245D01*
X16845971Y-15499674D01*
X16817399Y-15485388D01*
X16774542Y-15485388D01*
X16745970Y-15499674D01*
X16731685Y-15513959D01*
X17045971Y-15685388D02*
X17017399Y-15671102D01*
X17003113Y-15656817D01*
X16988828Y-15628245D01*
X16988828Y-15542531D01*
X17003113Y-15513959D01*
X17017399Y-15499674D01*
X17045971Y-15485388D01*
X17088828Y-15485388D01*
X17117399Y-15499674D01*
X17131685Y-15513959D01*
X17145971Y-15542531D01*
X17145971Y-15628245D01*
X17131685Y-15656817D01*
X17117399Y-15671102D01*
X17088828Y-15685388D01*
X17045971Y-15685388D01*
X17317399Y-15685388D02*
X17288828Y-15671102D01*
X17274542Y-15642531D01*
X17274542Y-15385388D01*
X17545971Y-15671102D02*
X17517399Y-15685388D01*
X17460256Y-15685388D01*
X17431685Y-15671102D01*
X17417399Y-15642531D01*
X17417399Y-15528245D01*
X17431685Y-15499674D01*
X17460256Y-15485388D01*
X17517399Y-15485388D01*
X17545971Y-15499674D01*
X17560256Y-15528245D01*
X17560256Y-15556817D01*
X17417399Y-15585388D01*
X17674542Y-15671102D02*
X17703113Y-15685388D01*
X17760256Y-15685388D01*
X17788828Y-15671102D01*
X17803113Y-15642531D01*
X17803113Y-15628245D01*
X17788828Y-15599674D01*
X17760256Y-15585388D01*
X17717399Y-15585388D01*
X17688828Y-15571102D01*
X17674542Y-15542531D01*
X17674542Y-15528245D01*
X17688828Y-15499674D01*
X17717399Y-15485388D01*
X17760256Y-15485388D01*
X17788828Y-15499674D01*
X17903113Y-15799674D02*
X17917399Y-15785388D01*
X17945971Y-15742531D01*
X17960256Y-15713959D01*
X17974542Y-15671102D01*
X17988828Y-15599674D01*
X17988828Y-15542531D01*
X17974542Y-15471102D01*
X17960256Y-15428245D01*
X17945971Y-15399674D01*
X17917399Y-15356817D01*
X17903113Y-15342531D01*
X10547827Y-15973958D02*
X10547827Y-15917389D01*
X10491258Y-15917389D01*
X10491258Y-15973958D01*
X10547827Y-15973958D01*
X10903113Y-15781388D02*
X10931685Y-15781388D01*
X10960256Y-15795674D01*
X10974542Y-15809959D01*
X10988828Y-15838531D01*
X11003113Y-15895674D01*
X11003113Y-15967102D01*
X10988828Y-16024245D01*
X10974542Y-16052817D01*
X10960256Y-16067102D01*
X10931685Y-16081388D01*
X10903113Y-16081388D01*
X10874542Y-16067102D01*
X10860256Y-16052817D01*
X10845971Y-16024245D01*
X10831685Y-15967102D01*
X10831685Y-15895674D01*
X10845971Y-15838531D01*
X10860256Y-15809959D01*
X10874542Y-15795674D01*
X10903113Y-15781388D01*
X11131685Y-16052817D02*
X11145971Y-16067102D01*
X11131685Y-16081388D01*
X11117399Y-16067102D01*
X11131685Y-16052817D01*
X11131685Y-16081388D01*
X11317399Y-15909959D02*
X11288828Y-15895674D01*
X11274542Y-15881388D01*
X11260256Y-15852817D01*
X11260256Y-15838531D01*
X11274542Y-15809959D01*
X11288828Y-15795674D01*
X11317399Y-15781388D01*
X11374542Y-15781388D01*
X11403113Y-15795674D01*
X11417399Y-15809959D01*
X11431685Y-15838531D01*
X11431685Y-15852817D01*
X11417399Y-15881388D01*
X11403113Y-15895674D01*
X11374542Y-15909959D01*
X11317399Y-15909959D01*
X11288828Y-15924245D01*
X11274542Y-15938531D01*
X11260256Y-15967102D01*
X11260256Y-16024245D01*
X11274542Y-16052817D01*
X11288828Y-16067102D01*
X11317399Y-16081388D01*
X11374542Y-16081388D01*
X11403113Y-16067102D01*
X11417399Y-16052817D01*
X11431685Y-16024245D01*
X11431685Y-15967102D01*
X11417399Y-15938531D01*
X11403113Y-15924245D01*
X11374542Y-15909959D01*
X11617399Y-15781388D02*
X11645970Y-15781388D01*
X11674542Y-15795674D01*
X11688828Y-15809959D01*
X11703113Y-15838531D01*
X11717399Y-15895674D01*
X11717399Y-15967102D01*
X11703113Y-16024245D01*
X11688828Y-16052817D01*
X11674542Y-16067102D01*
X11645970Y-16081388D01*
X11617399Y-16081388D01*
X11588828Y-16067102D01*
X11574542Y-16052817D01*
X11560256Y-16024245D01*
X11545970Y-15967102D01*
X11545970Y-15895674D01*
X11560256Y-15838531D01*
X11574542Y-15809959D01*
X11588828Y-15795674D01*
X11617399Y-15781388D01*
X11903113Y-15781388D02*
X11931685Y-15781388D01*
X11960256Y-15795674D01*
X11974542Y-15809959D01*
X11988828Y-15838531D01*
X12003113Y-15895674D01*
X12003113Y-15967102D01*
X11988828Y-16024245D01*
X11974542Y-16052817D01*
X11960256Y-16067102D01*
X11931685Y-16081388D01*
X11903113Y-16081388D01*
X11874542Y-16067102D01*
X11860256Y-16052817D01*
X11845970Y-16024245D01*
X11831685Y-15967102D01*
X11831685Y-15895674D01*
X11845970Y-15838531D01*
X11860256Y-15809959D01*
X11874542Y-15795674D01*
X11903113Y-15781388D01*
X12131685Y-16081388D02*
X12131685Y-15881388D01*
X12131685Y-15909959D02*
X12145970Y-15895674D01*
X12174542Y-15881388D01*
X12217399Y-15881388D01*
X12245970Y-15895674D01*
X12260256Y-15924245D01*
X12260256Y-16081388D01*
X12260256Y-15924245D02*
X12274542Y-15895674D01*
X12303113Y-15881388D01*
X12345970Y-15881388D01*
X12374542Y-15895674D01*
X12388828Y-15924245D01*
X12388828Y-16081388D01*
X12531685Y-16081388D02*
X12531685Y-15881388D01*
X12531685Y-15909959D02*
X12545970Y-15895674D01*
X12574542Y-15881388D01*
X12617399Y-15881388D01*
X12645970Y-15895674D01*
X12660256Y-15924245D01*
X12660256Y-16081388D01*
X12660256Y-15924245D02*
X12674542Y-15895674D01*
X12703113Y-15881388D01*
X12745970Y-15881388D01*
X12774542Y-15895674D01*
X12788828Y-15924245D01*
X12788828Y-16081388D01*
X13374542Y-15767102D02*
X13117399Y-16152817D01*
X13760256Y-15781388D02*
X13788828Y-15781388D01*
X13817399Y-15795674D01*
X13831685Y-15809959D01*
X13845970Y-15838531D01*
X13860256Y-15895674D01*
X13860256Y-15967102D01*
X13845970Y-16024245D01*
X13831685Y-16052817D01*
X13817399Y-16067102D01*
X13788828Y-16081388D01*
X13760256Y-16081388D01*
X13731685Y-16067102D01*
X13717399Y-16052817D01*
X13703113Y-16024245D01*
X13688828Y-15967102D01*
X13688828Y-15895674D01*
X13703113Y-15838531D01*
X13717399Y-15809959D01*
X13731685Y-15795674D01*
X13760256Y-15781388D01*
X13988828Y-16052817D02*
X14003113Y-16067102D01*
X13988828Y-16081388D01*
X13974542Y-16067102D01*
X13988828Y-16052817D01*
X13988828Y-16081388D01*
X14188828Y-15781388D02*
X14217399Y-15781388D01*
X14245970Y-15795674D01*
X14260256Y-15809959D01*
X14274542Y-15838531D01*
X14288828Y-15895674D01*
X14288828Y-15967102D01*
X14274542Y-16024245D01*
X14260256Y-16052817D01*
X14245970Y-16067102D01*
X14217399Y-16081388D01*
X14188828Y-16081388D01*
X14160256Y-16067102D01*
X14145970Y-16052817D01*
X14131685Y-16024245D01*
X14117399Y-15967102D01*
X14117399Y-15895674D01*
X14131685Y-15838531D01*
X14145970Y-15809959D01*
X14160256Y-15795674D01*
X14188828Y-15781388D01*
X14388828Y-15781388D02*
X14574542Y-15781388D01*
X14474542Y-15895674D01*
X14517399Y-15895674D01*
X14545970Y-15909959D01*
X14560256Y-15924245D01*
X14574542Y-15952817D01*
X14574542Y-16024245D01*
X14560256Y-16052817D01*
X14545970Y-16067102D01*
X14517399Y-16081388D01*
X14431685Y-16081388D01*
X14403113Y-16067102D01*
X14388828Y-16052817D01*
X14860256Y-16081388D02*
X14688828Y-16081388D01*
X14774542Y-16081388D02*
X14774542Y-15781388D01*
X14745970Y-15824245D01*
X14717399Y-15852817D01*
X14688828Y-15867102D01*
X15131685Y-15781388D02*
X14988828Y-15781388D01*
X14974542Y-15924245D01*
X14988828Y-15909959D01*
X15017399Y-15895674D01*
X15088828Y-15895674D01*
X15117399Y-15909959D01*
X15131685Y-15924245D01*
X15145970Y-15952817D01*
X15145970Y-16024245D01*
X15131685Y-16052817D01*
X15117399Y-16067102D01*
X15088828Y-16081388D01*
X15017399Y-16081388D01*
X14988828Y-16067102D01*
X14974542Y-16052817D01*
X15260256Y-15781388D02*
X15260256Y-15838531D01*
X15374542Y-15781388D02*
X15374542Y-15838531D01*
X15817399Y-16195674D02*
X15803113Y-16181388D01*
X15774542Y-16138531D01*
X15760256Y-16109959D01*
X15745970Y-16067102D01*
X15731685Y-15995674D01*
X15731685Y-15938531D01*
X15745970Y-15867102D01*
X15760256Y-15824245D01*
X15774542Y-15795674D01*
X15803113Y-15752817D01*
X15817399Y-15738531D01*
X15903113Y-15781388D02*
X16103113Y-15781388D01*
X15974542Y-16081388D01*
X16345970Y-15781388D02*
X16288828Y-15781388D01*
X16260256Y-15795674D01*
X16245970Y-15809959D01*
X16217399Y-15852817D01*
X16203113Y-15909959D01*
X16203113Y-16024245D01*
X16217399Y-16052817D01*
X16231685Y-16067102D01*
X16260256Y-16081388D01*
X16317399Y-16081388D01*
X16345970Y-16067102D01*
X16360256Y-16052817D01*
X16374542Y-16024245D01*
X16374542Y-15952817D01*
X16360256Y-15924245D01*
X16345970Y-15909959D01*
X16317399Y-15895674D01*
X16260256Y-15895674D01*
X16231685Y-15909959D01*
X16217399Y-15924245D01*
X16203113Y-15952817D01*
X16731685Y-16081388D02*
X16731685Y-15781388D01*
X16860256Y-16081388D02*
X16860256Y-15924245D01*
X16845971Y-15895674D01*
X16817399Y-15881388D01*
X16774542Y-15881388D01*
X16745970Y-15895674D01*
X16731685Y-15909959D01*
X17045971Y-16081388D02*
X17017399Y-16067102D01*
X17003113Y-16052817D01*
X16988828Y-16024245D01*
X16988828Y-15938531D01*
X17003113Y-15909959D01*
X17017399Y-15895674D01*
X17045971Y-15881388D01*
X17088828Y-15881388D01*
X17117399Y-15895674D01*
X17131685Y-15909959D01*
X17145971Y-15938531D01*
X17145971Y-16024245D01*
X17131685Y-16052817D01*
X17117399Y-16067102D01*
X17088828Y-16081388D01*
X17045971Y-16081388D01*
X17317399Y-16081388D02*
X17288828Y-16067102D01*
X17274542Y-16038531D01*
X17274542Y-15781388D01*
X17545971Y-16067102D02*
X17517399Y-16081388D01*
X17460256Y-16081388D01*
X17431685Y-16067102D01*
X17417399Y-16038531D01*
X17417399Y-15924245D01*
X17431685Y-15895674D01*
X17460256Y-15881388D01*
X17517399Y-15881388D01*
X17545971Y-15895674D01*
X17560256Y-15924245D01*
X17560256Y-15952817D01*
X17417399Y-15981388D01*
X17674542Y-16067102D02*
X17703113Y-16081388D01*
X17760256Y-16081388D01*
X17788828Y-16067102D01*
X17803113Y-16038531D01*
X17803113Y-16024245D01*
X17788828Y-15995674D01*
X17760256Y-15981388D01*
X17717399Y-15981388D01*
X17688828Y-15967102D01*
X17674542Y-15938531D01*
X17674542Y-15924245D01*
X17688828Y-15895674D01*
X17717399Y-15881388D01*
X17760256Y-15881388D01*
X17788828Y-15895674D01*
X17903113Y-16195674D02*
X17917399Y-16181388D01*
X17945971Y-16138531D01*
X17960256Y-16109959D01*
X17974542Y-16067102D01*
X17988828Y-15995674D01*
X17988828Y-15938531D01*
X17974542Y-15867102D01*
X17960256Y-15824245D01*
X17945971Y-15795674D01*
X17917399Y-15752817D01*
X17903113Y-15738531D01*
X10509542Y-16391674D02*
X10559542Y-16341674D01*
X10509542Y-16291674D01*
X10459542Y-16341674D01*
X10509542Y-16391674D01*
X11003113Y-16477388D02*
X10831685Y-16477388D01*
X10917399Y-16477388D02*
X10917399Y-16177388D01*
X10888828Y-16220245D01*
X10860256Y-16248817D01*
X10831685Y-16263102D01*
X11131685Y-16448817D02*
X11145971Y-16463102D01*
X11131685Y-16477388D01*
X11117399Y-16463102D01*
X11131685Y-16448817D01*
X11131685Y-16477388D01*
X11331685Y-16177388D02*
X11360256Y-16177388D01*
X11388828Y-16191674D01*
X11403113Y-16205959D01*
X11417399Y-16234531D01*
X11431685Y-16291674D01*
X11431685Y-16363102D01*
X11417399Y-16420245D01*
X11403113Y-16448817D01*
X11388828Y-16463102D01*
X11360256Y-16477388D01*
X11331685Y-16477388D01*
X11303113Y-16463102D01*
X11288828Y-16448817D01*
X11274542Y-16420245D01*
X11260256Y-16363102D01*
X11260256Y-16291674D01*
X11274542Y-16234531D01*
X11288828Y-16205959D01*
X11303113Y-16191674D01*
X11331685Y-16177388D01*
X11617399Y-16177388D02*
X11645970Y-16177388D01*
X11674542Y-16191674D01*
X11688828Y-16205959D01*
X11703113Y-16234531D01*
X11717399Y-16291674D01*
X11717399Y-16363102D01*
X11703113Y-16420245D01*
X11688828Y-16448817D01*
X11674542Y-16463102D01*
X11645970Y-16477388D01*
X11617399Y-16477388D01*
X11588828Y-16463102D01*
X11574542Y-16448817D01*
X11560256Y-16420245D01*
X11545970Y-16363102D01*
X11545970Y-16291674D01*
X11560256Y-16234531D01*
X11574542Y-16205959D01*
X11588828Y-16191674D01*
X11617399Y-16177388D01*
X11903113Y-16177388D02*
X11931685Y-16177388D01*
X11960256Y-16191674D01*
X11974542Y-16205959D01*
X11988828Y-16234531D01*
X12003113Y-16291674D01*
X12003113Y-16363102D01*
X11988828Y-16420245D01*
X11974542Y-16448817D01*
X11960256Y-16463102D01*
X11931685Y-16477388D01*
X11903113Y-16477388D01*
X11874542Y-16463102D01*
X11860256Y-16448817D01*
X11845970Y-16420245D01*
X11831685Y-16363102D01*
X11831685Y-16291674D01*
X11845970Y-16234531D01*
X11860256Y-16205959D01*
X11874542Y-16191674D01*
X11903113Y-16177388D01*
X12131685Y-16477388D02*
X12131685Y-16277388D01*
X12131685Y-16305959D02*
X12145970Y-16291674D01*
X12174542Y-16277388D01*
X12217399Y-16277388D01*
X12245970Y-16291674D01*
X12260256Y-16320245D01*
X12260256Y-16477388D01*
X12260256Y-16320245D02*
X12274542Y-16291674D01*
X12303113Y-16277388D01*
X12345970Y-16277388D01*
X12374542Y-16291674D01*
X12388828Y-16320245D01*
X12388828Y-16477388D01*
X12531685Y-16477388D02*
X12531685Y-16277388D01*
X12531685Y-16305959D02*
X12545970Y-16291674D01*
X12574542Y-16277388D01*
X12617399Y-16277388D01*
X12645970Y-16291674D01*
X12660256Y-16320245D01*
X12660256Y-16477388D01*
X12660256Y-16320245D02*
X12674542Y-16291674D01*
X12703113Y-16277388D01*
X12745970Y-16277388D01*
X12774542Y-16291674D01*
X12788828Y-16320245D01*
X12788828Y-16477388D01*
X13374542Y-16163102D02*
X13117399Y-16548817D01*
X13760256Y-16177388D02*
X13788828Y-16177388D01*
X13817399Y-16191674D01*
X13831685Y-16205959D01*
X13845970Y-16234531D01*
X13860256Y-16291674D01*
X13860256Y-16363102D01*
X13845970Y-16420245D01*
X13831685Y-16448817D01*
X13817399Y-16463102D01*
X13788828Y-16477388D01*
X13760256Y-16477388D01*
X13731685Y-16463102D01*
X13717399Y-16448817D01*
X13703113Y-16420245D01*
X13688828Y-16363102D01*
X13688828Y-16291674D01*
X13703113Y-16234531D01*
X13717399Y-16205959D01*
X13731685Y-16191674D01*
X13760256Y-16177388D01*
X13988828Y-16448817D02*
X14003113Y-16463102D01*
X13988828Y-16477388D01*
X13974542Y-16463102D01*
X13988828Y-16448817D01*
X13988828Y-16477388D01*
X14188828Y-16177388D02*
X14217399Y-16177388D01*
X14245970Y-16191674D01*
X14260256Y-16205959D01*
X14274542Y-16234531D01*
X14288828Y-16291674D01*
X14288828Y-16363102D01*
X14274542Y-16420245D01*
X14260256Y-16448817D01*
X14245970Y-16463102D01*
X14217399Y-16477388D01*
X14188828Y-16477388D01*
X14160256Y-16463102D01*
X14145970Y-16448817D01*
X14131685Y-16420245D01*
X14117399Y-16363102D01*
X14117399Y-16291674D01*
X14131685Y-16234531D01*
X14145970Y-16205959D01*
X14160256Y-16191674D01*
X14188828Y-16177388D01*
X14388828Y-16177388D02*
X14574542Y-16177388D01*
X14474542Y-16291674D01*
X14517399Y-16291674D01*
X14545970Y-16305959D01*
X14560256Y-16320245D01*
X14574542Y-16348817D01*
X14574542Y-16420245D01*
X14560256Y-16448817D01*
X14545970Y-16463102D01*
X14517399Y-16477388D01*
X14431685Y-16477388D01*
X14403113Y-16463102D01*
X14388828Y-16448817D01*
X14717399Y-16477388D02*
X14774542Y-16477388D01*
X14803113Y-16463102D01*
X14817399Y-16448817D01*
X14845970Y-16405959D01*
X14860256Y-16348817D01*
X14860256Y-16234531D01*
X14845970Y-16205959D01*
X14831685Y-16191674D01*
X14803113Y-16177388D01*
X14745970Y-16177388D01*
X14717399Y-16191674D01*
X14703113Y-16205959D01*
X14688828Y-16234531D01*
X14688828Y-16305959D01*
X14703113Y-16334531D01*
X14717399Y-16348817D01*
X14745970Y-16363102D01*
X14803113Y-16363102D01*
X14831685Y-16348817D01*
X14845970Y-16334531D01*
X14860256Y-16305959D01*
X15117399Y-16277388D02*
X15117399Y-16477388D01*
X15045970Y-16163102D02*
X14974542Y-16377388D01*
X15160256Y-16377388D01*
X15260256Y-16177388D02*
X15260256Y-16234531D01*
X15374542Y-16177388D02*
X15374542Y-16234531D01*
X15817399Y-16591674D02*
X15803113Y-16577388D01*
X15774542Y-16534531D01*
X15760256Y-16505959D01*
X15745970Y-16463102D01*
X15731685Y-16391674D01*
X15731685Y-16334531D01*
X15745970Y-16263102D01*
X15760256Y-16220245D01*
X15774542Y-16191674D01*
X15803113Y-16148817D01*
X15817399Y-16134531D01*
X16088828Y-16477388D02*
X15917399Y-16477388D01*
X16003113Y-16477388D02*
X16003113Y-16177388D01*
X15974542Y-16220245D01*
X15945970Y-16248817D01*
X15917399Y-16263102D01*
X16374542Y-16477388D02*
X16203113Y-16477388D01*
X16288828Y-16477388D02*
X16288828Y-16177388D01*
X16260256Y-16220245D01*
X16231685Y-16248817D01*
X16203113Y-16263102D01*
X16731685Y-16477388D02*
X16731685Y-16177388D01*
X16860256Y-16477388D02*
X16860256Y-16320245D01*
X16845971Y-16291674D01*
X16817399Y-16277388D01*
X16774542Y-16277388D01*
X16745970Y-16291674D01*
X16731685Y-16305959D01*
X17045971Y-16477388D02*
X17017399Y-16463102D01*
X17003113Y-16448817D01*
X16988828Y-16420245D01*
X16988828Y-16334531D01*
X17003113Y-16305959D01*
X17017399Y-16291674D01*
X17045971Y-16277388D01*
X17088828Y-16277388D01*
X17117399Y-16291674D01*
X17131685Y-16305959D01*
X17145971Y-16334531D01*
X17145971Y-16420245D01*
X17131685Y-16448817D01*
X17117399Y-16463102D01*
X17088828Y-16477388D01*
X17045971Y-16477388D01*
X17317399Y-16477388D02*
X17288828Y-16463102D01*
X17274542Y-16434531D01*
X17274542Y-16177388D01*
X17545971Y-16463102D02*
X17517399Y-16477388D01*
X17460256Y-16477388D01*
X17431685Y-16463102D01*
X17417399Y-16434531D01*
X17417399Y-16320245D01*
X17431685Y-16291674D01*
X17460256Y-16277388D01*
X17517399Y-16277388D01*
X17545971Y-16291674D01*
X17560256Y-16320245D01*
X17560256Y-16348817D01*
X17417399Y-16377388D01*
X17674542Y-16463102D02*
X17703113Y-16477388D01*
X17760256Y-16477388D01*
X17788828Y-16463102D01*
X17803113Y-16434531D01*
X17803113Y-16420245D01*
X17788828Y-16391674D01*
X17760256Y-16377388D01*
X17717399Y-16377388D01*
X17688828Y-16363102D01*
X17674542Y-16334531D01*
X17674542Y-16320245D01*
X17688828Y-16291674D01*
X17717399Y-16277388D01*
X17760256Y-16277388D01*
X17788828Y-16291674D01*
X17903113Y-16591674D02*
X17917399Y-16577388D01*
X17945971Y-16534531D01*
X17960256Y-16505959D01*
X17974542Y-16463102D01*
X17988828Y-16391674D01*
X17988828Y-16334531D01*
X17974542Y-16263102D01*
X17960256Y-16220245D01*
X17945971Y-16191674D01*
X17917399Y-16148817D01*
X17903113Y-16134531D01*
X10449542Y-16682674D02*
X10559542Y-16792674D01*
X10559542Y-16682674D02*
X10449542Y-16792674D01*
X10559542Y-16737674D02*
G75*
G03*
X10559542Y-16737674I-55000J0D01*
G01*
X11003113Y-16873388D02*
X10831685Y-16873388D01*
X10917399Y-16873388D02*
X10917399Y-16573388D01*
X10888828Y-16616245D01*
X10860256Y-16644817D01*
X10831685Y-16659102D01*
X11131685Y-16844817D02*
X11145971Y-16859102D01*
X11131685Y-16873388D01*
X11117399Y-16859102D01*
X11131685Y-16844817D01*
X11131685Y-16873388D01*
X11431685Y-16873388D02*
X11260256Y-16873388D01*
X11345970Y-16873388D02*
X11345970Y-16573388D01*
X11317399Y-16616245D01*
X11288828Y-16644817D01*
X11260256Y-16659102D01*
X11617399Y-16573388D02*
X11645970Y-16573388D01*
X11674542Y-16587674D01*
X11688828Y-16601959D01*
X11703113Y-16630531D01*
X11717399Y-16687674D01*
X11717399Y-16759102D01*
X11703113Y-16816245D01*
X11688828Y-16844817D01*
X11674542Y-16859102D01*
X11645970Y-16873388D01*
X11617399Y-16873388D01*
X11588828Y-16859102D01*
X11574542Y-16844817D01*
X11560256Y-16816245D01*
X11545970Y-16759102D01*
X11545970Y-16687674D01*
X11560256Y-16630531D01*
X11574542Y-16601959D01*
X11588828Y-16587674D01*
X11617399Y-16573388D01*
X11903113Y-16573388D02*
X11931685Y-16573388D01*
X11960256Y-16587674D01*
X11974542Y-16601959D01*
X11988828Y-16630531D01*
X12003113Y-16687674D01*
X12003113Y-16759102D01*
X11988828Y-16816245D01*
X11974542Y-16844817D01*
X11960256Y-16859102D01*
X11931685Y-16873388D01*
X11903113Y-16873388D01*
X11874542Y-16859102D01*
X11860256Y-16844817D01*
X11845970Y-16816245D01*
X11831685Y-16759102D01*
X11831685Y-16687674D01*
X11845970Y-16630531D01*
X11860256Y-16601959D01*
X11874542Y-16587674D01*
X11903113Y-16573388D01*
X12131685Y-16873388D02*
X12131685Y-16673388D01*
X12131685Y-16701959D02*
X12145970Y-16687674D01*
X12174542Y-16673388D01*
X12217399Y-16673388D01*
X12245970Y-16687674D01*
X12260256Y-16716245D01*
X12260256Y-16873388D01*
X12260256Y-16716245D02*
X12274542Y-16687674D01*
X12303113Y-16673388D01*
X12345970Y-16673388D01*
X12374542Y-16687674D01*
X12388828Y-16716245D01*
X12388828Y-16873388D01*
X12531685Y-16873388D02*
X12531685Y-16673388D01*
X12531685Y-16701959D02*
X12545970Y-16687674D01*
X12574542Y-16673388D01*
X12617399Y-16673388D01*
X12645970Y-16687674D01*
X12660256Y-16716245D01*
X12660256Y-16873388D01*
X12660256Y-16716245D02*
X12674542Y-16687674D01*
X12703113Y-16673388D01*
X12745970Y-16673388D01*
X12774542Y-16687674D01*
X12788828Y-16716245D01*
X12788828Y-16873388D01*
X13374542Y-16559102D02*
X13117399Y-16944817D01*
X13760256Y-16573388D02*
X13788828Y-16573388D01*
X13817399Y-16587674D01*
X13831685Y-16601959D01*
X13845970Y-16630531D01*
X13860256Y-16687674D01*
X13860256Y-16759102D01*
X13845970Y-16816245D01*
X13831685Y-16844817D01*
X13817399Y-16859102D01*
X13788828Y-16873388D01*
X13760256Y-16873388D01*
X13731685Y-16859102D01*
X13717399Y-16844817D01*
X13703113Y-16816245D01*
X13688828Y-16759102D01*
X13688828Y-16687674D01*
X13703113Y-16630531D01*
X13717399Y-16601959D01*
X13731685Y-16587674D01*
X13760256Y-16573388D01*
X13988828Y-16844817D02*
X14003113Y-16859102D01*
X13988828Y-16873388D01*
X13974542Y-16859102D01*
X13988828Y-16844817D01*
X13988828Y-16873388D01*
X14188828Y-16573388D02*
X14217399Y-16573388D01*
X14245970Y-16587674D01*
X14260256Y-16601959D01*
X14274542Y-16630531D01*
X14288828Y-16687674D01*
X14288828Y-16759102D01*
X14274542Y-16816245D01*
X14260256Y-16844817D01*
X14245970Y-16859102D01*
X14217399Y-16873388D01*
X14188828Y-16873388D01*
X14160256Y-16859102D01*
X14145970Y-16844817D01*
X14131685Y-16816245D01*
X14117399Y-16759102D01*
X14117399Y-16687674D01*
X14131685Y-16630531D01*
X14145970Y-16601959D01*
X14160256Y-16587674D01*
X14188828Y-16573388D01*
X14545970Y-16673388D02*
X14545970Y-16873388D01*
X14474542Y-16559102D02*
X14403113Y-16773388D01*
X14588828Y-16773388D01*
X14674542Y-16573388D02*
X14860256Y-16573388D01*
X14760256Y-16687674D01*
X14803113Y-16687674D01*
X14831685Y-16701959D01*
X14845970Y-16716245D01*
X14860256Y-16744817D01*
X14860256Y-16816245D01*
X14845970Y-16844817D01*
X14831685Y-16859102D01*
X14803113Y-16873388D01*
X14717399Y-16873388D01*
X14688828Y-16859102D01*
X14674542Y-16844817D01*
X14960256Y-16573388D02*
X15145970Y-16573388D01*
X15045970Y-16687674D01*
X15088828Y-16687674D01*
X15117399Y-16701959D01*
X15131685Y-16716245D01*
X15145970Y-16744817D01*
X15145970Y-16816245D01*
X15131685Y-16844817D01*
X15117399Y-16859102D01*
X15088828Y-16873388D01*
X15003113Y-16873388D01*
X14974542Y-16859102D01*
X14960256Y-16844817D01*
X15260256Y-16573388D02*
X15260256Y-16630531D01*
X15374542Y-16573388D02*
X15374542Y-16630531D01*
X15817399Y-16987674D02*
X15803113Y-16973388D01*
X15774542Y-16930531D01*
X15760256Y-16901960D01*
X15745970Y-16859102D01*
X15731685Y-16787674D01*
X15731685Y-16730531D01*
X15745970Y-16659102D01*
X15760256Y-16616245D01*
X15774542Y-16587674D01*
X15803113Y-16544817D01*
X15817399Y-16530531D01*
X15974542Y-16701959D02*
X15945970Y-16687674D01*
X15931685Y-16673388D01*
X15917399Y-16644817D01*
X15917399Y-16630531D01*
X15931685Y-16601959D01*
X15945970Y-16587674D01*
X15974542Y-16573388D01*
X16031685Y-16573388D01*
X16060256Y-16587674D01*
X16074542Y-16601959D01*
X16088828Y-16630531D01*
X16088828Y-16644817D01*
X16074542Y-16673388D01*
X16060256Y-16687674D01*
X16031685Y-16701959D01*
X15974542Y-16701959D01*
X15945970Y-16716245D01*
X15931685Y-16730531D01*
X15917399Y-16759102D01*
X15917399Y-16816245D01*
X15931685Y-16844817D01*
X15945970Y-16859102D01*
X15974542Y-16873388D01*
X16031685Y-16873388D01*
X16060256Y-16859102D01*
X16074542Y-16844817D01*
X16088828Y-16816245D01*
X16088828Y-16759102D01*
X16074542Y-16730531D01*
X16060256Y-16716245D01*
X16031685Y-16701959D01*
X16445970Y-16873388D02*
X16445970Y-16573388D01*
X16574542Y-16873388D02*
X16574542Y-16716245D01*
X16560256Y-16687674D01*
X16531685Y-16673388D01*
X16488828Y-16673388D01*
X16460256Y-16687674D01*
X16445970Y-16701959D01*
X16760256Y-16873388D02*
X16731685Y-16859102D01*
X16717399Y-16844817D01*
X16703113Y-16816245D01*
X16703113Y-16730531D01*
X16717399Y-16701959D01*
X16731685Y-16687674D01*
X16760256Y-16673388D01*
X16803113Y-16673388D01*
X16831685Y-16687674D01*
X16845971Y-16701959D01*
X16860256Y-16730531D01*
X16860256Y-16816245D01*
X16845971Y-16844817D01*
X16831685Y-16859102D01*
X16803113Y-16873388D01*
X16760256Y-16873388D01*
X17031685Y-16873388D02*
X17003113Y-16859102D01*
X16988828Y-16830531D01*
X16988828Y-16573388D01*
X17260256Y-16859102D02*
X17231685Y-16873388D01*
X17174542Y-16873388D01*
X17145971Y-16859102D01*
X17131685Y-16830531D01*
X17131685Y-16716245D01*
X17145971Y-16687674D01*
X17174542Y-16673388D01*
X17231685Y-16673388D01*
X17260256Y-16687674D01*
X17274542Y-16716245D01*
X17274542Y-16744817D01*
X17131685Y-16773388D01*
X17388828Y-16859102D02*
X17417399Y-16873388D01*
X17474542Y-16873388D01*
X17503113Y-16859102D01*
X17517399Y-16830531D01*
X17517399Y-16816245D01*
X17503113Y-16787674D01*
X17474542Y-16773388D01*
X17431685Y-16773388D01*
X17403113Y-16759102D01*
X17388828Y-16730531D01*
X17388828Y-16716245D01*
X17403113Y-16687674D01*
X17431685Y-16673388D01*
X17474542Y-16673388D01*
X17503113Y-16687674D01*
X17617399Y-16987674D02*
X17631685Y-16973388D01*
X17660256Y-16930531D01*
X17674542Y-16901960D01*
X17688828Y-16859102D01*
X17703113Y-16787674D01*
X17703113Y-16730531D01*
X17688828Y-16659102D01*
X17674542Y-16616245D01*
X17660256Y-16587674D01*
X17631685Y-16544817D01*
X17617399Y-16530531D01*
X10409542Y-17058674D02*
X10559542Y-17208674D01*
X10559542Y-17058674D02*
X10409542Y-17208674D01*
X10484542Y-17058674D02*
X10484542Y-17208674D01*
X10409542Y-17133674D02*
X10559542Y-17133674D01*
X11003113Y-17269388D02*
X10831685Y-17269388D01*
X10917399Y-17269388D02*
X10917399Y-16969388D01*
X10888828Y-17012245D01*
X10860256Y-17040817D01*
X10831685Y-17055102D01*
X11131685Y-17240817D02*
X11145971Y-17255102D01*
X11131685Y-17269388D01*
X11117399Y-17255102D01*
X11131685Y-17240817D01*
X11131685Y-17269388D01*
X11417399Y-16969388D02*
X11274542Y-16969388D01*
X11260256Y-17112245D01*
X11274542Y-17097960D01*
X11303113Y-17083674D01*
X11374542Y-17083674D01*
X11403113Y-17097960D01*
X11417399Y-17112245D01*
X11431685Y-17140817D01*
X11431685Y-17212245D01*
X11417399Y-17240817D01*
X11403113Y-17255102D01*
X11374542Y-17269388D01*
X11303113Y-17269388D01*
X11274542Y-17255102D01*
X11260256Y-17240817D01*
X11617399Y-16969388D02*
X11645970Y-16969388D01*
X11674542Y-16983674D01*
X11688828Y-16997960D01*
X11703113Y-17026531D01*
X11717399Y-17083674D01*
X11717399Y-17155102D01*
X11703113Y-17212245D01*
X11688828Y-17240817D01*
X11674542Y-17255102D01*
X11645970Y-17269388D01*
X11617399Y-17269388D01*
X11588828Y-17255102D01*
X11574542Y-17240817D01*
X11560256Y-17212245D01*
X11545970Y-17155102D01*
X11545970Y-17083674D01*
X11560256Y-17026531D01*
X11574542Y-16997960D01*
X11588828Y-16983674D01*
X11617399Y-16969388D01*
X11903113Y-16969388D02*
X11931685Y-16969388D01*
X11960256Y-16983674D01*
X11974542Y-16997960D01*
X11988828Y-17026531D01*
X12003113Y-17083674D01*
X12003113Y-17155102D01*
X11988828Y-17212245D01*
X11974542Y-17240817D01*
X11960256Y-17255102D01*
X11931685Y-17269388D01*
X11903113Y-17269388D01*
X11874542Y-17255102D01*
X11860256Y-17240817D01*
X11845970Y-17212245D01*
X11831685Y-17155102D01*
X11831685Y-17083674D01*
X11845970Y-17026531D01*
X11860256Y-16997960D01*
X11874542Y-16983674D01*
X11903113Y-16969388D01*
X12131685Y-17269388D02*
X12131685Y-17069388D01*
X12131685Y-17097960D02*
X12145970Y-17083674D01*
X12174542Y-17069388D01*
X12217399Y-17069388D01*
X12245970Y-17083674D01*
X12260256Y-17112245D01*
X12260256Y-17269388D01*
X12260256Y-17112245D02*
X12274542Y-17083674D01*
X12303113Y-17069388D01*
X12345970Y-17069388D01*
X12374542Y-17083674D01*
X12388828Y-17112245D01*
X12388828Y-17269388D01*
X12531685Y-17269388D02*
X12531685Y-17069388D01*
X12531685Y-17097960D02*
X12545970Y-17083674D01*
X12574542Y-17069388D01*
X12617399Y-17069388D01*
X12645970Y-17083674D01*
X12660256Y-17112245D01*
X12660256Y-17269388D01*
X12660256Y-17112245D02*
X12674542Y-17083674D01*
X12703113Y-17069388D01*
X12745970Y-17069388D01*
X12774542Y-17083674D01*
X12788828Y-17112245D01*
X12788828Y-17269388D01*
X13374542Y-16955102D02*
X13117399Y-17340817D01*
X13760256Y-16969388D02*
X13788828Y-16969388D01*
X13817399Y-16983674D01*
X13831685Y-16997960D01*
X13845970Y-17026531D01*
X13860256Y-17083674D01*
X13860256Y-17155102D01*
X13845970Y-17212245D01*
X13831685Y-17240817D01*
X13817399Y-17255102D01*
X13788828Y-17269388D01*
X13760256Y-17269388D01*
X13731685Y-17255102D01*
X13717399Y-17240817D01*
X13703113Y-17212245D01*
X13688828Y-17155102D01*
X13688828Y-17083674D01*
X13703113Y-17026531D01*
X13717399Y-16997960D01*
X13731685Y-16983674D01*
X13760256Y-16969388D01*
X13988828Y-17240817D02*
X14003113Y-17255102D01*
X13988828Y-17269388D01*
X13974542Y-17255102D01*
X13988828Y-17240817D01*
X13988828Y-17269388D01*
X14188828Y-16969388D02*
X14217399Y-16969388D01*
X14245970Y-16983674D01*
X14260256Y-16997960D01*
X14274542Y-17026531D01*
X14288828Y-17083674D01*
X14288828Y-17155102D01*
X14274542Y-17212245D01*
X14260256Y-17240817D01*
X14245970Y-17255102D01*
X14217399Y-17269388D01*
X14188828Y-17269388D01*
X14160256Y-17255102D01*
X14145970Y-17240817D01*
X14131685Y-17212245D01*
X14117399Y-17155102D01*
X14117399Y-17083674D01*
X14131685Y-17026531D01*
X14145970Y-16997960D01*
X14160256Y-16983674D01*
X14188828Y-16969388D01*
X14560256Y-16969388D02*
X14417399Y-16969388D01*
X14403113Y-17112245D01*
X14417399Y-17097960D01*
X14445970Y-17083674D01*
X14517399Y-17083674D01*
X14545970Y-17097960D01*
X14560256Y-17112245D01*
X14574542Y-17140817D01*
X14574542Y-17212245D01*
X14560256Y-17240817D01*
X14545970Y-17255102D01*
X14517399Y-17269388D01*
X14445970Y-17269388D01*
X14417399Y-17255102D01*
X14403113Y-17240817D01*
X14717399Y-17269388D02*
X14774542Y-17269388D01*
X14803113Y-17255102D01*
X14817399Y-17240817D01*
X14845970Y-17197960D01*
X14860256Y-17140817D01*
X14860256Y-17026531D01*
X14845970Y-16997960D01*
X14831685Y-16983674D01*
X14803113Y-16969388D01*
X14745970Y-16969388D01*
X14717399Y-16983674D01*
X14703113Y-16997960D01*
X14688828Y-17026531D01*
X14688828Y-17097960D01*
X14703113Y-17126531D01*
X14717399Y-17140817D01*
X14745970Y-17155102D01*
X14803113Y-17155102D01*
X14831685Y-17140817D01*
X14845970Y-17126531D01*
X14860256Y-17097960D01*
X15145970Y-17269388D02*
X14974542Y-17269388D01*
X15060256Y-17269388D02*
X15060256Y-16969388D01*
X15031685Y-17012245D01*
X15003113Y-17040817D01*
X14974542Y-17055102D01*
X15260256Y-16969388D02*
X15260256Y-17026531D01*
X15374542Y-16969388D02*
X15374542Y-17026531D01*
X15817399Y-17383674D02*
X15803113Y-17369388D01*
X15774542Y-17326531D01*
X15760256Y-17297960D01*
X15745970Y-17255102D01*
X15731685Y-17183674D01*
X15731685Y-17126531D01*
X15745970Y-17055102D01*
X15760256Y-17012245D01*
X15774542Y-16983674D01*
X15803113Y-16940817D01*
X15817399Y-16926531D01*
X15988828Y-16969388D02*
X16017399Y-16969388D01*
X16045970Y-16983674D01*
X16060256Y-16997960D01*
X16074542Y-17026531D01*
X16088828Y-17083674D01*
X16088828Y-17155102D01*
X16074542Y-17212245D01*
X16060256Y-17240817D01*
X16045970Y-17255102D01*
X16017399Y-17269388D01*
X15988828Y-17269388D01*
X15960256Y-17255102D01*
X15945970Y-17240817D01*
X15931685Y-17212245D01*
X15917399Y-17155102D01*
X15917399Y-17083674D01*
X15931685Y-17026531D01*
X15945970Y-16997960D01*
X15960256Y-16983674D01*
X15988828Y-16969388D01*
X16445970Y-17269388D02*
X16445970Y-16969388D01*
X16574542Y-17269388D02*
X16574542Y-17112245D01*
X16560256Y-17083674D01*
X16531685Y-17069388D01*
X16488828Y-17069388D01*
X16460256Y-17083674D01*
X16445970Y-17097960D01*
X16760256Y-17269388D02*
X16731685Y-17255102D01*
X16717399Y-17240817D01*
X16703113Y-17212245D01*
X16703113Y-17126531D01*
X16717399Y-17097960D01*
X16731685Y-17083674D01*
X16760256Y-17069388D01*
X16803113Y-17069388D01*
X16831685Y-17083674D01*
X16845971Y-17097960D01*
X16860256Y-17126531D01*
X16860256Y-17212245D01*
X16845971Y-17240817D01*
X16831685Y-17255102D01*
X16803113Y-17269388D01*
X16760256Y-17269388D01*
X17031685Y-17269388D02*
X17003113Y-17255102D01*
X16988828Y-17226531D01*
X16988828Y-16969388D01*
X17260256Y-17255102D02*
X17231685Y-17269388D01*
X17174542Y-17269388D01*
X17145971Y-17255102D01*
X17131685Y-17226531D01*
X17131685Y-17112245D01*
X17145971Y-17083674D01*
X17174542Y-17069388D01*
X17231685Y-17069388D01*
X17260256Y-17083674D01*
X17274542Y-17112245D01*
X17274542Y-17140817D01*
X17131685Y-17169388D01*
X17388828Y-17255102D02*
X17417399Y-17269388D01*
X17474542Y-17269388D01*
X17503113Y-17255102D01*
X17517399Y-17226531D01*
X17517399Y-17212245D01*
X17503113Y-17183674D01*
X17474542Y-17169388D01*
X17431685Y-17169388D01*
X17403113Y-17155102D01*
X17388828Y-17126531D01*
X17388828Y-17112245D01*
X17403113Y-17083674D01*
X17431685Y-17069388D01*
X17474542Y-17069388D01*
X17503113Y-17083674D01*
X17874542Y-17155102D02*
X18103113Y-17155102D01*
X17988828Y-17269388D02*
X17988828Y-17040817D01*
X18460256Y-16997960D02*
X18474542Y-16983674D01*
X18503113Y-16969388D01*
X18574542Y-16969388D01*
X18603113Y-16983674D01*
X18617399Y-16997960D01*
X18631685Y-17026531D01*
X18631685Y-17055102D01*
X18617399Y-17097960D01*
X18445971Y-17269388D01*
X18631685Y-17269388D01*
X18974542Y-17255102D02*
X19003113Y-17269388D01*
X19060256Y-17269388D01*
X19088828Y-17255102D01*
X19103113Y-17226531D01*
X19103113Y-17212245D01*
X19088828Y-17183674D01*
X19060256Y-17169388D01*
X19017399Y-17169388D01*
X18988828Y-17155102D01*
X18974542Y-17126531D01*
X18974542Y-17112245D01*
X18988828Y-17083674D01*
X19017399Y-17069388D01*
X19060256Y-17069388D01*
X19088828Y-17083674D01*
X19274542Y-17269388D02*
X19245971Y-17255102D01*
X19231685Y-17226531D01*
X19231685Y-16969388D01*
X19431685Y-17269388D02*
X19403113Y-17255102D01*
X19388828Y-17240817D01*
X19374542Y-17212245D01*
X19374542Y-17126531D01*
X19388828Y-17097960D01*
X19403113Y-17083674D01*
X19431685Y-17069388D01*
X19474542Y-17069388D01*
X19503113Y-17083674D01*
X19517399Y-17097960D01*
X19531685Y-17126531D01*
X19531685Y-17212245D01*
X19517399Y-17240817D01*
X19503113Y-17255102D01*
X19474542Y-17269388D01*
X19431685Y-17269388D01*
X19617399Y-17069388D02*
X19731685Y-17069388D01*
X19660256Y-16969388D02*
X19660256Y-17226531D01*
X19674542Y-17255102D01*
X19703113Y-17269388D01*
X19731685Y-17269388D01*
X19817399Y-17255102D02*
X19845971Y-17269388D01*
X19903113Y-17269388D01*
X19931685Y-17255102D01*
X19945971Y-17226531D01*
X19945971Y-17212245D01*
X19931685Y-17183674D01*
X19903113Y-17169388D01*
X19860256Y-17169388D01*
X19831685Y-17155102D01*
X19817399Y-17126531D01*
X19817399Y-17112245D01*
X19831685Y-17083674D01*
X19860256Y-17069388D01*
X19903113Y-17069388D01*
X19931685Y-17083674D01*
X20045971Y-17383674D02*
X20060256Y-17369388D01*
X20088828Y-17326531D01*
X20103113Y-17297960D01*
X20117399Y-17255102D01*
X20131685Y-17183674D01*
X20131685Y-17126531D01*
X20117399Y-17055102D01*
X20103113Y-17012245D01*
X20088828Y-16983674D01*
X20060256Y-16940817D01*
X20045971Y-16926531D01*
X10339542Y-17419674D02*
X10559542Y-17639674D01*
X10559542Y-17419674D02*
X10339542Y-17639674D01*
X10527325Y-17607456D02*
X10527325Y-17451891D01*
X10371760Y-17451891D01*
X10371760Y-17607456D01*
X10527325Y-17607456D01*
X10831685Y-17393960D02*
X10845971Y-17379674D01*
X10874542Y-17365388D01*
X10945971Y-17365388D01*
X10974542Y-17379674D01*
X10988828Y-17393960D01*
X11003113Y-17422531D01*
X11003113Y-17451102D01*
X10988828Y-17493960D01*
X10817399Y-17665388D01*
X11003113Y-17665388D01*
X11131685Y-17636817D02*
X11145971Y-17651102D01*
X11131685Y-17665388D01*
X11117399Y-17651102D01*
X11131685Y-17636817D01*
X11131685Y-17665388D01*
X11260256Y-17393960D02*
X11274542Y-17379674D01*
X11303113Y-17365388D01*
X11374542Y-17365388D01*
X11403113Y-17379674D01*
X11417399Y-17393960D01*
X11431685Y-17422531D01*
X11431685Y-17451102D01*
X11417399Y-17493960D01*
X11245970Y-17665388D01*
X11431685Y-17665388D01*
X11617399Y-17365388D02*
X11645970Y-17365388D01*
X11674542Y-17379674D01*
X11688828Y-17393960D01*
X11703113Y-17422531D01*
X11717399Y-17479674D01*
X11717399Y-17551102D01*
X11703113Y-17608245D01*
X11688828Y-17636817D01*
X11674542Y-17651102D01*
X11645970Y-17665388D01*
X11617399Y-17665388D01*
X11588828Y-17651102D01*
X11574542Y-17636817D01*
X11560256Y-17608245D01*
X11545970Y-17551102D01*
X11545970Y-17479674D01*
X11560256Y-17422531D01*
X11574542Y-17393960D01*
X11588828Y-17379674D01*
X11617399Y-17365388D01*
X11903113Y-17365388D02*
X11931685Y-17365388D01*
X11960256Y-17379674D01*
X11974542Y-17393960D01*
X11988828Y-17422531D01*
X12003113Y-17479674D01*
X12003113Y-17551102D01*
X11988828Y-17608245D01*
X11974542Y-17636817D01*
X11960256Y-17651102D01*
X11931685Y-17665388D01*
X11903113Y-17665388D01*
X11874542Y-17651102D01*
X11860256Y-17636817D01*
X11845970Y-17608245D01*
X11831685Y-17551102D01*
X11831685Y-17479674D01*
X11845970Y-17422531D01*
X11860256Y-17393960D01*
X11874542Y-17379674D01*
X11903113Y-17365388D01*
X12131685Y-17665388D02*
X12131685Y-17465388D01*
X12131685Y-17493960D02*
X12145970Y-17479674D01*
X12174542Y-17465388D01*
X12217399Y-17465388D01*
X12245970Y-17479674D01*
X12260256Y-17508245D01*
X12260256Y-17665388D01*
X12260256Y-17508245D02*
X12274542Y-17479674D01*
X12303113Y-17465388D01*
X12345970Y-17465388D01*
X12374542Y-17479674D01*
X12388828Y-17508245D01*
X12388828Y-17665388D01*
X12531685Y-17665388D02*
X12531685Y-17465388D01*
X12531685Y-17493960D02*
X12545970Y-17479674D01*
X12574542Y-17465388D01*
X12617399Y-17465388D01*
X12645970Y-17479674D01*
X12660256Y-17508245D01*
X12660256Y-17665388D01*
X12660256Y-17508245D02*
X12674542Y-17479674D01*
X12703113Y-17465388D01*
X12745970Y-17465388D01*
X12774542Y-17479674D01*
X12788828Y-17508245D01*
X12788828Y-17665388D01*
X13374542Y-17351102D02*
X13117399Y-17736817D01*
X13760256Y-17365388D02*
X13788828Y-17365388D01*
X13817399Y-17379674D01*
X13831685Y-17393960D01*
X13845970Y-17422531D01*
X13860256Y-17479674D01*
X13860256Y-17551102D01*
X13845970Y-17608245D01*
X13831685Y-17636817D01*
X13817399Y-17651102D01*
X13788828Y-17665388D01*
X13760256Y-17665388D01*
X13731685Y-17651102D01*
X13717399Y-17636817D01*
X13703113Y-17608245D01*
X13688828Y-17551102D01*
X13688828Y-17479674D01*
X13703113Y-17422531D01*
X13717399Y-17393960D01*
X13731685Y-17379674D01*
X13760256Y-17365388D01*
X13988828Y-17636817D02*
X14003113Y-17651102D01*
X13988828Y-17665388D01*
X13974542Y-17651102D01*
X13988828Y-17636817D01*
X13988828Y-17665388D01*
X14188828Y-17365388D02*
X14217399Y-17365388D01*
X14245970Y-17379674D01*
X14260256Y-17393960D01*
X14274542Y-17422531D01*
X14288828Y-17479674D01*
X14288828Y-17551102D01*
X14274542Y-17608245D01*
X14260256Y-17636817D01*
X14245970Y-17651102D01*
X14217399Y-17665388D01*
X14188828Y-17665388D01*
X14160256Y-17651102D01*
X14145970Y-17636817D01*
X14131685Y-17608245D01*
X14117399Y-17551102D01*
X14117399Y-17479674D01*
X14131685Y-17422531D01*
X14145970Y-17393960D01*
X14160256Y-17379674D01*
X14188828Y-17365388D01*
X14460256Y-17493960D02*
X14431685Y-17479674D01*
X14417399Y-17465388D01*
X14403113Y-17436817D01*
X14403113Y-17422531D01*
X14417399Y-17393960D01*
X14431685Y-17379674D01*
X14460256Y-17365388D01*
X14517399Y-17365388D01*
X14545970Y-17379674D01*
X14560256Y-17393960D01*
X14574542Y-17422531D01*
X14574542Y-17436817D01*
X14560256Y-17465388D01*
X14545970Y-17479674D01*
X14517399Y-17493960D01*
X14460256Y-17493960D01*
X14431685Y-17508245D01*
X14417399Y-17522531D01*
X14403113Y-17551102D01*
X14403113Y-17608245D01*
X14417399Y-17636817D01*
X14431685Y-17651102D01*
X14460256Y-17665388D01*
X14517399Y-17665388D01*
X14545970Y-17651102D01*
X14560256Y-17636817D01*
X14574542Y-17608245D01*
X14574542Y-17551102D01*
X14560256Y-17522531D01*
X14545970Y-17508245D01*
X14517399Y-17493960D01*
X14831685Y-17365388D02*
X14774542Y-17365388D01*
X14745970Y-17379674D01*
X14731685Y-17393960D01*
X14703113Y-17436817D01*
X14688828Y-17493960D01*
X14688828Y-17608245D01*
X14703113Y-17636817D01*
X14717399Y-17651102D01*
X14745970Y-17665388D01*
X14803113Y-17665388D01*
X14831685Y-17651102D01*
X14845970Y-17636817D01*
X14860256Y-17608245D01*
X14860256Y-17536817D01*
X14845970Y-17508245D01*
X14831685Y-17493960D01*
X14803113Y-17479674D01*
X14745970Y-17479674D01*
X14717399Y-17493960D01*
X14703113Y-17508245D01*
X14688828Y-17536817D01*
X15117399Y-17365388D02*
X15060256Y-17365388D01*
X15031685Y-17379674D01*
X15017399Y-17393960D01*
X14988828Y-17436817D01*
X14974542Y-17493960D01*
X14974542Y-17608245D01*
X14988828Y-17636817D01*
X15003113Y-17651102D01*
X15031685Y-17665388D01*
X15088828Y-17665388D01*
X15117399Y-17651102D01*
X15131685Y-17636817D01*
X15145970Y-17608245D01*
X15145970Y-17536817D01*
X15131685Y-17508245D01*
X15117399Y-17493960D01*
X15088828Y-17479674D01*
X15031685Y-17479674D01*
X15003113Y-17493960D01*
X14988828Y-17508245D01*
X14974542Y-17536817D01*
X15260256Y-17365388D02*
X15260256Y-17422531D01*
X15374542Y-17365388D02*
X15374542Y-17422531D01*
X15817399Y-17779674D02*
X15803113Y-17765388D01*
X15774542Y-17722531D01*
X15760256Y-17693960D01*
X15745970Y-17651102D01*
X15731685Y-17579674D01*
X15731685Y-17522531D01*
X15745970Y-17451102D01*
X15760256Y-17408245D01*
X15774542Y-17379674D01*
X15803113Y-17336817D01*
X15817399Y-17322531D01*
X16060256Y-17365388D02*
X16003113Y-17365388D01*
X15974542Y-17379674D01*
X15960256Y-17393960D01*
X15931685Y-17436817D01*
X15917399Y-17493960D01*
X15917399Y-17608245D01*
X15931685Y-17636817D01*
X15945970Y-17651102D01*
X15974542Y-17665388D01*
X16031685Y-17665388D01*
X16060256Y-17651102D01*
X16074542Y-17636817D01*
X16088828Y-17608245D01*
X16088828Y-17536817D01*
X16074542Y-17508245D01*
X16060256Y-17493960D01*
X16031685Y-17479674D01*
X15974542Y-17479674D01*
X15945970Y-17493960D01*
X15931685Y-17508245D01*
X15917399Y-17536817D01*
X16445970Y-17665388D02*
X16445970Y-17365388D01*
X16574542Y-17665388D02*
X16574542Y-17508245D01*
X16560256Y-17479674D01*
X16531685Y-17465388D01*
X16488828Y-17465388D01*
X16460256Y-17479674D01*
X16445970Y-17493960D01*
X16760256Y-17665388D02*
X16731685Y-17651102D01*
X16717399Y-17636817D01*
X16703113Y-17608245D01*
X16703113Y-17522531D01*
X16717399Y-17493960D01*
X16731685Y-17479674D01*
X16760256Y-17465388D01*
X16803113Y-17465388D01*
X16831685Y-17479674D01*
X16845971Y-17493960D01*
X16860256Y-17522531D01*
X16860256Y-17608245D01*
X16845971Y-17636817D01*
X16831685Y-17651102D01*
X16803113Y-17665388D01*
X16760256Y-17665388D01*
X17031685Y-17665388D02*
X17003113Y-17651102D01*
X16988828Y-17622531D01*
X16988828Y-17365388D01*
X17260256Y-17651102D02*
X17231685Y-17665388D01*
X17174542Y-17665388D01*
X17145971Y-17651102D01*
X17131685Y-17622531D01*
X17131685Y-17508245D01*
X17145971Y-17479674D01*
X17174542Y-17465388D01*
X17231685Y-17465388D01*
X17260256Y-17479674D01*
X17274542Y-17508245D01*
X17274542Y-17536817D01*
X17131685Y-17565388D01*
X17388828Y-17651102D02*
X17417399Y-17665388D01*
X17474542Y-17665388D01*
X17503113Y-17651102D01*
X17517399Y-17622531D01*
X17517399Y-17608245D01*
X17503113Y-17579674D01*
X17474542Y-17565388D01*
X17431685Y-17565388D01*
X17403113Y-17551102D01*
X17388828Y-17522531D01*
X17388828Y-17508245D01*
X17403113Y-17479674D01*
X17431685Y-17465388D01*
X17474542Y-17465388D01*
X17503113Y-17479674D01*
X17617399Y-17779674D02*
X17631685Y-17765388D01*
X17660256Y-17722531D01*
X17674542Y-17693960D01*
X17688828Y-17651102D01*
X17703113Y-17579674D01*
X17703113Y-17522531D01*
X17688828Y-17451102D01*
X17674542Y-17408245D01*
X17660256Y-17379674D01*
X17631685Y-17336817D01*
X17617399Y-17322531D01*
M02*
