  0
SECTION
  2
HEADER
  9
$ACADVER
  1
AC1009
  0
ENDSEC
  0
SECTION
  2
ENTITIES
  0
POLYLINE
  5
90
  8
Layer_0
  62
0
  70
1
  66
1
  10
0
  20
0
  30
0
  0
VERTEX
  5
90
  8
Layer_0
  10
561.8208
  20
425.06372
  0
VERTEX
  5
91
  8
Layer_0
  10
631.53284
  20
425.06372
  0
VERTEX
  5
92
  8
Layer_0
  10
631.61792
  20
425.06265
  0
VERTEX
  5
93
  8
Layer_0
  10
631.703
  20
425.05942
  0
VERTEX
  5
94
  8
Layer_0
  10
632.02795
  20
425.02679
  0
VERTEX
  5
95
  8
Layer_0
  10
632.34265
  20
424.96381
  0
VERTEX
  5
96
  8
Layer_0
  10
632.64545
  20
424.87201
  0
VERTEX
  5
97
  8
Layer_0
  10
632.935
  20
424.75287
  0
VERTEX
  5
98
  8
Layer_0
  10
633.20978
  20
424.60803
  0
VERTEX
  5
99
  8
Layer_0
  10
633.46838
  20
424.43896
  0
VERTEX
  5
9a
  8
Layer_0
  10
633.70923
  20
424.24725
  0
VERTEX
  5
9b
  8
Layer_0
  10
633.93103
  20
424.03442
  0
VERTEX
  5
9c
  8
Layer_0
  10
634.13214
  20
423.802
  0
VERTEX
  5
9d
  8
Layer_0
  10
634.31122
  20
423.55154
  0
VERTEX
  5
9e
  8
Layer_0
  10
634.46674
  20
423.28461
  0
VERTEX
  5
9f
  8
Layer_0
  10
634.59729
  20
423.00275
  0
VERTEX
  5
a0
  8
Layer_0
  10
634.70129
  20
422.70746
  0
VERTEX
  5
a1
  8
Layer_0
  10
634.77747
  20
422.4003
  0
VERTEX
  5
a2
  8
Layer_0
  10
634.82416
  20
422.08282
  0
VERTEX
  5
a3
  8
Layer_0
  10
634.83997
  20
421.75659
  0
VERTEX
  5
a4
  8
Layer_0
  10
634.8399
  20
333.17084
  0
VERTEX
  5
a5
  8
Layer_0
  10
634.82373
  20
332.84396
  0
VERTEX
  5
a6
  8
Layer_0
  10
634.77582
  20
332.52264
  0
VERTEX
  5
a7
  8
Layer_0
  10
634.69696
  20
332.20905
  0
VERTEX
  5
a8
  8
Layer_0
  10
634.5882
  20
331.90527
  0
VERTEX
  5
a9
  8
Layer_0
  10
634.45032
  20
331.61356
  0
VERTEX
  5
aa
  8
Layer_0
  10
634.2843
  20
331.33606
  0
VERTEX
  5
ab
  8
Layer_0
  10
634.091
  20
331.07495
  0
VERTEX
  5
ac
  8
Layer_0
  10
633.87128
  20
330.83237
  0
VERTEX
  5
ad
  8
Layer_0
  10
633.62872
  20
330.61267
  0
VERTEX
  5
ae
  8
Layer_0
  10
633.36761
  20
330.41937
  0
VERTEX
  5
af
  8
Layer_0
  10
633.09009
  20
330.25333
  0
VERTEX
  5
b0
  8
Layer_0
  10
632.7984
  20
330.11548
  0
VERTEX
  5
b1
  8
Layer_0
  10
632.49463
  20
330.00668
  0
VERTEX
  5
b2
  8
Layer_0
  10
632.18103
  20
329.92786
  0
VERTEX
  5
b3
  8
Layer_0
  10
631.85968
  20
329.87994
  0
VERTEX
  5
b4
  8
Layer_0
  10
631.53284
  20
329.86377
  0
VERTEX
  5
b5
  8
Layer_0
  10
561.8208
  20
329.86371
  0
VERTEX
  5
b6
  8
Layer_0
  10
561.4939
  20
329.87988
  0
VERTEX
  5
b7
  8
Layer_0
  10
561.17255
  20
329.92783
  0
VERTEX
  5
b8
  8
Layer_0
  10
560.85895
  20
330.00665
  0
VERTEX
  5
b9
  8
Layer_0
  10
560.55518
  20
330.11545
  0
VERTEX
  5
ba
  8
Layer_0
  10
560.26343
  20
330.2533
  0
VERTEX
  5
bb
  8
Layer_0
  10
559.98596
  20
330.41934
  0
VERTEX
  5
bc
  8
Layer_0
  10
559.72485
  20
330.61264
  0
VERTEX
  5
bd
  8
Layer_0
  10
559.48224
  20
330.83234
  0
VERTEX
  5
be
  8
Layer_0
  10
559.26923
  20
331.06677
  0
VERTEX
  5
bf
  8
Layer_0
  10
559.08081
  20
331.31876
  0
VERTEX
  5
c0
  8
Layer_0
  10
558.91791
  20
331.58627
  0
VERTEX
  5
c1
  8
Layer_0
  10
558.78131
  20
331.8674
  0
VERTEX
  5
c2
  8
Layer_0
  10
558.67181
  20
332.16019
  0
VERTEX
  5
c3
  8
Layer_0
  10
558.59033
  20
332.46265
  0
VERTEX
  5
c4
  8
Layer_0
  10
558.5376
  20
332.7728
  0
VERTEX
  5
c5
  8
Layer_0
  10
558.51465
  20
333.08875
  0
VERTEX
  5
c6
  8
Layer_0
  10
558.51361
  20
333.17084
  0
VERTEX
  5
c7
  8
Layer_0
  10
558.51367
  20
421.75659
  0
VERTEX
  5
c8
  8
Layer_0
  10
558.52881
  20
422.073
  0
VERTEX
  5
c9
  8
Layer_0
  10
558.57379
  20
422.38437
  0
VERTEX
  5
ca
  8
Layer_0
  10
558.64771
  20
422.68875
  0
VERTEX
  5
cb
  8
Layer_0
  10
558.74988
  20
422.98413
  0
VERTEX
  5
cc
  8
Layer_0
  10
558.87952
  20
423.26855
  0
VERTEX
  5
cd
  8
Layer_0
  10
559.03577
  20
423.54004
  0
VERTEX
  5
ce
  8
Layer_0
  10
559.21783
  20
423.7966
  0
VERTEX
  5
cf
  8
Layer_0
  10
559.42493
  20
424.03625
  0
VERTEX
  5
d0
  8
Layer_0
  10
559.4823
  20
424.09503
  0
VERTEX
  5
d1
  8
Layer_0
  10
559.71674
  20
424.30804
  0
VERTEX
  5
d2
  8
Layer_0
  10
559.96875
  20
424.49643
  0
VERTEX
  5
d3
  8
Layer_0
  10
560.23621
  20
424.65936
  0
VERTEX
  5
d4
  8
Layer_0
  10
560.51733
  20
424.79596
  0
VERTEX
  5
d5
  8
Layer_0
  10
560.81012
  20
424.90546
  0
VERTEX
  5
d6
  8
Layer_0
  10
561.11255
  20
424.98694
  0
VERTEX
  5
d7
  8
Layer_0
  10
561.42273
  20
425.03961
  0
VERTEX
  5
d8
  8
Layer_0
  10
561.73865
  20
425.06262
  0
VERTEX
  5
d9
  8
Layer_0
  10
561.8208
  20
425.06372
  0
SEQEND
  0
POLYLINE
  5
db
  8
Layer_0
  62
0
  70
1
  66
1
  10
0
  20
0
  30
0
  0
VERTEX
  5
db
  8
Layer_0
  10
561.03223
  20
409.56445
  0
VERTEX
  5
dc
  8
Layer_0
  10
561.03223
  20
421.56445
  0
VERTEX
  5
dd
  8
Layer_0
  10
561.05115
  20
421.75909
  0
VERTEX
  5
de
  8
Layer_0
  10
561.10559
  20
421.94128
  0
VERTEX
  5
df
  8
Layer_0
  10
561.19214
  20
422.10721
  0
VERTEX
  5
e0
  8
Layer_0
  10
561.30707
  20
422.25323
  0
VERTEX
  5
e1
  8
Layer_0
  10
561.44696
  20
422.37555
  0
VERTEX
  5
e2
  8
Layer_0
  10
561.60828
  20
422.47046
  0
VERTEX
  5
e3
  8
Layer_0
  10
561.78735
  20
422.53424
  0
VERTEX
  5
e4
  8
Layer_0
  10
561.98077
  20
422.56317
  0
VERTEX
  5
e5
  8
Layer_0
  10
562.03223
  20
422.56445
  0
VERTEX
  5
e6
  8
Layer_0
  10
574.03223
  20
422.56445
  0
VERTEX
  5
e7
  8
Layer_0
  10
574.10858
  20
422.56158
  0
VERTEX
  5
e8
  8
Layer_0
  10
574.18451
  20
422.55295
  0
VERTEX
  5
e9
  8
Layer_0
  10
574.36102
  20
422.50916
  0
VERTEX
  5
ea
  8
Layer_0
  10
574.52277
  20
422.43619
  0
VERTEX
  5
eb
  8
Layer_0
  10
574.66711
  20
422.33728
  0
VERTEX
  5
ec
  8
Layer_0
  10
574.79132
  20
422.21561
  0
VERTEX
  5
ed
  8
Layer_0
  10
574.89264
  20
422.07428
  0
VERTEX
  5
ee
  8
Layer_0
  10
574.96838
  20
421.91656
  0
VERTEX
  5
ef
  8
Layer_0
  10
575.01587
  20
421.74554
  0
VERTEX
  5
f0
  8
Layer_0
  10
575.03223
  20
421.56445
  0
VERTEX
  5
f1
  8
Layer_0
  10
575.03223
  20
409.56445
  0
VERTEX
  5
f2
  8
Layer_0
  10
575.01282
  20
409.36847
  0
VERTEX
  5
f3
  8
Layer_0
  10
574.95612
  20
409.18176
  0
VERTEX
  5
f4
  8
Layer_0
  10
574.86426
  20
409.00964
  0
VERTEX
  5
f5
  8
Layer_0
  10
574.73932
  20
408.85736
  0
VERTEX
  5
f6
  8
Layer_0
  10
574.58704
  20
408.73248
  0
VERTEX
  5
f7
  8
Layer_0
  10
574.41492
  20
408.64056
  0
VERTEX
  5
f8
  8
Layer_0
  10
574.22827
  20
408.58386
  0
VERTEX
  5
f9
  8
Layer_0
  10
574.03223
  20
408.56445
  0
VERTEX
  5
fa
  8
Layer_0
  10
562.03223
  20
408.56445
  0
VERTEX
  5
fb
  8
Layer_0
  10
561.83759
  20
408.58337
  0
VERTEX
  5
fc
  8
Layer_0
  10
561.6554
  20
408.63785
  0
VERTEX
  5
fd
  8
Layer_0
  10
561.4895
  20
408.72437
  0
VERTEX
  5
fe
  8
Layer_0
  10
561.34351
  20
408.83929
  0
VERTEX
  5
ff
  8
Layer_0
  10
561.22113
  20
408.97922
  0
VERTEX
  5
100
  8
Layer_0
  10
561.12622
  20
409.1405
  0
VERTEX
  5
101
  8
Layer_0
  10
561.06244
  20
409.31958
  0
VERTEX
  5
102
  8
Layer_0
  10
561.03357
  20
409.513
  0
VERTEX
  5
103
  8
Layer_0
  10
561.03223
  20
409.56445
  0
SEQEND
  0
POLYLINE
  5
105
  8
Layer_0
  62
0
  70
1
  66
1
  10
0
  20
0
  30
0
  0
VERTEX
  5
105
  8
Layer_0
  10
594.08221
  20
421.56445
  0
VERTEX
  5
106
  8
Layer_0
  10
594.06464
  20
421.75229
  0
VERTEX
  5
107
  8
Layer_0
  10
594.01373
  20
421.92886
  0
VERTEX
  5
108
  8
Layer_0
  10
593.93274
  20
422.09076
  0
VERTEX
  5
109
  8
Layer_0
  10
593.82471
  20
422.23453
  0
VERTEX
  5
10a
  8
Layer_0
  10
593.69275
  20
422.35672
  0
VERTEX
  5
10b
  8
Layer_0
  10
593.53998
  20
422.45389
  0
VERTEX
  5
10c
  8
Layer_0
  10
593.36951
  20
422.52255
  0
VERTEX
  5
10d
  8
Layer_0
  10
593.18445
  20
422.5593
  0
VERTEX
  5
10e
  8
Layer_0
  10
593.13342
  20
422.56317
  0
VERTEX
  5
10f
  8
Layer_0
  10
593.08221
  20
422.56445
  0
VERTEX
  5
110
  8
Layer_0
  10
581.08221
  20
422.56445
  0
VERTEX
  5
111
  8
Layer_0
  10
581.03076
  20
422.56317
  0
VERTEX
  5
112
  8
Layer_0
  10
580.83734
  20
422.53424
  0
VERTEX
  5
113
  8
Layer_0
  10
580.65826
  20
422.47046
  0
VERTEX
  5
114
  8
Layer_0
  10
580.49695
  20
422.37555
  0
VERTEX
  5
115
  8
Layer_0
  10
580.35706
  20
422.25323
  0
VERTEX
  5
116
  8
Layer_0
  10
580.24213
  20
422.10721
  0
VERTEX
  5
117
  8
Layer_0
  10
580.15564
  20
421.94128
  0
VERTEX
  5
118
  8
Layer_0
  10
580.10114
  20
421.75909
  0
VERTEX
  5
119
  8
Layer_0
  10
580.08221
  20
421.56445
  0
VERTEX
  5
11a
  8
Layer_0
  10
580.08221
  20
409.56445
  0
VERTEX
  5
11b
  8
Layer_0
  10
580.08356
  20
409.513
  0
VERTEX
  5
11c
  8
Layer_0
  10
580.11243
  20
409.31958
  0
VERTEX
  5
11d
  8
Layer_0
  10
580.17621
  20
409.14047
  0
VERTEX
  5
11e
  8
Layer_0
  10
580.27112
  20
408.97919
  0
VERTEX
  5
11f
  8
Layer_0
  10
580.39349
  20
408.83929
  0
VERTEX
  5
120
  8
Layer_0
  10
580.53949
  20
408.72433
  0
VERTEX
  5
121
  8
Layer_0
  10
580.70544
  20
408.63785
  0
VERTEX
  5
122
  8
Layer_0
  10
580.88757
  20
408.58337
  0
VERTEX
  5
123
  8
Layer_0
  10
581.08221
  20
408.56445
  0
VERTEX
  5
124
  8
Layer_0
  10
593.08221
  20
408.56445
  0
VERTEX
  5
125
  8
Layer_0
  10
593.2782
  20
408.58386
  0
VERTEX
  5
126
  8
Layer_0
  10
593.4649
  20
408.64056
  0
VERTEX
  5
127
  8
Layer_0
  10
593.63702
  20
408.73248
  0
VERTEX
  5
128
  8
Layer_0
  10
593.78931
  20
408.85736
  0
VERTEX
  5
129
  8
Layer_0
  10
593.91425
  20
409.00964
  0
VERTEX
  5
12a
  8
Layer_0
  10
594.0061
  20
409.18176
  0
VERTEX
  5
12b
  8
Layer_0
  10
594.06287
  20
409.36847
  0
VERTEX
  5
12c
  8
Layer_0
  10
594.08221
  20
409.56445
  0
VERTEX
  5
12d
  8
Layer_0
  10
594.08221
  20
421.56445
  0
SEQEND
  0
POLYLINE
  5
12f
  8
Layer_0
  62
0
  70
1
  66
1
  10
0
  20
0
  30
0
  0
VERTEX
  5
12f
  8
Layer_0
  10
613.13226
  20
421.56445
  0
VERTEX
  5
130
  8
Layer_0
  10
613.1322
  20
409.56445
  0
VERTEX
  5
131
  8
Layer_0
  10
613.11285
  20
409.36847
  0
VERTEX
  5
132
  8
Layer_0
  10
613.05615
  20
409.18176
  0
VERTEX
  5
133
  8
Layer_0
  10
612.96423
  20
409.00964
  0
VERTEX
  5
134
  8
Layer_0
  10
612.83936
  20
408.85736
  0
VERTEX
  5
135
  8
Layer_0
  10
612.68707
  20
408.73245
  0
VERTEX
  5
136
  8
Layer_0
  10
612.51495
  20
408.64056
  0
VERTEX
  5
137
  8
Layer_0
  10
612.32825
  20
408.58386
  0
VERTEX
  5
138
  8
Layer_0
  10
612.1322
  20
408.56445
  0
VERTEX
  5
139
  8
Layer_0
  10
600.1322
  20
408.56445
  0
VERTEX
  5
13a
  8
Layer_0
  10
599.93762
  20
408.58337
  0
VERTEX
  5
13b
  8
Layer_0
  10
599.75543
  20
408.63785
  0
VERTEX
  5
13c
  8
Layer_0
  10
599.58948
  20
408.72433
  0
VERTEX
  5
13d
  8
Layer_0
  10
599.44348
  20
408.83929
  0
VERTEX
  5
13e
  8
Layer_0
  10
599.32117
  20
408.97919
  0
VERTEX
  5
13f
  8
Layer_0
  10
599.2262
  20
409.14047
  0
VERTEX
  5
140
  8
Layer_0
  10
599.16248
  20
409.31958
  0
VERTEX
  5
141
  8
Layer_0
  10
599.13354
  20
409.513
  0
VERTEX
  5
142
  8
Layer_0
  10
599.1322
  20
409.56445
  0
VERTEX
  5
143
  8
Layer_0
  10
599.1322
  20
421.56445
  0
VERTEX
  5
144
  8
Layer_0
  10
599.15112
  20
421.75909
  0
VERTEX
  5
145
  8
Layer_0
  10
599.20563
  20
421.94128
  0
VERTEX
  5
146
  8
Layer_0
  10
599.29211
  20
422.10721
  0
VERTEX
  5
147
  8
Layer_0
  10
599.4071
  20
422.25323
  0
VERTEX
  5
148
  8
Layer_0
  10
599.547
  20
422.37555
  0
VERTEX
  5
149
  8
Layer_0
  10
599.70825
  20
422.47046
  0
VERTEX
  5
14a
  8
Layer_0
  10
599.88733
  20
422.53424
  0
VERTEX
  5
14b
  8
Layer_0
  10
600.08075
  20
422.56317
  0
VERTEX
  5
14c
  8
Layer_0
  10
600.1322
  20
422.56445
  0
VERTEX
  5
14d
  8
Layer_0
  10
612.1322
  20
422.56445
  0
VERTEX
  5
14e
  8
Layer_0
  10
612.18341
  20
422.56317
  0
VERTEX
  5
14f
  8
Layer_0
  10
612.2345
  20
422.5593
  0
VERTEX
  5
150
  8
Layer_0
  10
612.41949
  20
422.52255
  0
VERTEX
  5
151
  8
Layer_0
  10
612.58997
  20
422.45389
  0
VERTEX
  5
152
  8
Layer_0
  10
612.74274
  20
422.35672
  0
VERTEX
  5
153
  8
Layer_0
  10
612.87469
  20
422.23453
  0
VERTEX
  5
154
  8
Layer_0
  10
612.98273
  20
422.09076
  0
VERTEX
  5
155
  8
Layer_0
  10
613.06372
  20
421.92886
  0
VERTEX
  5
156
  8
Layer_0
  10
613.11462
  20
421.75229
  0
VERTEX
  5
157
  8
Layer_0
  10
613.13226
  20
421.56445
  0
SEQEND
  0
POLYLINE
  5
159
  8
Layer_0
  62
0
  70
1
  66
1
  10
0
  20
0
  30
0
  0
VERTEX
  5
159
  8
Layer_0
  10
618.18225
  20
409.56445
  0
VERTEX
  5
15a
  8
Layer_0
  10
618.18225
  20
421.56445
  0
VERTEX
  5
15b
  8
Layer_0
  10
618.20117
  20
421.75909
  0
VERTEX
  5
15c
  8
Layer_0
  10
618.25562
  20
421.94128
  0
VERTEX
  5
15d
  8
Layer_0
  10
618.3421
  20
422.10721
  0
VERTEX
  5
15e
  8
Layer_0
  10
618.45709
  20
422.25323
  0
VERTEX
  5
15f
  8
Layer_0
  10
618.59698
  20
422.37555
  0
VERTEX
  5
160
  8
Layer_0
  10
618.75824
  20
422.47046
  0
VERTEX
  5
161
  8
Layer_0
  10
618.93738
  20
422.53424
  0
VERTEX
  5
162
  8
Layer_0
  10
619.13074
  20
422.56317
  0
VERTEX
  5
163
  8
Layer_0
  10
619.18225
  20
422.56445
  0
VERTEX
  5
164
  8
Layer_0
  10
631.18225
  20
422.56445
  0
VERTEX
  5
165
  8
Layer_0
  10
631.2337
  20
422.56317
  0
VERTEX
  5
166
  8
Layer_0
  10
631.42712
  20
422.53424
  0
VERTEX
  5
167
  8
Layer_0
  10
631.6062
  20
422.47046
  0
VERTEX
  5
168
  8
Layer_0
  10
631.76752
  20
422.37555
  0
VERTEX
  5
169
  8
Layer_0
  10
631.90741
  20
422.25323
  0
VERTEX
  5
16a
  8
Layer_0
  10
632.02234
  20
422.10721
  0
VERTEX
  5
16b
  8
Layer_0
  10
632.10883
  20
421.94128
  0
VERTEX
  5
16c
  8
Layer_0
  10
632.16333
  20
421.75909
  0
VERTEX
  5
16d
  8
Layer_0
  10
632.18225
  20
421.56445
  0
VERTEX
  5
16e
  8
Layer_0
  10
632.18225
  20
409.56445
  0
VERTEX
  5
16f
  8
Layer_0
  10
632.16284
  20
409.36847
  0
VERTEX
  5
170
  8
Layer_0
  10
632.10608
  20
409.18176
  0
VERTEX
  5
171
  8
Layer_0
  10
632.01422
  20
409.00964
  0
VERTEX
  5
172
  8
Layer_0
  10
631.88934
  20
408.85736
  0
VERTEX
  5
173
  8
Layer_0
  10
631.73706
  20
408.73248
  0
VERTEX
  5
174
  8
Layer_0
  10
631.56494
  20
408.64056
  0
VERTEX
  5
175
  8
Layer_0
  10
631.37823
  20
408.58386
  0
VERTEX
  5
176
  8
Layer_0
  10
631.18225
  20
408.56445
  0
VERTEX
  5
177
  8
Layer_0
  10
619.18225
  20
408.56445
  0
VERTEX
  5
178
  8
Layer_0
  10
618.98755
  20
408.58337
  0
VERTEX
  5
179
  8
Layer_0
  10
618.80542
  20
408.63788
  0
VERTEX
  5
17a
  8
Layer_0
  10
618.63947
  20
408.72437
  0
VERTEX
  5
17b
  8
Layer_0
  10
618.49347
  20
408.83932
  0
VERTEX
  5
17c
  8
Layer_0
  10
618.37115
  20
408.97922
  0
VERTEX
  5
17d
  8
Layer_0
  10
618.27625
  20
409.1405
  0
VERTEX
  5
17e
  8
Layer_0
  10
618.2124
  20
409.31958
  0
VERTEX
  5
17f
  8
Layer_0
  10
618.18353
  20
409.513
  0
VERTEX
  5
180
  8
Layer_0
  10
618.18225
  20
409.56445
  0
SEQEND
  0
POLYLINE
  5
182
  8
Layer_0
  62
0
  70
1
  66
1
  10
0
  20
0
  30
0
  0
VERTEX
  5
182
  8
Layer_0
  10
575.03223
  20
402.51447
  0
VERTEX
  5
183
  8
Layer_0
  10
575.01056
  20
402.72244
  0
VERTEX
  5
184
  8
Layer_0
  10
574.9469
  20
402.91931
  0
VERTEX
  5
185
  8
Layer_0
  10
574.84399
  20
403.09879
  0
VERTEX
  5
186
  8
Layer_0
  10
574.70459
  20
403.2547
  0
VERTEX
  5
187
  8
Layer_0
  10
574.55695
  20
403.36597
  0
VERTEX
  5
188
  8
Layer_0
  10
574.3927
  20
403.44751
  0
VERTEX
  5
189
  8
Layer_0
  10
574.21637
  20
403.49756
  0
VERTEX
  5
18a
  8
Layer_0
  10
574.03223
  20
403.51447
  0
VERTEX
  5
18b
  8
Layer_0
  10
562.03223
  20
403.51447
  0
VERTEX
  5
18c
  8
Layer_0
  10
561.98077
  20
403.51318
  0
VERTEX
  5
18d
  8
Layer_0
  10
561.78735
  20
403.48425
  0
VERTEX
  5
18e
  8
Layer_0
  10
561.60828
  20
403.42047
  0
VERTEX
  5
18f
  8
Layer_0
  10
561.44696
  20
403.32556
  0
VERTEX
  5
190
  8
Layer_0
  10
561.30707
  20
403.20322
  0
VERTEX
  5
191
  8
Layer_0
  10
561.19214
  20
403.05719
  0
VERTEX
  5
192
  8
Layer_0
  10
561.10559
  20
402.89127
  0
VERTEX
  5
193
  8
Layer_0
  10
561.05115
  20
402.70911
  0
VERTEX
  5
194
  8
Layer_0
  10
561.03223
  20
402.51447
  0
VERTEX
  5
195
  8
Layer_0
  10
561.03223
  20
390.51447
  0
VERTEX
  5
196
  8
Layer_0
  10
561.03357
  20
390.46301
  0
VERTEX
  5
197
  8
Layer_0
  10
561.06244
  20
390.26959
  0
VERTEX
  5
198
  8
Layer_0
  10
561.12622
  20
390.09048
  0
VERTEX
  5
199
  8
Layer_0
  10
561.22113
  20
389.9292
  0
VERTEX
  5
19a
  8
Layer_0
  10
561.34351
  20
389.78931
  0
VERTEX
  5
19b
  8
Layer_0
  10
561.4895
  20
389.67435
  0
VERTEX
  5
19c
  8
Layer_0
  10
561.6554
  20
389.58783
  0
VERTEX
  5
19d
  8
Layer_0
  10
561.83759
  20
389.53336
  0
VERTEX
  5
19e
  8
Layer_0
  10
562.03223
  20
389.51447
  0
VERTEX
  5
19f
  8
Layer_0
  10
574.03223
  20
389.51447
  0
VERTEX
  5
1a0
  8
Layer_0
  10
574.22821
  20
389.53384
  0
VERTEX
  5
1a1
  8
Layer_0
  10
574.41492
  20
389.59058
  0
VERTEX
  5
1a2
  8
Layer_0
  10
574.58704
  20
389.68246
  0
VERTEX
  5
1a3
  8
Layer_0
  10
574.73932
  20
389.80737
  0
VERTEX
  5
1a4
  8
Layer_0
  10
574.8642
  20
389.95966
  0
VERTEX
  5
1a5
  8
Layer_0
  10
574.95612
  20
390.13177
  0
VERTEX
  5
1a6
  8
Layer_0
  10
575.01282
  20
390.31848
  0
VERTEX
  5
1a7
  8
Layer_0
  10
575.03223
  20
390.51447
  0
VERTEX
  5
1a8
  8
Layer_0
  10
575.03223
  20
402.51447
  0
SEQEND
  0
POLYLINE
  5
1aa
  8
Layer_0
  62
0
  70
1
  66
1
  10
0
  20
0
  30
0
  0
VERTEX
  5
1aa
  8
Layer_0
  10
599.1322
  20
390.51447
  0
VERTEX
  5
1ab
  8
Layer_0
  10
599.1322
  20
402.51447
  0
VERTEX
  5
1ac
  8
Layer_0
  10
599.15112
  20
402.70911
  0
VERTEX
  5
1ad
  8
Layer_0
  10
599.20563
  20
402.89127
  0
VERTEX
  5
1ae
  8
Layer_0
  10
599.29211
  20
403.05722
  0
VERTEX
  5
1af
  8
Layer_0
  10
599.40704
  20
403.20325
  0
VERTEX
  5
1b0
  8
Layer_0
  10
599.54694
  20
403.32556
  0
VERTEX
  5
1b1
  8
Layer_0
  10
599.70825
  20
403.42047
  0
VERTEX
  5
1b2
  8
Layer_0
  10
599.88733
  20
403.48425
  0
VERTEX
  5
1b3
  8
Layer_0
  10
600.08075
  20
403.51318
  0
VERTEX
  5
1b4
  8
Layer_0
  10
600.1322
  20
403.51447
  0
VERTEX
  5
1b5
  8
Layer_0
  10
612.1322
  20
403.51447
  0
VERTEX
  5
1b6
  8
Layer_0
  10
612.30682
  20
403.4993
  0
VERTEX
  5
1b7
  8
Layer_0
  10
612.47607
  20
403.4538
  0
VERTEX
  5
1b8
  8
Layer_0
  10
612.74487
  20
403.30511
  0
VERTEX
  5
1b9
  8
Layer_0
  10
612.95197
  20
403.0874
  0
VERTEX
  5
1ba
  8
Layer_0
  10
613.08514
  20
402.81802
  0
VERTEX
  5
1bb
  8
Layer_0
  10
613.13226
  20
402.51447
  0
VERTEX
  5
1bc
  8
Layer_0
  10
613.1322
  20
390.51447
  0
VERTEX
  5
1bd
  8
Layer_0
  10
613.11285
  20
390.31845
  0
VERTEX
  5
1be
  8
Layer_0
  10
613.05615
  20
390.13177
  0
VERTEX
  5
1bf
  8
Layer_0
  10
612.96423
  20
389.95966
  0
VERTEX
  5
1c0
  8
Layer_0
  10
612.83936
  20
389.80737
  0
VERTEX
  5
1c1
  8
Layer_0
  10
612.68701
  20
389.6825
  0
VERTEX
  5
1c2
  8
Layer_0
  10
612.51489
  20
389.59061
  0
VERTEX
  5
1c3
  8
Layer_0
  10
612.32825
  20
389.53387
  0
VERTEX
  5
1c4
  8
Layer_0
  10
612.1322
  20
389.51447
  0
VERTEX
  5
1c5
  8
Layer_0
  10
600.1322
  20
389.51447
  0
VERTEX
  5
1c6
  8
Layer_0
  10
599.93762
  20
389.53339
  0
VERTEX
  5
1c7
  8
Layer_0
  10
599.75543
  20
389.58786
  0
VERTEX
  5
1c8
  8
Layer_0
  10
599.58948
  20
389.67438
  0
VERTEX
  5
1c9
  8
Layer_0
  10
599.44348
  20
389.78931
  0
VERTEX
  5
1ca
  8
Layer_0
  10
599.32117
  20
389.9292
  0
VERTEX
  5
1cb
  8
Layer_0
  10
599.2262
  20
390.09048
  0
VERTEX
  5
1cc
  8
Layer_0
  10
599.16248
  20
390.26959
  0
VERTEX
  5
1cd
  8
Layer_0
  10
599.13354
  20
390.46301
  0
VERTEX
  5
1ce
  8
Layer_0
  10
599.1322
  20
390.51447
  0
SEQEND
  0
POLYLINE
  5
1d0
  8
Layer_0
  62
0
  70
1
  66
1
  10
0
  20
0
  30
0
  0
VERTEX
  5
1d0
  8
Layer_0
  10
594.08228
  20
402.51447
  0
VERTEX
  5
1d1
  8
Layer_0
  10
594.08221
  20
390.51447
  0
VERTEX
  5
1d2
  8
Layer_0
  10
594.06287
  20
390.31848
  0
VERTEX
  5
1d3
  8
Layer_0
  10
594.0061
  20
390.13177
  0
VERTEX
  5
1d4
  8
Layer_0
  10
593.91418
  20
389.95966
  0
VERTEX
  5
1d5
  8
Layer_0
  10
593.78931
  20
389.80737
  0
VERTEX
  5
1d6
  8
Layer_0
  10
593.63702
  20
389.6825
  0
VERTEX
  5
1d7
  8
Layer_0
  10
593.4649
  20
389.59058
  0
VERTEX
  5
1d8
  8
Layer_0
  10
593.2782
  20
389.53387
  0
VERTEX
  5
1d9
  8
Layer_0
  10
593.08221
  20
389.51447
  0
VERTEX
  5
1da
  8
Layer_0
  10
581.08221
  20
389.51447
  0
VERTEX
  5
1db
  8
Layer_0
  10
580.88757
  20
389.53336
  0
VERTEX
  5
1dc
  8
Layer_0
  10
580.70544
  20
389.58783
  0
VERTEX
  5
1dd
  8
Layer_0
  10
580.53949
  20
389.67432
  0
VERTEX
  5
1de
  8
Layer_0
  10
580.39349
  20
389.78931
  0
VERTEX
  5
1df
  8
Layer_0
  10
580.27118
  20
389.9292
  0
VERTEX
  5
1e0
  8
Layer_0
  10
580.17621
  20
390.09045
  0
VERTEX
  5
1e1
  8
Layer_0
  10
580.11243
  20
390.26959
  0
VERTEX
  5
1e2
  8
Layer_0
  10
580.08356
  20
390.46301
  0
VERTEX
  5
1e3
  8
Layer_0
  10
580.08221
  20
390.51447
  0
VERTEX
  5
1e4
  8
Layer_0
  10
580.08221
  20
402.51447
  0
VERTEX
  5
1e5
  8
Layer_0
  10
580.10114
  20
402.70911
  0
VERTEX
  5
1e6
  8
Layer_0
  10
580.15564
  20
402.89127
  0
VERTEX
  5
1e7
  8
Layer_0
  10
580.24213
  20
403.05722
  0
VERTEX
  5
1e8
  8
Layer_0
  10
580.35706
  20
403.20325
  0
VERTEX
  5
1e9
  8
Layer_0
  10
580.49695
  20
403.32556
  0
VERTEX
  5
1ea
  8
Layer_0
  10
580.65826
  20
403.42047
  0
VERTEX
  5
1eb
  8
Layer_0
  10
580.83734
  20
403.48425
  0
VERTEX
  5
1ec
  8
Layer_0
  10
581.03076
  20
403.51318
  0
VERTEX
  5
1ed
  8
Layer_0
  10
581.08221
  20
403.51447
  0
VERTEX
  5
1ee
  8
Layer_0
  10
593.08221
  20
403.51447
  0
VERTEX
  5
1ef
  8
Layer_0
  10
593.32813
  20
403.48398
  0
VERTEX
  5
1f0
  8
Layer_0
  10
593.5589
  20
403.39377
  0
VERTEX
  5
1f1
  8
Layer_0
  10
593.77679
  20
403.23419
  0
VERTEX
  5
1f2
  8
Layer_0
  10
593.94159
  20
403.02612
  0
VERTEX
  5
1f3
  8
Layer_0
  10
594.0459
  20
402.78204
  0
VERTEX
  5
1f4
  8
Layer_0
  10
594.08228
  20
402.51447
  0
SEQEND
  0
POLYLINE
  5
1f6
  8
Layer_0
  62
0
  70
1
  66
1
  10
0
  20
0
  30
0
  0
VERTEX
  5
1f6
  8
Layer_0
  10
594.08228
  20
364.41446
  0
VERTEX
  5
1f7
  8
Layer_0
  10
594.08221
  20
352.41446
  0
VERTEX
  5
1f8
  8
Layer_0
  10
594.06287
  20
352.21848
  0
VERTEX
  5
1f9
  8
Layer_0
  10
594.0061
  20
352.0318
  0
VERTEX
  5
1fa
  8
Layer_0
  10
593.91418
  20
351.85968
  0
VERTEX
  5
1fb
  8
Layer_0
  10
593.78931
  20
351.70734
  0
VERTEX
  5
1fc
  8
Layer_0
  10
593.63708
  20
351.5824
  0
VERTEX
  5
1fd
  8
Layer_0
  10
593.46497
  20
351.49051
  0
VERTEX
  5
1fe
  8
Layer_0
  10
593.27826
  20
351.43381
  0
VERTEX
  5
1ff
  8
Layer_0
  10
593.08221
  20
351.41446
  0
VERTEX
  5
200
  8
Layer_0
  10
581.08221
  20
351.41446
  0
VERTEX
  5
201
  8
Layer_0
  10
580.88757
  20
351.43338
  0
VERTEX
  5
202
  8
Layer_0
  10
580.70544
  20
351.48785
  0
VERTEX
  5
203
  8
Layer_0
  10
580.53949
  20
351.57434
  0
VERTEX
  5
204
  8
Layer_0
  10
580.39349
  20
351.68933
  0
VERTEX
  5
205
  8
Layer_0
  10
580.27118
  20
351.82922
  0
VERTEX
  5
206
  8
Layer_0
  10
580.17627
  20
351.99048
  0
VERTEX
  5
207
  8
Layer_0
  10
580.11243
  20
352.16962
  0
VERTEX
  5
208
  8
Layer_0
  10
580.08356
  20
352.36301
  0
VERTEX
  5
209
  8
Layer_0
  10
580.08221
  20
352.41446
  0
VERTEX
  5
20a
  8
Layer_0
  10
580.08221
  20
364.41446
  0
VERTEX
  5
20b
  8
Layer_0
  10
580.10114
  20
364.6091
  0
VERTEX
  5
20c
  8
Layer_0
  10
580.15564
  20
364.79126
  0
VERTEX
  5
20d
  8
Layer_0
  10
580.24213
  20
364.95721
  0
VERTEX
  5
20e
  8
Layer_0
  10
580.35712
  20
365.10321
  0
VERTEX
  5
20f
  8
Layer_0
  10
580.49701
  20
365.22556
  0
VERTEX
  5
210
  8
Layer_0
  10
580.65826
  20
365.3205
  0
VERTEX
  5
211
  8
Layer_0
  10
580.83734
  20
365.38428
  0
VERTEX
  5
212
  8
Layer_0
  10
581.03076
  20
365.41315
  0
VERTEX
  5
213
  8
Layer_0
  10
581.08221
  20
365.41446
  0
VERTEX
  5
214
  8
Layer_0
  10
593.08221
  20
365.41446
  0
VERTEX
  5
215
  8
Layer_0
  10
593.32599
  20
365.38449
  0
VERTEX
  5
216
  8
Layer_0
  10
593.55188
  20
365.29758
  0
VERTEX
  5
217
  8
Layer_0
  10
593.75031
  20
365.15887
  0
VERTEX
  5
218
  8
Layer_0
  10
593.91144
  20
364.97357
  0
VERTEX
  5
219
  8
Layer_0
  10
593.98523
  20
364.8446
  0
VERTEX
  5
21a
  8
Layer_0
  10
594.03882
  20
364.70685
  0
VERTEX
  5
21b
  8
Layer_0
  10
594.07141
  20
364.56268
  0
VERTEX
  5
21c
  8
Layer_0
  10
594.08228
  20
364.41446
  0
SEQEND
  0
POLYLINE
  5
21e
  8
Layer_0
  62
0
  70
1
  66
1
  10
0
  20
0
  30
0
  0
VERTEX
  5
21e
  8
Layer_0
  10
613.1322
  20
364.41446
  0
VERTEX
  5
21f
  8
Layer_0
  10
613.11304
  20
364.61053
  0
VERTEX
  5
220
  8
Layer_0
  10
613.05634
  20
364.79727
  0
VERTEX
  5
221
  8
Layer_0
  10
612.96442
  20
364.96936
  0
VERTEX
  5
222
  8
Layer_0
  10
612.83936
  20
365.12158
  0
VERTEX
  5
223
  8
Layer_0
  10
612.68713
  20
365.24661
  0
VERTEX
  5
224
  8
Layer_0
  10
612.51501
  20
365.33859
  0
VERTEX
  5
225
  8
Layer_0
  10
612.32831
  20
365.39526
  0
VERTEX
  5
226
  8
Layer_0
  10
612.1322
  20
365.41446
  0
VERTEX
  5
227
  8
Layer_0
  10
600.1322
  20
365.41446
  0
VERTEX
  5
228
  8
Layer_0
  10
600.08075
  20
365.41315
  0
VERTEX
  5
229
  8
Layer_0
  10
599.88739
  20
365.38425
  0
VERTEX
  5
22a
  8
Layer_0
  10
599.70825
  20
365.32047
  0
VERTEX
  5
22b
  8
Layer_0
  10
599.547
  20
365.22552
  0
VERTEX
  5
22c
  8
Layer_0
  10
599.4071
  20
365.10321
  0
VERTEX
  5
22d
  8
Layer_0
  10
599.29218
  20
364.95721
  0
VERTEX
  5
22e
  8
Layer_0
  10
599.20569
  20
364.79126
  0
VERTEX
  5
22f
  8
Layer_0
  10
599.15118
  20
364.6091
  0
VERTEX
  5
230
  8
Layer_0
  10
599.1322
  20
364.41446
  0
VERTEX
  5
231
  8
Layer_0
  10
599.1322
  20
352.41446
  0
VERTEX
  5
232
  8
Layer_0
  10
599.13354
  20
352.36301
  0
VERTEX
  5
233
  8
Layer_0
  10
599.16248
  20
352.16962
  0
VERTEX
  5
234
  8
Layer_0
  10
599.22626
  20
351.99051
  0
VERTEX
  5
235
  8
Layer_0
  10
599.32117
  20
351.82925
  0
VERTEX
  5
236
  8
Layer_0
  10
599.44348
  20
351.68936
  0
VERTEX
  5
237
  8
Layer_0
  10
599.58948
  20
351.5744
  0
VERTEX
  5
238
  8
Layer_0
  10
599.75543
  20
351.48788
  0
VERTEX
  5
239
  8
Layer_0
  10
599.93762
  20
351.43341
  0
VERTEX
  5
23a
  8
Layer_0
  10
600.1322
  20
351.41446
  0
VERTEX
  5
23b
  8
Layer_0
  10
612.1322
  20
351.41446
  0
VERTEX
  5
23c
  8
Layer_0
  10
612.32825
  20
351.43393
  0
VERTEX
  5
23d
  8
Layer_0
  10
612.51489
  20
351.49066
  0
VERTEX
  5
23e
  8
Layer_0
  10
612.68701
  20
351.58252
  0
VERTEX
  5
23f
  8
Layer_0
  10
612.83936
  20
351.70734
  0
VERTEX
  5
240
  8
Layer_0
  10
612.96429
  20
351.85962
  0
VERTEX
  5
241
  8
Layer_0
  10
613.05621
  20
352.03174
  0
VERTEX
  5
242
  8
Layer_0
  10
613.11292
  20
352.21844
  0
VERTEX
  5
243
  8
Layer_0
  10
613.1322
  20
352.41446
  0
VERTEX
  5
244
  8
Layer_0
  10
613.1322
  20
364.41446
  0
SEQEND
  0
POLYLINE
  5
246
  8
Layer_0
  62
0
  70
1
  66
1
  10
0
  20
0
  30
0
  0
VERTEX
  5
246
  8
Layer_0
  10
561.03223
  20
352.41446
  0
VERTEX
  5
247
  8
Layer_0
  10
561.03223
  20
364.41446
  0
VERTEX
  5
248
  8
Layer_0
  10
561.05115
  20
364.6091
  0
VERTEX
  5
249
  8
Layer_0
  10
561.10559
  20
364.79126
  0
VERTEX
  5
24a
  8
Layer_0
  10
561.19214
  20
364.95721
  0
VERTEX
  5
24b
  8
Layer_0
  10
561.30707
  20
365.10321
  0
VERTEX
  5
24c
  8
Layer_0
  10
561.44696
  20
365.22552
  0
VERTEX
  5
24d
  8
Layer_0
  10
561.60828
  20
365.32047
  0
VERTEX
  5
24e
  8
Layer_0
  10
561.78735
  20
365.38425
  0
VERTEX
  5
24f
  8
Layer_0
  10
561.98077
  20
365.41315
  0
VERTEX
  5
250
  8
Layer_0
  10
562.03223
  20
365.41446
  0
VERTEX
  5
251
  8
Layer_0
  10
574.03223
  20
365.41446
  0
VERTEX
  5
252
  8
Layer_0
  10
574.33582
  20
365.36737
  0
VERTEX
  5
253
  8
Layer_0
  10
574.60516
  20
365.23419
  0
VERTEX
  5
254
  8
Layer_0
  10
574.82288
  20
365.0271
  0
VERTEX
  5
255
  8
Layer_0
  10
574.97156
  20
364.7583
  0
VERTEX
  5
256
  8
Layer_0
  10
575.01709
  20
364.58908
  0
VERTEX
  5
257
  8
Layer_0
  10
575.03223
  20
364.41446
  0
VERTEX
  5
258
  8
Layer_0
  10
575.03223
  20
352.41446
  0
VERTEX
  5
259
  8
Layer_0
  10
575.01282
  20
352.21844
  0
VERTEX
  5
25a
  8
Layer_0
  10
574.95612
  20
352.03177
  0
VERTEX
  5
25b
  8
Layer_0
  10
574.8642
  20
351.85965
  0
VERTEX
  5
25c
  8
Layer_0
  10
574.73932
  20
351.70734
  0
VERTEX
  5
25d
  8
Layer_0
  10
574.58704
  20
351.58246
  0
VERTEX
  5
25e
  8
Layer_0
  10
574.41492
  20
351.4906
  0
VERTEX
  5
25f
  8
Layer_0
  10
574.22821
  20
351.43387
  0
VERTEX
  5
260
  8
Layer_0
  10
574.03223
  20
351.41446
  0
VERTEX
  5
261
  8
Layer_0
  10
562.03223
  20
351.41446
  0
VERTEX
  5
262
  8
Layer_0
  10
561.83759
  20
351.43338
  0
VERTEX
  5
263
  8
Layer_0
  10
561.6554
  20
351.48785
  0
VERTEX
  5
264
  8
Layer_0
  10
561.4895
  20
351.57434
  0
VERTEX
  5
265
  8
Layer_0
  10
561.34351
  20
351.6893
  0
VERTEX
  5
266
  8
Layer_0
  10
561.22113
  20
351.82919
  0
VERTEX
  5
267
  8
Layer_0
  10
561.12622
  20
351.99048
  0
VERTEX
  5
268
  8
Layer_0
  10
561.06244
  20
352.16959
  0
VERTEX
  5
269
  8
Layer_0
  10
561.03357
  20
352.36301
  0
VERTEX
  5
26a
  8
Layer_0
  10
561.03223
  20
352.41446
  0
SEQEND
  0
POLYLINE
  5
26c
  8
Layer_0
  62
0
  70
1
  66
1
  10
0
  20
0
  30
0
  0
VERTEX
  5
26c
  8
Layer_0
  10
612.1322
  20
332.36447
  0
VERTEX
  5
26d
  8
Layer_0
  10
600.1322
  20
332.36444
  0
VERTEX
  5
26e
  8
Layer_0
  10
599.93762
  20
332.38333
  0
VERTEX
  5
26f
  8
Layer_0
  10
599.75543
  20
332.43781
  0
VERTEX
  5
270
  8
Layer_0
  10
599.58954
  20
332.52429
  0
VERTEX
  5
271
  8
Layer_0
  10
599.44354
  20
332.63925
  0
VERTEX
  5
272
  8
Layer_0
  10
599.32123
  20
332.77917
  0
VERTEX
  5
273
  8
Layer_0
  10
599.22626
  20
332.94046
  0
VERTEX
  5
274
  8
Layer_0
  10
599.16248
  20
333.1196
  0
VERTEX
  5
275
  8
Layer_0
  10
599.13354
  20
333.31299
  0
VERTEX
  5
276
  8
Layer_0
  10
599.1322
  20
333.36447
  0
VERTEX
  5
277
  8
Layer_0
  10
599.1322
  20
345.36447
  0
VERTEX
  5
278
  8
Layer_0
  10
599.15112
  20
345.55911
  0
VERTEX
  5
279
  8
Layer_0
  10
599.20563
  20
345.74127
  0
VERTEX
  5
27a
  8
Layer_0
  10
599.29211
  20
345.90723
  0
VERTEX
  5
27b
  8
Layer_0
  10
599.4071
  20
346.05325
  0
VERTEX
  5
27c
  8
Layer_0
  10
599.547
  20
346.1756
  0
VERTEX
  5
27d
  8
Layer_0
  10
599.70825
  20
346.27051
  0
VERTEX
  5
27e
  8
Layer_0
  10
599.88733
  20
346.33426
  0
VERTEX
  5
27f
  8
Layer_0
  10
600.08075
  20
346.36316
  0
VERTEX
  5
280
  8
Layer_0
  10
600.1322
  20
346.36447
  0
VERTEX
  5
281
  8
Layer_0
  10
612.1322
  20
346.36447
  0
VERTEX
  5
282
  8
Layer_0
  10
612.36401
  20
346.3374
  0
VERTEX
  5
283
  8
Layer_0
  10
612.58051
  20
346.25861
  0
VERTEX
  5
284
  8
Layer_0
  10
612.77313
  20
346.13232
  0
VERTEX
  5
285
  8
Layer_0
  10
612.93359
  20
345.96277
  0
VERTEX
  5
286
  8
Layer_0
  10
613.01917
  20
345.82678
  0
VERTEX
  5
287
  8
Layer_0
  10
613.08148
  20
345.67975
  0
VERTEX
  5
288
  8
Layer_0
  10
613.11945
  20
345.52466
  0
VERTEX
  5
289
  8
Layer_0
  10
613.13226
  20
345.36447
  0
VERTEX
  5
28a
  8
Layer_0
  10
613.1322
  20
333.36447
  0
VERTEX
  5
28b
  8
Layer_0
  10
613.11285
  20
333.16846
  0
VERTEX
  5
28c
  8
Layer_0
  10
613.05615
  20
332.98175
  0
VERTEX
  5
28d
  8
Layer_0
  10
612.96423
  20
332.8096
  0
VERTEX
  5
28e
  8
Layer_0
  10
612.83936
  20
332.65735
  0
VERTEX
  5
28f
  8
Layer_0
  10
612.68707
  20
332.53247
  0
VERTEX
  5
290
  8
Layer_0
  10
612.51495
  20
332.44061
  0
VERTEX
  5
291
  8
Layer_0
  10
612.32825
  20
332.38391
  0
VERTEX
  5
292
  8
Layer_0
  10
612.1322
  20
332.36447
  0
SEQEND
  0
POLYLINE
  5
294
  8
Layer_0
  62
0
  70
1
  66
1
  10
0
  20
0
  30
0
  0
VERTEX
  5
294
  8
Layer_0
  10
631.18372
  20
332.35498
  0
VERTEX
  5
295
  8
Layer_0
  10
631.23334
  20
332.3562
  0
VERTEX
  5
296
  8
Layer_0
  10
631.41589
  20
332.38229
  0
VERTEX
  5
297
  8
Layer_0
  10
631.58917
  20
332.44092
  0
VERTEX
  5
298
  8
Layer_0
  10
631.7489
  20
332.53006
  0
VERTEX
  5
299
  8
Layer_0
  10
631.89087
  20
332.64786
  0
VERTEX
  5
29a
  8
Layer_0
  10
632.01575
  20
332.80017
  0
VERTEX
  5
29b
  8
Layer_0
  10
632.1076
  20
332.97229
  0
VERTEX
  5
29c
  8
Layer_0
  10
632.16431
  20
333.159
  0
VERTEX
  5
29d
  8
Layer_0
  10
632.18372
  20
333.35498
  0
VERTEX
  5
29e
  8
Layer_0
  10
632.18372
  20
364.40497
  0
VERTEX
  5
29f
  8
Layer_0
  10
632.15656
  20
364.63678
  0
VERTEX
  5
2a0
  8
Layer_0
  10
632.07776
  20
364.85327
  0
VERTEX
  5
2a1
  8
Layer_0
  10
631.95154
  20
365.0459
  0
VERTEX
  5
2a2
  8
Layer_0
  10
631.78204
  20
365.2063
  0
VERTEX
  5
2a3
  8
Layer_0
  10
631.64606
  20
365.29193
  0
VERTEX
  5
2a4
  8
Layer_0
  10
631.49902
  20
365.35425
  0
VERTEX
  5
2a5
  8
Layer_0
  10
631.34393
  20
365.39224
  0
VERTEX
  5
2a6
  8
Layer_0
  10
631.18372
  20
365.40497
  0
VERTEX
  5
2a7
  8
Layer_0
  10
619.18372
  20
365.40497
  0
VERTEX
  5
2a8
  8
Layer_0
  10
619.11383
  20
365.40253
  0
VERTEX
  5
2a9
  8
Layer_0
  10
618.86084
  20
365.3515
  0
VERTEX
  5
2aa
  8
Layer_0
  10
618.63281
  20
365.23965
  0
VERTEX
  5
2ab
  8
Layer_0
  10
618.44037
  20
365.07401
  0
VERTEX
  5
2ac
  8
Layer_0
  10
618.29401
  20
364.86148
  0
VERTEX
  5
2ad
  8
Layer_0
  10
618.13562
  20
364.63568
  0
VERTEX
  5
2ae
  8
Layer_0
  10
617.92566
  20
364.46445
  0
VERTEX
  5
2af
  8
Layer_0
  10
617.67749
  20
364.35583
  0
VERTEX
  5
2b0
  8
Layer_0
  10
617.4043
  20
364.31799
  0
VERTEX
  5
2b1
  8
Layer_0
  10
617.15887
  20
364.31766
  0
VERTEX
  5
2b2
  8
Layer_0
  10
616.9696
  20
364.2948
  0
VERTEX
  5
2b3
  8
Layer_0
  10
616.78961
  20
364.23706
  0
VERTEX
  5
2b4
  8
Layer_0
  10
616.62366
  20
364.14648
  0
VERTEX
  5
2b5
  8
Layer_0
  10
616.47662
  20
364.02509
  0
VERTEX
  5
2b6
  8
Layer_0
  10
616.45923
  20
364.00732
  0
VERTEX
  5
2b7
  8
Layer_0
  10
616.34155
  20
363.85727
  0
VERTEX
  5
2b8
  8
Layer_0
  10
616.25513
  20
363.68918
  0
VERTEX
  5
2b9
  8
Layer_0
  10
616.20184
  20
363.50781
  0
VERTEX
  5
2ba
  8
Layer_0
  10
616.18372
  20
363.31799
  0
VERTEX
  5
2bb
  8
Layer_0
  10
616.18408
  20
358.29315
  0
VERTEX
  5
2bc
  8
Layer_0
  10
616.20685
  20
358.10379
  0
VERTEX
  5
2bd
  8
Layer_0
  10
616.26459
  20
357.9238
  0
VERTEX
  5
2be
  8
Layer_0
  10
616.35516
  20
357.7579
  0
VERTEX
  5
2bf
  8
Layer_0
  10
616.47662
  20
357.61084
  0
VERTEX
  5
2c0
  8
Layer_0
  10
616.62891
  20
357.48602
  0
VERTEX
  5
2c1
  8
Layer_0
  10
616.80109
  20
357.3942
  0
VERTEX
  5
2c2
  8
Layer_0
  10
616.98773
  20
357.33746
  0
VERTEX
  5
2c3
  8
Layer_0
  10
617.39166
  20
357.29626
  0
VERTEX
  5
2c4
  8
Layer_0
  10
617.5885
  20
357.23257
  0
VERTEX
  5
2c5
  8
Layer_0
  10
617.76801
  20
357.12967
  0
VERTEX
  5
2c6
  8
Layer_0
  10
617.92395
  20
356.99033
  0
VERTEX
  5
2c7
  8
Layer_0
  10
618.03522
  20
356.84268
  0
VERTEX
  5
2c8
  8
Layer_0
  10
618.11682
  20
356.67847
  0
VERTEX
  5
2c9
  8
Layer_0
  10
618.16687
  20
356.50211
  0
VERTEX
  5
2ca
  8
Layer_0
  10
618.18372
  20
356.31796
  0
VERTEX
  5
2cb
  8
Layer_0
  10
618.18372
  20
341.44196
  0
VERTEX
  5
2cc
  8
Layer_0
  10
618.16437
  20
341.24594
  0
VERTEX
  5
2cd
  8
Layer_0
  10
618.10767
  20
341.05927
  0
VERTEX
  5
2ce
  8
Layer_0
  10
618.01575
  20
340.88712
  0
VERTEX
  5
2cf
  8
Layer_0
  10
617.89087
  20
340.73483
  0
VERTEX
  5
2d0
  8
Layer_0
  10
617.73853
  20
340.60995
  0
VERTEX
  5
2d1
  8
Layer_0
  10
617.56641
  20
340.51807
  0
VERTEX
  5
2d2
  8
Layer_0
  10
617.37976
  20
340.46136
  0
VERTEX
  5
2d3
  8
Layer_0
  10
617.18372
  20
340.44196
  0
VERTEX
  5
2d4
  8
Layer_0
  10
617.13226
  20
340.44067
  0
VERTEX
  5
2d5
  8
Layer_0
  10
616.93884
  20
340.41174
  0
VERTEX
  5
2d6
  8
Layer_0
  10
616.75977
  20
340.34793
  0
VERTEX
  5
2d7
  8
Layer_0
  10
616.59845
  20
340.25299
  0
VERTEX
  5
2d8
  8
Layer_0
  10
616.45856
  20
340.13068
  0
VERTEX
  5
2d9
  8
Layer_0
  10
616.34357
  20
339.98468
  0
VERTEX
  5
2da
  8
Layer_0
  10
616.25708
  20
339.81876
  0
VERTEX
  5
2db
  8
Layer_0
  10
616.20264
  20
339.6366
  0
VERTEX
  5
2dc
  8
Layer_0
  10
616.18372
  20
339.44196
  0
VERTEX
  5
2dd
  8
Layer_0
  10
616.18372
  20
334.44196
  0
VERTEX
  5
2de
  8
Layer_0
  10
616.18506
  20
334.3905
  0
VERTEX
  5
2df
  8
Layer_0
  10
616.21399
  20
334.19711
  0
VERTEX
  5
2e0
  8
Layer_0
  10
616.27777
  20
334.01801
  0
VERTEX
  5
2e1
  8
Layer_0
  10
616.37268
  20
333.85672
  0
VERTEX
  5
2e2
  8
Layer_0
  10
616.49506
  20
333.71686
  0
VERTEX
  5
2e3
  8
Layer_0
  10
616.64105
  20
333.60187
  0
VERTEX
  5
2e4
  8
Layer_0
  10
616.80695
  20
333.51538
  0
VERTEX
  5
2e5
  8
Layer_0
  10
616.98914
  20
333.46088
  0
VERTEX
  5
2e6
  8
Layer_0
  10
617.18372
  20
333.44196
  0
VERTEX
  5
2e7
  8
Layer_0
  10
617.4043
  20
333.44199
  0
VERTEX
  5
2e8
  8
Layer_0
  10
617.64294
  20
333.41309
  0
VERTEX
  5
2e9
  8
Layer_0
  10
617.86487
  20
333.32956
  0
VERTEX
  5
2ea
  8
Layer_0
  10
618.06091
  20
333.19617
  0
VERTEX
  5
2eb
  8
Layer_0
  10
618.22198
  20
333.01761
  0
VERTEX
  5
2ec
  8
Layer_0
  10
618.26007
  20
332.95932
  0
VERTEX
  5
2ed
  8
Layer_0
  10
618.32806
  20
332.83737
  0
VERTEX
  5
2ee
  8
Layer_0
  10
618.48901
  20
332.63568
  0
VERTEX
  5
2ef
  8
Layer_0
  10
618.69263
  20
332.48389
  0
VERTEX
  5
2f0
  8
Layer_0
  10
618.92786
  20
332.38824
  0
VERTEX
  5
2f1
  8
Layer_0
  10
619.18372
  20
332.35498
  0
VERTEX
  5
2f2
  8
Layer_0
  10
631.18372
  20
332.35498
  0
SEQEND
  0
POLYLINE
  5
2f4
  8
Layer_0
  62
0
  70
1
  66
1
  10
0
  20
0
  30
0
  0
VERTEX
  5
2f4
  8
Layer_0
  10
631.18292
  20
370.46597
  0
VERTEX
  5
2f5
  8
Layer_0
  10
631.37897
  20
370.48532
  0
VERTEX
  5
2f6
  8
Layer_0
  10
631.56561
  20
370.54205
  0
VERTEX
  5
2f7
  8
Layer_0
  10
631.73773
  20
370.63394
  0
VERTEX
  5
2f8
  8
Layer_0
  10
631.89008
  20
370.75885
  0
VERTEX
  5
2f9
  8
Layer_0
  10
632.01495
  20
370.91113
  0
VERTEX
  5
2fa
  8
Layer_0
  10
632.10687
  20
371.08325
  0
VERTEX
  5
2fb
  8
Layer_0
  10
632.16357
  20
371.26996
  0
VERTEX
  5
2fc
  8
Layer_0
  10
632.18292
  20
371.46597
  0
VERTEX
  5
2fd
  8
Layer_0
  10
632.18298
  20
402.51599
  0
VERTEX
  5
2fe
  8
Layer_0
  10
632.16992
  20
402.67737
  0
VERTEX
  5
2ff
  8
Layer_0
  10
632.13196
  20
402.83157
  0
VERTEX
  5
300
  8
Layer_0
  10
632.07086
  20
402.9762
  0
VERTEX
  5
301
  8
Layer_0
  10
631.98834
  20
403.10883
  0
VERTEX
  5
302
  8
Layer_0
  10
631.88629
  20
403.22702
  0
VERTEX
  5
303
  8
Layer_0
  10
631.76642
  20
403.32837
  0
VERTEX
  5
304
  8
Layer_0
  10
631.63049
  20
403.41052
  0
VERTEX
  5
305
  8
Layer_0
  10
631.48029
  20
403.47101
  0
VERTEX
  5
306
  8
Layer_0
  10
631.33331
  20
403.5047
  0
VERTEX
  5
307
  8
Layer_0
  10
631.18292
  20
403.51599
  0
VERTEX
  5
308
  8
Layer_0
  10
619.18292
  20
403.51596
  0
VERTEX
  5
309
  8
Layer_0
  10
619.11304
  20
403.51352
  0
VERTEX
  5
30a
  8
Layer_0
  10
618.86011
  20
403.46246
  0
VERTEX
  5
30b
  8
Layer_0
  10
618.63208
  20
403.35059
  0
VERTEX
  5
30c
  8
Layer_0
  10
618.43964
  20
403.18494
  0
VERTEX
  5
30d
  8
Layer_0
  10
618.29321
  20
402.97247
  0
VERTEX
  5
30e
  8
Layer_0
  10
618.1347
  20
402.7468
  0
VERTEX
  5
30f
  8
Layer_0
  10
617.9248
  20
402.57562
  0
VERTEX
  5
310
  8
Layer_0
  10
617.67664
  20
402.46698
  0
VERTEX
  5
311
  8
Layer_0
  10
617.4035
  20
402.42899
  0
VERTEX
  5
312
  8
Layer_0
  10
617.15808
  20
402.42865
  0
VERTEX
  5
313
  8
Layer_0
  10
616.96875
  20
402.40579
  0
VERTEX
  5
314
  8
Layer_0
  10
616.78882
  20
402.34805
  0
VERTEX
  5
315
  8
Layer_0
  10
616.62286
  20
402.25748
  0
VERTEX
  5
316
  8
Layer_0
  10
616.47583
  20
402.13611
  0
VERTEX
  5
317
  8
Layer_0
  10
616.45844
  20
402.11835
  0
VERTEX
  5
318
  8
Layer_0
  10
616.34076
  20
401.96826
  0
VERTEX
  5
319
  8
Layer_0
  10
616.25439
  20
401.80017
  0
VERTEX
  5
31a
  8
Layer_0
  10
616.20111
  20
401.6188
  0
VERTEX
  5
31b
  8
Layer_0
  10
616.18292
  20
401.42899
  0
VERTEX
  5
31c
  8
Layer_0
  10
616.18323
  20
396.40414
  0
VERTEX
  5
31d
  8
Layer_0
  10
616.20612
  20
396.21481
  0
VERTEX
  5
31e
  8
Layer_0
  10
616.26385
  20
396.03482
  0
VERTEX
  5
31f
  8
Layer_0
  10
616.35443
  20
395.86893
  0
VERTEX
  5
320
  8
Layer_0
  10
616.47583
  20
395.72183
  0
VERTEX
  5
321
  8
Layer_0
  10
616.49359
  20
395.7045
  0
VERTEX
  5
322
  8
Layer_0
  10
616.64368
  20
395.58682
  0
VERTEX
  5
323
  8
Layer_0
  10
616.81177
  20
395.5004
  0
VERTEX
  5
324
  8
Layer_0
  10
616.9931
  20
395.44714
  0
VERTEX
  5
325
  8
Layer_0
  10
617.18292
  20
395.42896
  0
VERTEX
  5
326
  8
Layer_0
  10
617.40527
  20
395.40414
  0
VERTEX
  5
327
  8
Layer_0
  10
617.61646
  20
395.33032
  0
VERTEX
  5
328
  8
Layer_0
  10
617.85107
  20
395.17325
  0
VERTEX
  5
329
  8
Layer_0
  10
618.0296
  20
394.9613
  0
VERTEX
  5
32a
  8
Layer_0
  10
618.14313
  20
394.70853
  0
VERTEX
  5
32b
  8
Layer_0
  10
618.18292
  20
394.42896
  0
VERTEX
  5
32c
  8
Layer_0
  10
618.18292
  20
379.55298
  0
VERTEX
  5
32d
  8
Layer_0
  10
618.16357
  20
379.35693
  0
VERTEX
  5
32e
  8
Layer_0
  10
618.10687
  20
379.17026
  0
VERTEX
  5
32f
  8
Layer_0
  10
618.01495
  20
378.99811
  0
VERTEX
  5
330
  8
Layer_0
  10
617.89008
  20
378.84583
  0
VERTEX
  5
331
  8
Layer_0
  10
617.73773
  20
378.72101
  0
VERTEX
  5
332
  8
Layer_0
  10
617.56561
  20
378.62912
  0
VERTEX
  5
333
  8
Layer_0
  10
617.37891
  20
378.57239
  0
VERTEX
  5
334
  8
Layer_0
  10
617.18292
  20
378.55298
  0
VERTEX
  5
335
  8
Layer_0
  10
617.13147
  20
378.55167
  0
VERTEX
  5
336
  8
Layer_0
  10
616.93805
  20
378.52271
  0
VERTEX
  5
337
  8
Layer_0
  10
616.75897
  20
378.45889
  0
VERTEX
  5
338
  8
Layer_0
  10
616.59772
  20
378.36398
  0
VERTEX
  5
339
  8
Layer_0
  10
616.45776
  20
378.24164
  0
VERTEX
  5
33a
  8
Layer_0
  10
616.34283
  20
378.09567
  0
VERTEX
  5
33b
  8
Layer_0
  10
616.25635
  20
377.92975
  0
VERTEX
  5
33c
  8
Layer_0
  10
616.20184
  20
377.74759
  0
VERTEX
  5
33d
  8
Layer_0
  10
616.18292
  20
377.55298
  0
VERTEX
  5
33e
  8
Layer_0
  10
616.18292
  20
372.55298
  0
VERTEX
  5
33f
  8
Layer_0
  10
616.1842
  20
372.5015
  0
VERTEX
  5
340
  8
Layer_0
  10
616.21313
  20
372.30811
  0
VERTEX
  5
341
  8
Layer_0
  10
616.27686
  20
372.12897
  0
VERTEX
  5
342
  8
Layer_0
  10
616.37183
  20
371.96768
  0
VERTEX
  5
343
  8
Layer_0
  10
616.49414
  20
371.82779
  0
VERTEX
  5
344
  8
Layer_0
  10
616.64014
  20
371.71283
  0
VERTEX
  5
345
  8
Layer_0
  10
616.80615
  20
371.62634
  0
VERTEX
  5
346
  8
Layer_0
  10
616.98828
  20
371.57187
  0
VERTEX
  5
347
  8
Layer_0
  10
617.18292
  20
371.55298
  0
VERTEX
  5
348
  8
Layer_0
  10
617.4035
  20
371.55298
  0
VERTEX
  5
349
  8
Layer_0
  10
617.57422
  20
371.53833
  0
VERTEX
  5
34a
  8
Layer_0
  10
617.73883
  20
371.49512
  0
VERTEX
  5
34b
  8
Layer_0
  10
617.89368
  20
371.42462
  0
VERTEX
  5
34c
  8
Layer_0
  10
618.03534
  20
371.32806
  0
VERTEX
  5
34d
  8
Layer_0
  10
618.18079
  20
371.18213
  0
VERTEX
  5
34e
  8
Layer_0
  10
618.29315
  20
371.00946
  0
VERTEX
  5
34f
  8
Layer_0
  10
618.32727
  20
370.94836
  0
VERTEX
  5
350
  8
Layer_0
  10
618.48816
  20
370.74664
  0
VERTEX
  5
351
  8
Layer_0
  10
618.69177
  20
370.59485
  0
VERTEX
  5
352
  8
Layer_0
  10
618.92706
  20
370.49924
  0
VERTEX
  5
353
  8
Layer_0
  10
619.18292
  20
370.46597
  0
VERTEX
  5
354
  8
Layer_0
  10
631.18292
  20
370.46597
  0
SEQEND
  0
POLYLINE
  5
356
  8
Layer_0
  62
0
  70
1
  66
1
  10
0
  20
0
  30
0
  0
VERTEX
  5
356
  8
Layer_0
  10
599.1322
  20
371.46448
  0
VERTEX
  5
357
  8
Layer_0
  10
599.1322
  20
383.46448
  0
VERTEX
  5
358
  8
Layer_0
  10
599.15112
  20
383.65912
  0
VERTEX
  5
359
  8
Layer_0
  10
599.20563
  20
383.84125
  0
VERTEX
  5
35a
  8
Layer_0
  10
599.29211
  20
384.0072
  0
VERTEX
  5
35b
  8
Layer_0
  10
599.40704
  20
384.1532
  0
VERTEX
  5
35c
  8
Layer_0
  10
599.54694
  20
384.27554
  0
VERTEX
  5
35d
  8
Layer_0
  10
599.70825
  20
384.37048
  0
VERTEX
  5
35e
  8
Layer_0
  10
599.88733
  20
384.43427
  0
VERTEX
  5
35f
  8
Layer_0
  10
600.08075
  20
384.46317
  0
VERTEX
  5
360
  8
Layer_0
  10
600.1322
  20
384.46448
  0
VERTEX
  5
361
  8
Layer_0
  10
612.1322
  20
384.46448
  0
VERTEX
  5
362
  8
Layer_0
  10
612.2804
  20
384.45355
  0
VERTEX
  5
363
  8
Layer_0
  10
612.42456
  20
384.42099
  0
VERTEX
  5
364
  8
Layer_0
  10
612.56238
  20
384.36746
  0
VERTEX
  5
365
  8
Layer_0
  10
612.69135
  20
384.2937
  0
VERTEX
  5
366
  8
Layer_0
  10
612.87659
  20
384.13251
  0
VERTEX
  5
367
  8
Layer_0
  10
613.01526
  20
383.93408
  0
VERTEX
  5
368
  8
Layer_0
  10
613.10217
  20
383.70819
  0
VERTEX
  5
369
  8
Layer_0
  10
613.13226
  20
383.46448
  0
VERTEX
  5
36a
  8
Layer_0
  10
613.1322
  20
371.46448
  0
VERTEX
  5
36b
  8
Layer_0
  10
613.11285
  20
371.26846
  0
VERTEX
  5
36c
  8
Layer_0
  10
613.05609
  20
371.08179
  0
VERTEX
  5
36d
  8
Layer_0
  10
612.96423
  20
370.90967
  0
VERTEX
  5
36e
  8
Layer_0
  10
612.83936
  20
370.75735
  0
VERTEX
  5
36f
  8
Layer_0
  10
612.68701
  20
370.63245
  0
VERTEX
  5
370
  8
Layer_0
  10
612.51489
  20
370.54056
  0
VERTEX
  5
371
  8
Layer_0
  10
612.32825
  20
370.48383
  0
VERTEX
  5
372
  8
Layer_0
  10
612.1322
  20
370.46448
  0
VERTEX
  5
373
  8
Layer_0
  10
600.1322
  20
370.46448
  0
VERTEX
  5
374
  8
Layer_0
  10
599.93756
  20
370.48337
  0
VERTEX
  5
375
  8
Layer_0
  10
599.75543
  20
370.53784
  0
VERTEX
  5
376
  8
Layer_0
  10
599.58948
  20
370.62433
  0
VERTEX
  5
377
  8
Layer_0
  10
599.44348
  20
370.73929
  0
VERTEX
  5
378
  8
Layer_0
  10
599.32117
  20
370.87918
  0
VERTEX
  5
379
  8
Layer_0
  10
599.2262
  20
371.04047
  0
VERTEX
  5
37a
  8
Layer_0
  10
599.16241
  20
371.21957
  0
VERTEX
  5
37b
  8
Layer_0
  10
599.13354
  20
371.41299
  0
VERTEX
  5
37c
  8
Layer_0
  10
599.1322
  20
371.46448
  0
SEQEND
  0
POLYLINE
  5
37e
  8
Layer_0
  62
0
  70
1
  66
1
  10
0
  20
0
  30
0
  0
VERTEX
  5
37e
  8
Layer_0
  10
580.08221
  20
371.46448
  0
VERTEX
  5
37f
  8
Layer_0
  10
580.08221
  20
383.46448
  0
VERTEX
  5
380
  8
Layer_0
  10
580.10114
  20
383.65912
  0
VERTEX
  5
381
  8
Layer_0
  10
580.15564
  20
383.84128
  0
VERTEX
  5
382
  8
Layer_0
  10
580.24207
  20
384.0072
  0
VERTEX
  5
383
  8
Layer_0
  10
580.35706
  20
384.15323
  0
VERTEX
  5
384
  8
Layer_0
  10
580.49695
  20
384.27557
  0
VERTEX
  5
385
  8
Layer_0
  10
580.65826
  20
384.37048
  0
VERTEX
  5
386
  8
Layer_0
  10
580.83734
  20
384.43427
  0
VERTEX
  5
387
  8
Layer_0
  10
581.03076
  20
384.46317
  0
VERTEX
  5
388
  8
Layer_0
  10
581.08221
  20
384.46448
  0
VERTEX
  5
389
  8
Layer_0
  10
593.08221
  20
384.46448
  0
VERTEX
  5
38a
  8
Layer_0
  10
593.27832
  20
384.44525
  0
VERTEX
  5
38b
  8
Layer_0
  10
593.46503
  20
384.38855
  0
VERTEX
  5
38c
  8
Layer_0
  10
593.63715
  20
384.29663
  0
VERTEX
  5
38d
  8
Layer_0
  10
593.78937
  20
384.17157
  0
VERTEX
  5
38e
  8
Layer_0
  10
593.91437
  20
384.01935
  0
VERTEX
  5
38f
  8
Layer_0
  10
594.00635
  20
383.84723
  0
VERTEX
  5
390
  8
Layer_0
  10
594.06299
  20
383.66052
  0
VERTEX
  5
391
  8
Layer_0
  10
594.08228
  20
383.46448
  0
VERTEX
  5
392
  8
Layer_0
  10
594.08221
  20
371.46448
  0
VERTEX
  5
393
  8
Layer_0
  10
594.06281
  20
371.26846
  0
VERTEX
  5
394
  8
Layer_0
  10
594.0061
  20
371.08179
  0
VERTEX
  5
395
  8
Layer_0
  10
593.91418
  20
370.90967
  0
VERTEX
  5
396
  8
Layer_0
  10
593.78931
  20
370.75735
  0
VERTEX
  5
397
  8
Layer_0
  10
593.63708
  20
370.63242
  0
VERTEX
  5
398
  8
Layer_0
  10
593.46497
  20
370.54053
  0
VERTEX
  5
399
  8
Layer_0
  10
593.27826
  20
370.4838
  0
VERTEX
  5
39a
  8
Layer_0
  10
593.08221
  20
370.46448
  0
VERTEX
  5
39b
  8
Layer_0
  10
581.08221
  20
370.46448
  0
VERTEX
  5
39c
  8
Layer_0
  10
580.88757
  20
370.48337
  0
VERTEX
  5
39d
  8
Layer_0
  10
580.70544
  20
370.53784
  0
VERTEX
  5
39e
  8
Layer_0
  10
580.53949
  20
370.62433
  0
VERTEX
  5
39f
  8
Layer_0
  10
580.39343
  20
370.73929
  0
VERTEX
  5
3a0
  8
Layer_0
  10
580.27112
  20
370.87918
  0
VERTEX
  5
3a1
  8
Layer_0
  10
580.17621
  20
371.04047
  0
VERTEX
  5
3a2
  8
Layer_0
  10
580.11243
  20
371.21957
  0
VERTEX
  5
3a3
  8
Layer_0
  10
580.08356
  20
371.41299
  0
VERTEX
  5
3a4
  8
Layer_0
  10
580.08221
  20
371.46448
  0
SEQEND
  0
POLYLINE
  5
3a6
  8
Layer_0
  62
0
  70
1
  66
1
  10
0
  20
0
  30
0
  0
VERTEX
  5
3a6
  8
Layer_0
  10
575.03223
  20
383.46448
  0
VERTEX
  5
3a7
  8
Layer_0
  10
575.03223
  20
371.46448
  0
VERTEX
  5
3a8
  8
Layer_0
  10
575.01282
  20
371.26846
  0
VERTEX
  5
3a9
  8
Layer_0
  10
574.95612
  20
371.08176
  0
VERTEX
  5
3aa
  8
Layer_0
  10
574.86426
  20
370.90964
  0
VERTEX
  5
3ab
  8
Layer_0
  10
574.73932
  20
370.75735
  0
VERTEX
  5
3ac
  8
Layer_0
  10
574.58704
  20
370.63248
  0
VERTEX
  5
3ad
  8
Layer_0
  10
574.41492
  20
370.54059
  0
VERTEX
  5
3ae
  8
Layer_0
  10
574.22827
  20
370.48389
  0
VERTEX
  5
3af
  8
Layer_0
  10
574.03223
  20
370.46448
  0
VERTEX
  5
3b0
  8
Layer_0
  10
562.03223
  20
370.46448
  0
VERTEX
  5
3b1
  8
Layer_0
  10
561.83759
  20
370.48337
  0
VERTEX
  5
3b2
  8
Layer_0
  10
561.6554
  20
370.53784
  0
VERTEX
  5
3b3
  8
Layer_0
  10
561.4895
  20
370.62433
  0
VERTEX
  5
3b4
  8
Layer_0
  10
561.34351
  20
370.73932
  0
VERTEX
  5
3b5
  8
Layer_0
  10
561.22113
  20
370.87921
  0
VERTEX
  5
3b6
  8
Layer_0
  10
561.12622
  20
371.04047
  0
VERTEX
  5
3b7
  8
Layer_0
  10
561.06244
  20
371.2196
  0
VERTEX
  5
3b8
  8
Layer_0
  10
561.03357
  20
371.41299
  0
VERTEX
  5
3b9
  8
Layer_0
  10
561.03223
  20
371.46448
  0
VERTEX
  5
3ba
  8
Layer_0
  10
561.03223
  20
383.46448
  0
VERTEX
  5
3bb
  8
Layer_0
  10
561.05115
  20
383.65912
  0
VERTEX
  5
3bc
  8
Layer_0
  10
561.10559
  20
383.84125
  0
VERTEX
  5
3bd
  8
Layer_0
  10
561.19214
  20
384.0072
  0
VERTEX
  5
3be
  8
Layer_0
  10
561.30707
  20
384.15323
  0
VERTEX
  5
3bf
  8
Layer_0
  10
561.44696
  20
384.27554
  0
VERTEX
  5
3c0
  8
Layer_0
  10
561.60828
  20
384.37048
  0
VERTEX
  5
3c1
  8
Layer_0
  10
561.78735
  20
384.43427
  0
VERTEX
  5
3c2
  8
Layer_0
  10
561.98077
  20
384.46317
  0
VERTEX
  5
3c3
  8
Layer_0
  10
562.03223
  20
384.46448
  0
VERTEX
  5
3c4
  8
Layer_0
  10
574.03223
  20
384.46448
  0
VERTEX
  5
3c5
  8
Layer_0
  10
574.2998
  20
384.4281
  0
VERTEX
  5
3c6
  8
Layer_0
  10
574.54388
  20
384.32379
  0
VERTEX
  5
3c7
  8
Layer_0
  10
574.75195
  20
384.159
  0
VERTEX
  5
3c8
  8
Layer_0
  10
574.91156
  20
383.94113
  0
VERTEX
  5
3c9
  8
Layer_0
  10
575.00177
  20
383.71036
  0
VERTEX
  5
3ca
  8
Layer_0
  10
575.03223
  20
383.46448
  0
SEQEND
  0
POLYLINE
  5
3cc
  8
Layer_0
  62
0
  70
1
  66
1
  10
0
  20
0
  30
0
  0
VERTEX
  5
3cc
  8
Layer_0
  10
561.57721
  20
346.25372
  0
VERTEX
  5
3cd
  8
Layer_0
  10
561.80292
  20
346.41223
  0
VERTEX
  5
3ce
  8
Layer_0
  10
561.97412
  20
346.62213
  0
VERTEX
  5
3cf
  8
Layer_0
  10
562.0827
  20
346.87027
  0
VERTEX
  5
3d0
  8
Layer_0
  10
562.12073
  20
347.1434
  0
VERTEX
  5
3d1
  8
Layer_0
  10
562.12073
  20
347.36395
  0
VERTEX
  5
3d2
  8
Layer_0
  10
562.13965
  20
347.55862
  0
VERTEX
  5
3d3
  8
Layer_0
  10
562.19409
  20
347.74078
  0
VERTEX
  5
3d4
  8
Layer_0
  10
562.28058
  20
347.90674
  0
VERTEX
  5
3d5
  8
Layer_0
  10
562.39557
  20
348.05273
  0
VERTEX
  5
3d6
  8
Layer_0
  10
562.53546
  20
348.17505
  0
VERTEX
  5
3d7
  8
Layer_0
  10
562.69672
  20
348.26999
  0
VERTEX
  5
3d8
  8
Layer_0
  10
562.87585
  20
348.33377
  0
VERTEX
  5
3d9
  8
Layer_0
  10
563.06927
  20
348.36267
  0
VERTEX
  5
3da
  8
Layer_0
  10
563.12073
  20
348.36395
  0
VERTEX
  5
3db
  8
Layer_0
  10
568.12073
  20
348.36395
  0
VERTEX
  5
3dc
  8
Layer_0
  10
568.29517
  20
348.34875
  0
VERTEX
  5
3dd
  8
Layer_0
  10
568.46057
  20
348.30463
  0
VERTEX
  5
3de
  8
Layer_0
  10
568.61407
  20
348.23395
  0
VERTEX
  5
3df
  8
Layer_0
  10
568.75269
  20
348.1391
  0
VERTEX
  5
3e0
  8
Layer_0
  10
568.87354
  20
348.02246
  0
VERTEX
  5
3e1
  8
Layer_0
  10
568.97369
  20
347.88641
  0
VERTEX
  5
3e2
  8
Layer_0
  10
569.05029
  20
347.73331
  0
VERTEX
  5
3e3
  8
Layer_0
  10
569.1004
  20
347.56549
  0
VERTEX
  5
3e4
  8
Layer_0
  10
569.11572
  20
347.46524
  0
VERTEX
  5
3e5
  8
Layer_0
  10
569.12103
  20
347.33914
  0
VERTEX
  5
3e6
  8
Layer_0
  10
569.14392
  20
347.14981
  0
VERTEX
  5
3e7
  8
Layer_0
  10
569.20166
  20
346.96982
  0
VERTEX
  5
3e8
  8
Layer_0
  10
569.29224
  20
346.80392
  0
VERTEX
  5
3e9
  8
Layer_0
  10
569.41357
  20
346.65683
  0
VERTEX
  5
3ea
  8
Layer_0
  10
569.56592
  20
346.53192
  0
VERTEX
  5
3eb
  8
Layer_0
  10
569.73804
  20
346.44006
  0
VERTEX
  5
3ec
  8
Layer_0
  10
569.92468
  20
346.38333
  0
VERTEX
  5
3ed
  8
Layer_0
  10
570.12073
  20
346.36395
  0
VERTEX
  5
3ee
  8
Layer_0
  10
584.9967
  20
346.36395
  0
VERTEX
  5
3ef
  8
Layer_0
  10
585.1983
  20
346.38428
  0
VERTEX
  5
3f0
  8
Layer_0
  10
585.38599
  20
346.44254
  0
VERTEX
  5
3f1
  8
Layer_0
  10
585.55591
  20
346.53473
  0
VERTEX
  5
3f2
  8
Layer_0
  10
585.70386
  20
346.65683
  0
VERTEX
  5
3f3
  8
Layer_0
  10
585.82599
  20
346.80481
  0
VERTEX
  5
3f4
  8
Layer_0
  10
585.91821
  20
346.9747
  0
VERTEX
  5
3f5
  8
Layer_0
  10
585.97644
  20
347.16241
  0
VERTEX
  5
3f6
  8
Layer_0
  10
586.01489
  20
347.5538
  0
VERTEX
  5
3f7
  8
Layer_0
  10
586.06818
  20
347.73517
  0
VERTEX
  5
3f8
  8
Layer_0
  10
586.1546
  20
347.90326
  0
VERTEX
  5
3f9
  8
Layer_0
  10
586.27228
  20
348.05331
  0
VERTEX
  5
3fa
  8
Layer_0
  10
586.28961
  20
348.07111
  0
VERTEX
  5
3fb
  8
Layer_0
  10
586.43671
  20
348.1925
  0
VERTEX
  5
3fc
  8
Layer_0
  10
586.6026
  20
348.28308
  0
VERTEX
  5
3fd
  8
Layer_0
  10
586.78259
  20
348.34079
  0
VERTEX
  5
3fe
  8
Layer_0
  10
586.97192
  20
348.36365
  0
VERTEX
  5
3ff
  8
Layer_0
  10
591.9967
  20
348.36395
  0
VERTEX
  5
400
  8
Layer_0
  10
592.18658
  20
348.34583
  0
VERTEX
  5
401
  8
Layer_0
  10
592.36792
  20
348.29257
  0
VERTEX
  5
402
  8
Layer_0
  10
592.53601
  20
348.20612
  0
VERTEX
  5
403
  8
Layer_0
  10
592.6861
  20
348.08844
  0
VERTEX
  5
404
  8
Layer_0
  10
592.70386
  20
348.07111
  0
VERTEX
  5
405
  8
Layer_0
  10
592.80017
  20
347.95947
  0
VERTEX
  5
406
  8
Layer_0
  10
592.87897
  20
347.83487
  0
VERTEX
  5
407
  8
Layer_0
  10
592.9668
  20
347.60666
  0
VERTEX
  5
408
  8
Layer_0
  10
592.9967
  20
347.36395
  0
VERTEX
  5
409
  8
Layer_0
  10
592.99677
  20
347.1434
  0
VERTEX
  5
40a
  8
Layer_0
  10
592.99921
  20
347.07349
  0
VERTEX
  5
40b
  8
Layer_0
  10
593.05023
  20
346.82056
  0
VERTEX
  5
40c
  8
Layer_0
  10
593.16211
  20
346.59259
  0
VERTEX
  5
40d
  8
Layer_0
  10
593.32776
  20
346.40009
  0
VERTEX
  5
40e
  8
Layer_0
  10
593.54022
  20
346.25369
  0
VERTEX
  5
40f
  8
Layer_0
  10
593.67175
  20
346.17288
  0
VERTEX
  5
410
  8
Layer_0
  10
593.78857
  20
346.07343
  0
VERTEX
  5
411
  8
Layer_0
  10
593.88879
  20
345.95724
  0
VERTEX
  5
412
  8
Layer_0
  10
593.97046
  20
345.82629
  0
VERTEX
  5
413
  8
Layer_0
  10
594.05505
  20
345.60196
  0
VERTEX
  5
414
  8
Layer_0
  10
594.08374
  20
345.36395
  0
VERTEX
  5
415
  8
Layer_0
  10
594.08374
  20
333.36395
  0
VERTEX
  5
416
  8
Layer_0
  10
594.06342
  20
333.16241
  0
VERTEX
  5
417
  8
Layer_0
  10
594.00519
  20
332.9747
  0
VERTEX
  5
418
  8
Layer_0
  10
593.91296
  20
332.80484
  0
VERTEX
  5
419
  8
Layer_0
  10
593.79089
  20
332.65686
  0
VERTEX
  5
41a
  8
Layer_0
  10
593.64288
  20
332.53473
  0
VERTEX
  5
41b
  8
Layer_0
  10
593.47302
  20
332.44254
  0
VERTEX
  5
41c
  8
Layer_0
  10
593.28528
  20
332.38428
  0
VERTEX
  5
41d
  8
Layer_0
  10
593.08374
  20
332.36395
  0
VERTEX
  5
41e
  8
Layer_0
  10
562.03375
  20
332.36395
  0
VERTEX
  5
41f
  8
Layer_0
  10
561.83777
  20
332.38336
  0
VERTEX
  5
420
  8
Layer_0
  10
561.65106
  20
332.44009
  0
VERTEX
  5
421
  8
Layer_0
  10
561.47894
  20
332.53198
  0
VERTEX
  5
422
  8
Layer_0
  10
561.32666
  20
332.65686
  0
VERTEX
  5
423
  8
Layer_0
  10
561.2052
  20
332.80392
  0
VERTEX
  5
424
  8
Layer_0
  10
561.11469
  20
332.96982
  0
VERTEX
  5
425
  8
Layer_0
  10
561.05688
  20
333.14978
  0
VERTEX
  5
426
  8
Layer_0
  10
561.03406
  20
333.33911
  0
VERTEX
  5
427
  8
Layer_0
  10
561.03375
  20
345.36395
  0
VERTEX
  5
428
  8
Layer_0
  10
561.06702
  20
345.61987
  0
VERTEX
  5
429
  8
Layer_0
  10
561.1626
  20
345.8551
  0
VERTEX
  5
42a
  8
Layer_0
  10
561.31445
  20
346.05875
  0
VERTEX
  5
42b
  8
Layer_0
  10
561.51611
  20
346.21964
  0
VERTEX
  5
42c
  8
Layer_0
  10
561.57721
  20
346.25372
  0
SEQEND
  0
ENDSEC
  0
EOF
