%TF.GenerationSoftware,KiCad,Pcbnew,5.1.7-a382d34a8~88~ubuntu20.04.1*%
%TF.CreationDate,2021-03-29T23:20:07+02:00*%
%TF.ProjectId,discipad-bottom-pcb,64697363-6970-4616-942d-626f74746f6d,rev?*%
%TF.SameCoordinates,Original*%
%TF.FileFunction,Soldermask,Bot*%
%TF.FilePolarity,Negative*%
%FSLAX46Y46*%
G04 Gerber Fmt 4.6, Leading zero omitted, Abs format (unit mm)*
G04 Created by KiCad (PCBNEW 5.1.7-a382d34a8~88~ubuntu20.04.1) date 2021-03-29 23:20:07*
%MOMM*%
%LPD*%
G01*
G04 APERTURE LIST*
%ADD10C,0.150000*%
%ADD11C,0.010000*%
%ADD12C,8.702000*%
%ADD13C,4.502000*%
G04 APERTURE END LIST*
D10*
X134998991Y-85767886D02*
X135094229Y-85839315D01*
X135284706Y-85839315D01*
X135379944Y-85767886D01*
X135427563Y-85696458D01*
X135475182Y-85553601D01*
X135475182Y-85125029D01*
X135427563Y-84982172D01*
X135379944Y-84910744D01*
X135284706Y-84839315D01*
X135094229Y-84839315D01*
X134998991Y-84910744D01*
X134427563Y-85839315D02*
X134522801Y-85767886D01*
X134570420Y-85696458D01*
X134618039Y-85553601D01*
X134618039Y-85125029D01*
X134570420Y-84982172D01*
X134522801Y-84910744D01*
X134427563Y-84839315D01*
X134284706Y-84839315D01*
X134189468Y-84910744D01*
X134141849Y-84982172D01*
X134094229Y-85125029D01*
X134094229Y-85553601D01*
X134141849Y-85696458D01*
X134189468Y-85767886D01*
X134284706Y-85839315D01*
X134427563Y-85839315D01*
X133713277Y-85767886D02*
X133618039Y-85839315D01*
X133427563Y-85839315D01*
X133332325Y-85767886D01*
X133284706Y-85625029D01*
X133284706Y-85553601D01*
X133332325Y-85410744D01*
X133427563Y-85339315D01*
X133570420Y-85339315D01*
X133665658Y-85267886D01*
X133713277Y-85125029D01*
X133713277Y-85053601D01*
X133665658Y-84910744D01*
X133570420Y-84839315D01*
X133427563Y-84839315D01*
X133332325Y-84910744D01*
X132475182Y-85767886D02*
X132570420Y-85839315D01*
X132760896Y-85839315D01*
X132856134Y-85767886D01*
X132903753Y-85625029D01*
X132903753Y-85053601D01*
X132856134Y-84910744D01*
X132760896Y-84839315D01*
X132570420Y-84839315D01*
X132475182Y-84910744D01*
X132427563Y-85053601D01*
X132427563Y-85196458D01*
X132903753Y-85339315D01*
X132094229Y-84839315D02*
X131856134Y-85839315D01*
X131618039Y-84839315D02*
X131856134Y-85839315D01*
X131951372Y-86196458D01*
X131998991Y-86267886D01*
X132094229Y-86339315D01*
X131379944Y-84839315D02*
X130998991Y-84839315D01*
X131237087Y-85839315D02*
X131237087Y-84553601D01*
X131189468Y-84410744D01*
X131094229Y-84339315D01*
X130998991Y-84339315D01*
X130237087Y-85839315D02*
X130237087Y-85053601D01*
X130284706Y-84910744D01*
X130379944Y-84839315D01*
X130570420Y-84839315D01*
X130665658Y-84910744D01*
X130237087Y-85767886D02*
X130332325Y-85839315D01*
X130570420Y-85839315D01*
X130665658Y-85767886D01*
X130713277Y-85625029D01*
X130713277Y-85482172D01*
X130665658Y-85339315D01*
X130570420Y-85267886D01*
X130332325Y-85267886D01*
X130237087Y-85196458D01*
X129760896Y-84839315D02*
X129760896Y-85839315D01*
X129760896Y-84982172D02*
X129713277Y-84910744D01*
X129618039Y-84839315D01*
X129475182Y-84839315D01*
X129379944Y-84910744D01*
X129332325Y-85053601D01*
X129332325Y-85839315D01*
X128856134Y-84839315D02*
X128856134Y-85839315D01*
X128856134Y-84982172D02*
X128808515Y-84910744D01*
X128713277Y-84839315D01*
X128570420Y-84839315D01*
X128475182Y-84910744D01*
X128427563Y-85053601D01*
X128427563Y-85839315D01*
X127951372Y-85839315D02*
X127951372Y-84839315D01*
X127951372Y-84339315D02*
X127998991Y-84410744D01*
X127951372Y-84482172D01*
X127903753Y-84410744D01*
X127951372Y-84339315D01*
X127951372Y-84482172D01*
X127618039Y-84839315D02*
X127237087Y-84839315D01*
X127475182Y-84339315D02*
X127475182Y-85625029D01*
X127427563Y-85767886D01*
X127332325Y-85839315D01*
X127237087Y-85839315D01*
X126475182Y-84839315D02*
X126475182Y-85839315D01*
X126903753Y-84839315D02*
X126903753Y-85625029D01*
X126856134Y-85767886D01*
X126760896Y-85839315D01*
X126618039Y-85839315D01*
X126522801Y-85767886D01*
X126475182Y-85696458D01*
X126141849Y-84839315D02*
X125760896Y-84839315D01*
X125998991Y-84339315D02*
X125998991Y-85625029D01*
X125951372Y-85767886D01*
X125856134Y-85839315D01*
X125760896Y-85839315D01*
X125570420Y-84839315D02*
X125189468Y-84839315D01*
X125427563Y-84339315D02*
X125427563Y-85625029D01*
X125379944Y-85767886D01*
X125284706Y-85839315D01*
X125189468Y-85839315D01*
X124856134Y-85839315D02*
X124856134Y-84839315D01*
X124856134Y-84339315D02*
X124903753Y-84410744D01*
X124856134Y-84482172D01*
X124808515Y-84410744D01*
X124856134Y-84339315D01*
X124856134Y-84482172D01*
D11*
G36*
X137164225Y-84251046D02*
G01*
X136306975Y-84251046D01*
X136306975Y-84536796D01*
X137164225Y-84536796D01*
X137164225Y-85051146D01*
X136624475Y-85051146D01*
X136624475Y-85355946D01*
X137164225Y-85355946D01*
X137164225Y-85882996D01*
X136306975Y-85882996D01*
X136306975Y-86187796D01*
X137164225Y-86187796D01*
X137164225Y-86651346D01*
X137469025Y-86651346D01*
X137469025Y-86194146D01*
X138319925Y-86194146D01*
X138319925Y-85889346D01*
X137469025Y-85889346D01*
X137469025Y-85362296D01*
X138002425Y-85362296D01*
X138002425Y-85057496D01*
X137469025Y-85057496D01*
X137469025Y-84536796D01*
X138319925Y-84536796D01*
X138319925Y-84251046D01*
X137469025Y-84251046D01*
X137469025Y-83806546D01*
X137164225Y-83806546D01*
X137164225Y-84251046D01*
G37*
X137164225Y-84251046D02*
X136306975Y-84251046D01*
X136306975Y-84536796D01*
X137164225Y-84536796D01*
X137164225Y-85051146D01*
X136624475Y-85051146D01*
X136624475Y-85355946D01*
X137164225Y-85355946D01*
X137164225Y-85882996D01*
X136306975Y-85882996D01*
X136306975Y-86187796D01*
X137164225Y-86187796D01*
X137164225Y-86651346D01*
X137469025Y-86651346D01*
X137469025Y-86194146D01*
X138319925Y-86194146D01*
X138319925Y-85889346D01*
X137469025Y-85889346D01*
X137469025Y-85362296D01*
X138002425Y-85362296D01*
X138002425Y-85057496D01*
X137469025Y-85057496D01*
X137469025Y-84536796D01*
X138319925Y-84536796D01*
X138319925Y-84251046D01*
X137469025Y-84251046D01*
X137469025Y-83806546D01*
X137164225Y-83806546D01*
X137164225Y-84251046D01*
D10*
X134998991Y-85767886D02*
X135094229Y-85839315D01*
X135284706Y-85839315D01*
X135379944Y-85767886D01*
X135427563Y-85696458D01*
X135475182Y-85553601D01*
X135475182Y-85125029D01*
X135427563Y-84982172D01*
X135379944Y-84910744D01*
X135284706Y-84839315D01*
X135094229Y-84839315D01*
X134998991Y-84910744D01*
X134427563Y-85839315D02*
X134522801Y-85767886D01*
X134570420Y-85696458D01*
X134618039Y-85553601D01*
X134618039Y-85125029D01*
X134570420Y-84982172D01*
X134522801Y-84910744D01*
X134427563Y-84839315D01*
X134284706Y-84839315D01*
X134189468Y-84910744D01*
X134141849Y-84982172D01*
X134094229Y-85125029D01*
X134094229Y-85553601D01*
X134141849Y-85696458D01*
X134189468Y-85767886D01*
X134284706Y-85839315D01*
X134427563Y-85839315D01*
X133713277Y-85767886D02*
X133618039Y-85839315D01*
X133427563Y-85839315D01*
X133332325Y-85767886D01*
X133284706Y-85625029D01*
X133284706Y-85553601D01*
X133332325Y-85410744D01*
X133427563Y-85339315D01*
X133570420Y-85339315D01*
X133665658Y-85267886D01*
X133713277Y-85125029D01*
X133713277Y-85053601D01*
X133665658Y-84910744D01*
X133570420Y-84839315D01*
X133427563Y-84839315D01*
X133332325Y-84910744D01*
X132475182Y-85767886D02*
X132570420Y-85839315D01*
X132760896Y-85839315D01*
X132856134Y-85767886D01*
X132903753Y-85625029D01*
X132903753Y-85053601D01*
X132856134Y-84910744D01*
X132760896Y-84839315D01*
X132570420Y-84839315D01*
X132475182Y-84910744D01*
X132427563Y-85053601D01*
X132427563Y-85196458D01*
X132903753Y-85339315D01*
X132094229Y-84839315D02*
X131856134Y-85839315D01*
X131618039Y-84839315D02*
X131856134Y-85839315D01*
X131951372Y-86196458D01*
X131998991Y-86267886D01*
X132094229Y-86339315D01*
X131379944Y-84839315D02*
X130998991Y-84839315D01*
X131237087Y-85839315D02*
X131237087Y-84553601D01*
X131189468Y-84410744D01*
X131094229Y-84339315D01*
X130998991Y-84339315D01*
X130237087Y-85839315D02*
X130237087Y-85053601D01*
X130284706Y-84910744D01*
X130379944Y-84839315D01*
X130570420Y-84839315D01*
X130665658Y-84910744D01*
X130237087Y-85767886D02*
X130332325Y-85839315D01*
X130570420Y-85839315D01*
X130665658Y-85767886D01*
X130713277Y-85625029D01*
X130713277Y-85482172D01*
X130665658Y-85339315D01*
X130570420Y-85267886D01*
X130332325Y-85267886D01*
X130237087Y-85196458D01*
X129760896Y-84839315D02*
X129760896Y-85839315D01*
X129760896Y-84982172D02*
X129713277Y-84910744D01*
X129618039Y-84839315D01*
X129475182Y-84839315D01*
X129379944Y-84910744D01*
X129332325Y-85053601D01*
X129332325Y-85839315D01*
X128856134Y-84839315D02*
X128856134Y-85839315D01*
X128856134Y-84982172D02*
X128808515Y-84910744D01*
X128713277Y-84839315D01*
X128570420Y-84839315D01*
X128475182Y-84910744D01*
X128427563Y-85053601D01*
X128427563Y-85839315D01*
X127951372Y-85839315D02*
X127951372Y-84839315D01*
X127951372Y-84339315D02*
X127998991Y-84410744D01*
X127951372Y-84482172D01*
X127903753Y-84410744D01*
X127951372Y-84339315D01*
X127951372Y-84482172D01*
X127618039Y-84839315D02*
X127237087Y-84839315D01*
X127475182Y-84339315D02*
X127475182Y-85625029D01*
X127427563Y-85767886D01*
X127332325Y-85839315D01*
X127237087Y-85839315D01*
X126475182Y-84839315D02*
X126475182Y-85839315D01*
X126903753Y-84839315D02*
X126903753Y-85625029D01*
X126856134Y-85767886D01*
X126760896Y-85839315D01*
X126618039Y-85839315D01*
X126522801Y-85767886D01*
X126475182Y-85696458D01*
X126141849Y-84839315D02*
X125760896Y-84839315D01*
X125998991Y-84339315D02*
X125998991Y-85625029D01*
X125951372Y-85767886D01*
X125856134Y-85839315D01*
X125760896Y-85839315D01*
X125570420Y-84839315D02*
X125189468Y-84839315D01*
X125427563Y-84339315D02*
X125427563Y-85625029D01*
X125379944Y-85767886D01*
X125284706Y-85839315D01*
X125189468Y-85839315D01*
X124856134Y-85839315D02*
X124856134Y-84839315D01*
X124856134Y-84339315D02*
X124903753Y-84410744D01*
X124856134Y-84482172D01*
X124808515Y-84410744D01*
X124856134Y-84339315D01*
X124856134Y-84482172D01*
D11*
G36*
X137164225Y-84251046D02*
G01*
X136306975Y-84251046D01*
X136306975Y-84536796D01*
X137164225Y-84536796D01*
X137164225Y-85051146D01*
X136624475Y-85051146D01*
X136624475Y-85355946D01*
X137164225Y-85355946D01*
X137164225Y-85882996D01*
X136306975Y-85882996D01*
X136306975Y-86187796D01*
X137164225Y-86187796D01*
X137164225Y-86651346D01*
X137469025Y-86651346D01*
X137469025Y-86194146D01*
X138319925Y-86194146D01*
X138319925Y-85889346D01*
X137469025Y-85889346D01*
X137469025Y-85362296D01*
X138002425Y-85362296D01*
X138002425Y-85057496D01*
X137469025Y-85057496D01*
X137469025Y-84536796D01*
X138319925Y-84536796D01*
X138319925Y-84251046D01*
X137469025Y-84251046D01*
X137469025Y-83806546D01*
X137164225Y-83806546D01*
X137164225Y-84251046D01*
G37*
X137164225Y-84251046D02*
X136306975Y-84251046D01*
X136306975Y-84536796D01*
X137164225Y-84536796D01*
X137164225Y-85051146D01*
X136624475Y-85051146D01*
X136624475Y-85355946D01*
X137164225Y-85355946D01*
X137164225Y-85882996D01*
X136306975Y-85882996D01*
X136306975Y-86187796D01*
X137164225Y-86187796D01*
X137164225Y-86651346D01*
X137469025Y-86651346D01*
X137469025Y-86194146D01*
X138319925Y-86194146D01*
X138319925Y-85889346D01*
X137469025Y-85889346D01*
X137469025Y-85362296D01*
X138002425Y-85362296D01*
X138002425Y-85057496D01*
X137469025Y-85057496D01*
X137469025Y-84536796D01*
X138319925Y-84536796D01*
X138319925Y-84251046D01*
X137469025Y-84251046D01*
X137469025Y-83806546D01*
X137164225Y-83806546D01*
X137164225Y-84251046D01*
D12*
X123158765Y-53561440D03*
D13*
X143833559Y-118686673D03*
X115752543Y-99566685D03*
X171914575Y-99841686D03*
X143833559Y-61784261D03*
X179001130Y-28475773D03*
X108503031Y-28475773D03*
D12*
X164508353Y-53561440D03*
M02*
