%FSLAX45Y45*%
G04 Gerber Fmt 4.5, Leading zero omitted, Abs format (unit mm)*
G04 Created by KiCad (PCBNEW 5.1.10-88a1d61d58~90~ubuntu21.04.1) date 2021-08-17 12:33:04*
%MOMM*%
%LPD*%
G01*
G04 APERTURE LIST*
%TA.AperFunction,Profile*%
%ADD10C,0.150000*%
%TD*%
%ADD11C,0.200000*%
%ADD12C,0.300000*%
G04 APERTURE END LIST*
D10*
X10897754Y-13790174D02*
G75*
G02*
X10567042Y-13459461I0J330712D01*
G01*
X18199670Y-13459461D02*
G75*
G02*
X17868958Y-13790174I-330712J0D01*
G01*
X17868958Y-1510174D02*
G75*
G02*
X18199670Y-1840886I0J-330712D01*
G01*
X10567042Y-1840886D02*
G75*
G02*
X10897754Y-1510174I330712J0D01*
G01*
X10567042Y-13459461D02*
X10567042Y-1840886D01*
X10897754Y-1510174D02*
X17868958Y-1510174D01*
X18199670Y-1840886D02*
X18199670Y-13459461D01*
X17868958Y-13790174D02*
X10897754Y-13790174D01*
D11*
D12*
X10845971Y-14263388D02*
X10845971Y-13963388D01*
X10917399Y-13963388D01*
X10960256Y-13977674D01*
X10988828Y-14006245D01*
X11003113Y-14034817D01*
X11017399Y-14091959D01*
X11017399Y-14134817D01*
X11003113Y-14191959D01*
X10988828Y-14220531D01*
X10960256Y-14249102D01*
X10917399Y-14263388D01*
X10845971Y-14263388D01*
X11145971Y-14263388D02*
X11145971Y-14063388D01*
X11145971Y-14120531D02*
X11160256Y-14091959D01*
X11174542Y-14077674D01*
X11203113Y-14063388D01*
X11231685Y-14063388D01*
X11331685Y-14263388D02*
X11331685Y-14063388D01*
X11331685Y-13963388D02*
X11317399Y-13977674D01*
X11331685Y-13991959D01*
X11345970Y-13977674D01*
X11331685Y-13963388D01*
X11331685Y-13991959D01*
X11517399Y-14263388D02*
X11488828Y-14249102D01*
X11474542Y-14220531D01*
X11474542Y-13963388D01*
X11674542Y-14263388D02*
X11645970Y-14249102D01*
X11631685Y-14220531D01*
X11631685Y-13963388D01*
X12017399Y-14263388D02*
X12017399Y-13963388D01*
X12117399Y-14177674D01*
X12217399Y-13963388D01*
X12217399Y-14263388D01*
X12488828Y-14263388D02*
X12488828Y-14106245D01*
X12474542Y-14077674D01*
X12445970Y-14063388D01*
X12388828Y-14063388D01*
X12360256Y-14077674D01*
X12488828Y-14249102D02*
X12460256Y-14263388D01*
X12388828Y-14263388D01*
X12360256Y-14249102D01*
X12345970Y-14220531D01*
X12345970Y-14191959D01*
X12360256Y-14163388D01*
X12388828Y-14149102D01*
X12460256Y-14149102D01*
X12488828Y-14134817D01*
X12631685Y-14063388D02*
X12631685Y-14363388D01*
X12631685Y-14077674D02*
X12660256Y-14063388D01*
X12717399Y-14063388D01*
X12745970Y-14077674D01*
X12760256Y-14091959D01*
X12774542Y-14120531D01*
X12774542Y-14206245D01*
X12760256Y-14234817D01*
X12745970Y-14249102D01*
X12717399Y-14263388D01*
X12660256Y-14263388D01*
X12631685Y-14249102D01*
X12903113Y-14234817D02*
X12917399Y-14249102D01*
X12903113Y-14263388D01*
X12888828Y-14249102D01*
X12903113Y-14234817D01*
X12903113Y-14263388D01*
X12903113Y-14077674D02*
X12917399Y-14091959D01*
X12903113Y-14106245D01*
X12888828Y-14091959D01*
X12903113Y-14077674D01*
X12903113Y-14106245D01*
M02*
