G04 #@! TF.GenerationSoftware,KiCad,Pcbnew,5.1.10-88a1d61d58~90~ubuntu21.04.1*
G04 #@! TF.CreationDate,2021-08-17T12:33:01+02:00*
G04 #@! TF.ProjectId,discipad-bottom-pcb,64697363-6970-4616-942d-626f74746f6d,rev?*
G04 #@! TF.SameCoordinates,Original*
G04 #@! TF.FileFunction,Legend,Top*
G04 #@! TF.FilePolarity,Positive*
%FSLAX46Y46*%
G04 Gerber Fmt 4.6, Leading zero omitted, Abs format (unit mm)*
G04 Created by KiCad (PCBNEW 5.1.10-88a1d61d58~90~ubuntu21.04.1) date 2021-08-17 12:33:01*
%MOMM*%
%LPD*%
G01*
G04 APERTURE LIST*
%ADD10C,0.150000*%
%ADD11C,8.702000*%
%ADD12C,4.502000*%
G04 APERTURE END LIST*
D10*
X108392040Y-135440897D02*
X108392040Y-136012326D01*
X108353945Y-136126612D01*
X108277754Y-136202802D01*
X108163469Y-136240897D01*
X108087278Y-136240897D01*
X109153945Y-136240897D02*
X108772993Y-136240897D01*
X108772993Y-135440897D01*
X109877754Y-136164707D02*
X109839659Y-136202802D01*
X109725373Y-136240897D01*
X109649183Y-136240897D01*
X109534897Y-136202802D01*
X109458707Y-136126612D01*
X109420612Y-136050421D01*
X109382516Y-135898040D01*
X109382516Y-135783754D01*
X109420612Y-135631373D01*
X109458707Y-135555183D01*
X109534897Y-135478993D01*
X109649183Y-135440897D01*
X109725373Y-135440897D01*
X109839659Y-135478993D01*
X109877754Y-135517088D01*
X110449183Y-135440897D02*
X110449183Y-136012326D01*
X110411088Y-136126612D01*
X110334897Y-136202802D01*
X110220612Y-136240897D01*
X110144421Y-136240897D01*
X111211088Y-136240897D02*
X110830135Y-136240897D01*
X110830135Y-135440897D01*
X111934897Y-136164707D02*
X111896802Y-136202802D01*
X111782516Y-136240897D01*
X111706326Y-136240897D01*
X111592040Y-136202802D01*
X111515850Y-136126612D01*
X111477754Y-136050421D01*
X111439659Y-135898040D01*
X111439659Y-135783754D01*
X111477754Y-135631373D01*
X111515850Y-135555183D01*
X111592040Y-135478993D01*
X111706326Y-135440897D01*
X111782516Y-135440897D01*
X111896802Y-135478993D01*
X111934897Y-135517088D01*
X112506326Y-135440897D02*
X112506326Y-136012326D01*
X112468231Y-136126612D01*
X112392040Y-136202802D01*
X112277754Y-136240897D01*
X112201564Y-136240897D01*
X113268231Y-136240897D02*
X112887278Y-136240897D01*
X112887278Y-135440897D01*
X113992040Y-136164707D02*
X113953945Y-136202802D01*
X113839659Y-136240897D01*
X113763469Y-136240897D01*
X113649183Y-136202802D01*
X113572993Y-136126612D01*
X113534897Y-136050421D01*
X113496802Y-135898040D01*
X113496802Y-135783754D01*
X113534897Y-135631373D01*
X113572993Y-135555183D01*
X113649183Y-135478993D01*
X113763469Y-135440897D01*
X113839659Y-135440897D01*
X113953945Y-135478993D01*
X113992040Y-135517088D01*
X114563469Y-135440897D02*
X114563469Y-136012326D01*
X114525373Y-136126612D01*
X114449183Y-136202802D01*
X114334897Y-136240897D01*
X114258707Y-136240897D01*
X115325373Y-136240897D02*
X114944421Y-136240897D01*
X114944421Y-135440897D01*
X116049183Y-136164707D02*
X116011088Y-136202802D01*
X115896802Y-136240897D01*
X115820612Y-136240897D01*
X115706326Y-136202802D01*
X115630135Y-136126612D01*
X115592040Y-136050421D01*
X115553945Y-135898040D01*
X115553945Y-135783754D01*
X115592040Y-135631373D01*
X115630135Y-135555183D01*
X115706326Y-135478993D01*
X115820612Y-135440897D01*
X115896802Y-135440897D01*
X116011088Y-135478993D01*
X116049183Y-135517088D01*
%LPC*%
D11*
X123158765Y-53561440D03*
D12*
X143833559Y-118686673D03*
X115752543Y-99566685D03*
X171914575Y-99841686D03*
X143833559Y-61784261D03*
X179001130Y-28475773D03*
X108503031Y-28475773D03*
D11*
X164508353Y-53561440D03*
M02*
