G04 #@! TF.GenerationSoftware,KiCad,Pcbnew,5.1.10-88a1d61d58~90~ubuntu21.04.1*
G04 #@! TF.CreationDate,2021-08-17T12:25:34+02:00*
G04 #@! TF.ProjectId,discipad-plate,64697363-6970-4616-942d-706c6174652e,rev?*
G04 #@! TF.SameCoordinates,Original*
G04 #@! TF.FileFunction,Paste,Top*
G04 #@! TF.FilePolarity,Positive*
%FSLAX46Y46*%
G04 Gerber Fmt 4.6, Leading zero omitted, Abs format (unit mm)*
G04 Created by KiCad (PCBNEW 5.1.10-88a1d61d58~90~ubuntu21.04.1) date 2021-08-17 12:25:34*
%MOMM*%
%LPD*%
G01*
G04 APERTURE LIST*
G04 #@! TA.AperFunction,Profile*
%ADD10C,0.200000*%
G04 #@! TD*
G04 #@! TA.AperFunction,Profile*
%ADD11C,0.150000*%
G04 #@! TD*
G04 APERTURE END LIST*
D10*
X177339693Y-96212493D02*
X164339693Y-96212493D01*
X131581519Y-134901494D02*
G75*
G02*
X132447544Y-134401494I866025J-500000D01*
G01*
X115277493Y-119401493D02*
X110277493Y-119401493D01*
X110277493Y-134401493D02*
G75*
G02*
X109277493Y-133401493I0J1000000D01*
G01*
X133153493Y-120401493D02*
X133153493Y-120401493D01*
X109277493Y-120401493D02*
G75*
G02*
X110277493Y-119401493I1000000J0D01*
G01*
X133153493Y-120401493D02*
G75*
G02*
X134153493Y-119401493I1000000J0D01*
G01*
X131581518Y-134901494D02*
G75*
G02*
X130715493Y-135401494I-866025J500000D01*
G01*
X132153493Y-121401494D02*
X117277493Y-121401494D01*
X130715493Y-135401494D02*
X118715493Y-135401494D01*
X140153493Y-133401493D02*
X140153493Y-120401493D01*
X117277493Y-121401493D02*
G75*
G02*
X116277493Y-120401493I0J1000000D01*
G01*
X115277493Y-119401493D02*
G75*
G02*
X116277493Y-120401493I0J-1000000D01*
G01*
X139153493Y-119401493D02*
X134153493Y-119401493D01*
X133153494Y-120401493D02*
G75*
G02*
X132153493Y-121401494I-1000001J0D01*
G01*
X116983443Y-134401494D02*
G75*
G02*
X117849468Y-134901494I0J-1000000D01*
G01*
X139153493Y-134401493D02*
X132447544Y-134401494D01*
X140153493Y-133401493D02*
G75*
G02*
X139153493Y-134401493I-1000000J0D01*
G01*
X116277493Y-120401493D02*
X116277493Y-120401493D01*
X110277493Y-134401493D02*
X116983443Y-134401494D01*
X139153493Y-119401493D02*
G75*
G02*
X140153493Y-120401493I0J-1000000D01*
G01*
X118715493Y-135401494D02*
G75*
G02*
X117849468Y-134901494I0J1000000D01*
G01*
X109277493Y-133401493D02*
X109277493Y-120401493D01*
X178840494Y-112019467D02*
G75*
G02*
X178340494Y-111153442I500000J866025D01*
G01*
X163340493Y-128323493D02*
X163340493Y-133323493D01*
X178340493Y-133323493D02*
G75*
G02*
X177340493Y-134323493I-1000000J0D01*
G01*
X164340493Y-110447493D02*
X164340493Y-110447493D01*
X164340493Y-134323493D02*
G75*
G02*
X163340493Y-133323493I0J1000000D01*
G01*
X164340493Y-110447493D02*
G75*
G02*
X163340493Y-109447493I0J1000000D01*
G01*
X178840494Y-112019468D02*
G75*
G02*
X179340494Y-112885493I-500000J-866025D01*
G01*
X165340494Y-111447493D02*
X165340494Y-126323493D01*
X179340494Y-112885493D02*
X179340494Y-124885493D01*
X177340493Y-103447493D02*
X164340493Y-103447493D01*
X165340493Y-126323493D02*
G75*
G02*
X164340493Y-127323493I-1000000J0D01*
G01*
X163340493Y-128323493D02*
G75*
G02*
X164340493Y-127323493I1000000J0D01*
G01*
X163340493Y-104447493D02*
X163340493Y-109447493D01*
X164340493Y-110447492D02*
G75*
G02*
X165340494Y-111447493I0J-1000001D01*
G01*
X178340494Y-126617543D02*
G75*
G02*
X178840494Y-125751518I1000000J0D01*
G01*
X178340493Y-104447493D02*
X178340494Y-111153442D01*
X177340493Y-103447493D02*
G75*
G02*
X178340493Y-104447493I0J-1000000D01*
G01*
X164340493Y-127323493D02*
X164340493Y-127323493D01*
X178340493Y-133323493D02*
X178340494Y-126617543D01*
X163340493Y-104447493D02*
G75*
G02*
X164340493Y-103447493I1000000J0D01*
G01*
X179340494Y-124885493D02*
G75*
G02*
X178840494Y-125751518I-1000000J0D01*
G01*
X177340493Y-134323493D02*
X164340493Y-134323493D01*
X163339693Y-66336493D02*
G75*
G02*
X164339693Y-65336493I1000000J0D01*
G01*
X177339693Y-65336493D02*
X164339693Y-65336493D01*
X178339693Y-95212493D02*
G75*
G02*
X177339693Y-96212493I-1000000J0D01*
G01*
X179339694Y-86774493D02*
G75*
G02*
X178839694Y-87640518I-1000000J0D01*
G01*
X163339693Y-90212493D02*
G75*
G02*
X164339693Y-89212493I1000000J0D01*
G01*
X178839694Y-73908468D02*
G75*
G02*
X179339694Y-74774493I-500000J-866025D01*
G01*
X164339693Y-72336493D02*
G75*
G02*
X163339693Y-71336493I0J1000000D01*
G01*
X164339693Y-96212493D02*
G75*
G02*
X163339693Y-95212493I0J1000000D01*
G01*
X178339693Y-66336493D02*
X178339694Y-73042442D01*
X165339694Y-73336493D02*
X165339694Y-88212493D01*
X164339693Y-89212493D02*
X164339693Y-89212493D01*
X164339693Y-72336493D02*
X164339693Y-72336493D01*
X178339693Y-95212493D02*
X178339694Y-88506543D01*
X165339693Y-88212493D02*
G75*
G02*
X164339693Y-89212493I-1000000J0D01*
G01*
X177339693Y-65336493D02*
G75*
G02*
X178339693Y-66336493I0J-1000000D01*
G01*
X164339693Y-72336492D02*
G75*
G02*
X165339694Y-73336493I0J-1000001D01*
G01*
X178339694Y-88506543D02*
G75*
G02*
X178839694Y-87640518I1000000J0D01*
G01*
X178839694Y-73908467D02*
G75*
G02*
X178339694Y-73042442I500000J866025D01*
G01*
X163339693Y-66336493D02*
X163339693Y-71336493D01*
X179339694Y-74774493D02*
X179339694Y-86774493D01*
X163339693Y-90212493D02*
X163339693Y-95212493D01*
X159288999Y-121400993D02*
X147288993Y-121400993D01*
X146288992Y-122400994D02*
G75*
G02*
X147288993Y-121400993I1000001J0D01*
G01*
X159288999Y-121400993D02*
G75*
G02*
X160289000Y-122400994I0J-1000001D01*
G01*
X160289000Y-134401000D02*
G75*
G02*
X159288999Y-135401001I-1000001J0D01*
G01*
X147288993Y-135401001D02*
X159288999Y-135401001D01*
X160289000Y-134401000D02*
X160289000Y-122400994D01*
X146288992Y-122400994D02*
X146288992Y-134401000D01*
X147288993Y-135401001D02*
G75*
G02*
X146288992Y-134401000I0J1000001D01*
G01*
X108188992Y-103350994D02*
G75*
G02*
X109188993Y-102350993I1000001J0D01*
G01*
X122189000Y-115351000D02*
G75*
G02*
X121188999Y-116351001I-1000001J0D01*
G01*
X127238992Y-103350994D02*
G75*
G02*
X128238993Y-102350993I1000001J0D01*
G01*
X121188999Y-102350993D02*
X109188993Y-102350993D01*
X141239000Y-115351000D02*
X141239000Y-103350994D01*
X109188993Y-116351001D02*
X121188999Y-116351001D01*
X160289000Y-115351000D02*
X160289000Y-103350994D01*
X127238992Y-103350994D02*
X127238992Y-115351000D01*
X147288993Y-116351001D02*
G75*
G02*
X146288992Y-115351000I0J1000001D01*
G01*
X140238999Y-102350993D02*
X128238993Y-102350993D01*
X122189000Y-115351000D02*
X122189000Y-103350994D01*
X159288999Y-102350993D02*
X147288993Y-102350993D01*
X146288992Y-103350994D02*
G75*
G02*
X147288993Y-102350993I1000001J0D01*
G01*
X160289000Y-115351000D02*
G75*
G02*
X159288999Y-116351001I-1000001J0D01*
G01*
X121188999Y-102350993D02*
G75*
G02*
X122189000Y-103350994I0J-1000001D01*
G01*
X147288993Y-116351001D02*
X159288999Y-116351001D01*
X109188993Y-116351001D02*
G75*
G02*
X108188992Y-115351000I0J1000001D01*
G01*
X141239000Y-115351000D02*
G75*
G02*
X140238999Y-116351001I-1000001J0D01*
G01*
X128238993Y-116351001D02*
X140238999Y-116351001D01*
X108188992Y-103350994D02*
X108188992Y-115351000D01*
X159288999Y-102350993D02*
G75*
G02*
X160289000Y-103350994I0J-1000001D01*
G01*
X140238999Y-102350993D02*
G75*
G02*
X141239000Y-103350994I0J-1000001D01*
G01*
X146288992Y-103350994D02*
X146288992Y-115351000D01*
X128238993Y-116351001D02*
G75*
G02*
X127238992Y-115351000I0J1000001D01*
G01*
X108188992Y-84300994D02*
G75*
G02*
X109188993Y-83300993I1000001J0D01*
G01*
X122189000Y-96301000D02*
G75*
G02*
X121188999Y-97301001I-1000001J0D01*
G01*
X127238992Y-84300994D02*
G75*
G02*
X128238993Y-83300993I1000001J0D01*
G01*
X121188999Y-83300993D02*
X109188993Y-83300993D01*
X141239000Y-96301000D02*
X141239000Y-84300994D01*
X109188993Y-97301001D02*
X121188999Y-97301001D01*
X160289000Y-96301000D02*
X160289000Y-84300994D01*
X127238992Y-84300994D02*
X127238992Y-96301000D01*
X147288993Y-97301001D02*
G75*
G02*
X146288992Y-96301000I0J1000001D01*
G01*
X140238999Y-83300993D02*
X128238993Y-83300993D01*
X122189000Y-96301000D02*
X122189000Y-84300994D01*
X159288999Y-83300993D02*
X147288993Y-83300993D01*
X146288992Y-84300994D02*
G75*
G02*
X147288993Y-83300993I1000001J0D01*
G01*
X160289000Y-96301000D02*
G75*
G02*
X159288999Y-97301001I-1000001J0D01*
G01*
X121188999Y-83300993D02*
G75*
G02*
X122189000Y-84300994I0J-1000001D01*
G01*
X147288993Y-97301001D02*
X159288999Y-97301001D01*
X109188993Y-97301001D02*
G75*
G02*
X108188992Y-96301000I0J1000001D01*
G01*
X141239000Y-96301000D02*
G75*
G02*
X140238999Y-97301001I-1000001J0D01*
G01*
X128238993Y-97301001D02*
X140238999Y-97301001D01*
X108188992Y-84300994D02*
X108188992Y-96301000D01*
X159288999Y-83300993D02*
G75*
G02*
X160289000Y-84300994I0J-1000001D01*
G01*
X140238999Y-83300993D02*
G75*
G02*
X141239000Y-84300994I0J-1000001D01*
G01*
X146288992Y-84300994D02*
X146288992Y-96301000D01*
X128238993Y-97301001D02*
G75*
G02*
X127238992Y-96301000I0J1000001D01*
G01*
X122189000Y-77251000D02*
G75*
G02*
X121188999Y-78251001I-1000001J0D01*
G01*
X140238999Y-64250993D02*
X128238993Y-64250993D01*
X160289000Y-77251000D02*
X160289000Y-65250994D01*
X147288993Y-78251001D02*
X159288999Y-78251001D01*
X127238992Y-65250994D02*
G75*
G02*
X128238993Y-64250993I1000001J0D01*
G01*
X128238993Y-78251001D02*
G75*
G02*
X127238992Y-77251000I0J1000001D01*
G01*
X141239000Y-77251000D02*
G75*
G02*
X140238999Y-78251001I-1000001J0D01*
G01*
X109188993Y-78251001D02*
G75*
G02*
X108188992Y-77251000I0J1000001D01*
G01*
X146288992Y-65250994D02*
X146288992Y-77251000D01*
X140238999Y-64250993D02*
G75*
G02*
X141239000Y-65250994I0J-1000001D01*
G01*
X159288999Y-64250993D02*
G75*
G02*
X160289000Y-65250994I0J-1000001D01*
G01*
X159288999Y-64250993D02*
X147288993Y-64250993D01*
X141239000Y-77251000D02*
X141239000Y-65250994D01*
X127238992Y-65250994D02*
X127238992Y-77251000D01*
X108188992Y-65250994D02*
X108188992Y-77251000D01*
X128238993Y-78251001D02*
X140238999Y-78251001D01*
X121188999Y-64250993D02*
X109188993Y-64250993D01*
X147288993Y-78251001D02*
G75*
G02*
X146288992Y-77251000I0J1000001D01*
G01*
X122189000Y-77251000D02*
X122189000Y-65250994D01*
X160289000Y-77251000D02*
G75*
G02*
X159288999Y-78251001I-1000001J0D01*
G01*
X109188993Y-78251001D02*
X121188999Y-78251001D01*
X146288992Y-65250994D02*
G75*
G02*
X147288993Y-64250993I1000001J0D01*
G01*
X108188992Y-65250994D02*
G75*
G02*
X109188993Y-64250993I1000001J0D01*
G01*
X121188999Y-64250993D02*
G75*
G02*
X122189000Y-65250994I0J-1000001D01*
G01*
X179339000Y-58201000D02*
X179339000Y-46200994D01*
X166338993Y-59201001D02*
X178338999Y-59201001D01*
X165338992Y-46200994D02*
X165338992Y-58201000D01*
X178338999Y-45200993D02*
G75*
G02*
X179339000Y-46200994I0J-1000001D01*
G01*
X178338999Y-45200993D02*
X166338993Y-45200993D01*
X166338993Y-59201001D02*
G75*
G02*
X165338992Y-58201000I0J1000001D01*
G01*
X179339000Y-58201000D02*
G75*
G02*
X178338999Y-59201001I-1000001J0D01*
G01*
X165338992Y-46200994D02*
G75*
G02*
X166338993Y-45200993I1000001J0D01*
G01*
X159288999Y-45200993D02*
X147288993Y-45200993D01*
X146288992Y-46200994D02*
G75*
G02*
X147288993Y-45200993I1000001J0D01*
G01*
X147288993Y-59201001D02*
G75*
G02*
X146288992Y-58201000I0J1000001D01*
G01*
X160289000Y-58201000D02*
G75*
G02*
X159288999Y-59201001I-1000001J0D01*
G01*
X159288999Y-45200993D02*
G75*
G02*
X160289000Y-46200994I0J-1000001D01*
G01*
X160289000Y-58201000D02*
X160289000Y-46200994D01*
X146288992Y-46200994D02*
X146288992Y-58201000D01*
X147288993Y-59201001D02*
X159288999Y-59201001D01*
X141239000Y-58201000D02*
G75*
G02*
X140238999Y-59201001I-1000001J0D01*
G01*
X128238993Y-59201001D02*
G75*
G02*
X127238992Y-58201000I0J1000001D01*
G01*
X127238992Y-46200994D02*
X127238992Y-58201000D01*
X140238999Y-45200993D02*
X128238993Y-45200993D01*
X141239000Y-58201000D02*
X141239000Y-46200994D01*
X128238993Y-59201001D02*
X140238999Y-59201001D01*
X127238992Y-46200994D02*
G75*
G02*
X128238993Y-45200993I1000001J0D01*
G01*
X140238999Y-45200993D02*
G75*
G02*
X141239000Y-46200994I0J-1000001D01*
G01*
X109188993Y-59201001D02*
G75*
G02*
X108188992Y-58201000I0J1000001D01*
G01*
X121188999Y-45200993D02*
X109188993Y-45200993D01*
X122189000Y-58201000D02*
X122189000Y-46200994D01*
X108188992Y-46200994D02*
G75*
G02*
X109188993Y-45200993I1000001J0D01*
G01*
X121188999Y-45200993D02*
G75*
G02*
X122189000Y-46200994I0J-1000001D01*
G01*
X122189000Y-58201000D02*
G75*
G02*
X121188999Y-59201001I-1000001J0D01*
G01*
X109188993Y-59201001D02*
X121188999Y-59201001D01*
X108188992Y-46200994D02*
X108188992Y-58201000D01*
D11*
X108977543Y-137901737D02*
G75*
G02*
X105670421Y-134594615I0J3307122D01*
G01*
X181996697Y-134594615D02*
G75*
G02*
X178689575Y-137901737I-3307122J0D01*
G01*
X178689575Y-42701737D02*
G75*
G02*
X181996697Y-46008859I0J-3307122D01*
G01*
X105670421Y-46008859D02*
G75*
G02*
X108977543Y-42701737I3307122J0D01*
G01*
X105670421Y-134594615D02*
X105670421Y-46008859D01*
X108977543Y-42701737D02*
X178689575Y-42701737D01*
X181996697Y-46008859D02*
X181996697Y-134594615D01*
X178689575Y-137901737D02*
X108977543Y-137901737D01*
M02*
